G04 #@! TF.GenerationSoftware,KiCad,Pcbnew,(6.0.5-0)*
G04 #@! TF.CreationDate,2022-11-14T20:13:07-05:00*
G04 #@! TF.ProjectId,switchable-rf-attenuator,73776974-6368-4616-926c-652d72662d61,rev?*
G04 #@! TF.SameCoordinates,Original*
G04 #@! TF.FileFunction,Copper,L4,Bot*
G04 #@! TF.FilePolarity,Positive*
%FSLAX46Y46*%
G04 Gerber Fmt 4.6, Leading zero omitted, Abs format (unit mm)*
G04 Created by KiCad (PCBNEW (6.0.5-0)) date 2022-11-14 20:13:07*
%MOMM*%
%LPD*%
G01*
G04 APERTURE LIST*
G04 Aperture macros list*
%AMRoundRect*
0 Rectangle with rounded corners*
0 $1 Rounding radius*
0 $2 $3 $4 $5 $6 $7 $8 $9 X,Y pos of 4 corners*
0 Add a 4 corners polygon primitive as box body*
4,1,4,$2,$3,$4,$5,$6,$7,$8,$9,$2,$3,0*
0 Add four circle primitives for the rounded corners*
1,1,$1+$1,$2,$3*
1,1,$1+$1,$4,$5*
1,1,$1+$1,$6,$7*
1,1,$1+$1,$8,$9*
0 Add four rect primitives between the rounded corners*
20,1,$1+$1,$2,$3,$4,$5,0*
20,1,$1+$1,$4,$5,$6,$7,0*
20,1,$1+$1,$6,$7,$8,$9,0*
20,1,$1+$1,$8,$9,$2,$3,0*%
%AMFreePoly0*
4,1,6,1.000000,0.000000,0.500000,-0.750000,-0.500000,-0.750000,-0.500000,0.750000,0.500000,0.750000,1.000000,0.000000,1.000000,0.000000,$1*%
%AMFreePoly1*
4,1,6,0.500000,-0.750000,-0.650000,-0.750000,-0.150000,0.000000,-0.650000,0.750000,0.500000,0.750000,0.500000,-0.750000,0.500000,-0.750000,$1*%
G04 Aperture macros list end*
G04 #@! TA.AperFunction,ComponentPad*
%ADD10C,0.700000*%
G04 #@! TD*
G04 #@! TA.AperFunction,ComponentPad*
%ADD11C,4.400000*%
G04 #@! TD*
G04 #@! TA.AperFunction,SMDPad,CuDef*
%ADD12R,0.890000X0.460000*%
G04 #@! TD*
G04 #@! TA.AperFunction,SMDPad,CuDef*
%ADD13R,4.190000X2.665000*%
G04 #@! TD*
G04 #@! TA.AperFunction,ComponentPad*
%ADD14C,0.970000*%
G04 #@! TD*
G04 #@! TA.AperFunction,SMDPad,CuDef*
%ADD15R,1.250000X2.500000*%
G04 #@! TD*
G04 #@! TA.AperFunction,SMDPad,CuDef*
%ADD16RoundRect,0.218750X-0.218750X-0.256250X0.218750X-0.256250X0.218750X0.256250X-0.218750X0.256250X0*%
G04 #@! TD*
G04 #@! TA.AperFunction,SMDPad,CuDef*
%ADD17RoundRect,0.147500X-0.147500X-0.172500X0.147500X-0.172500X0.147500X0.172500X-0.147500X0.172500X0*%
G04 #@! TD*
G04 #@! TA.AperFunction,SMDPad,CuDef*
%ADD18FreePoly0,180.000000*%
G04 #@! TD*
G04 #@! TA.AperFunction,SMDPad,CuDef*
%ADD19FreePoly1,180.000000*%
G04 #@! TD*
G04 #@! TA.AperFunction,SMDPad,CuDef*
%ADD20RoundRect,0.225000X-0.225000X-0.250000X0.225000X-0.250000X0.225000X0.250000X-0.225000X0.250000X0*%
G04 #@! TD*
G04 #@! TA.AperFunction,SMDPad,CuDef*
%ADD21RoundRect,0.250000X0.262500X0.450000X-0.262500X0.450000X-0.262500X-0.450000X0.262500X-0.450000X0*%
G04 #@! TD*
G04 #@! TA.AperFunction,SMDPad,CuDef*
%ADD22RoundRect,0.250000X0.250000X0.475000X-0.250000X0.475000X-0.250000X-0.475000X0.250000X-0.475000X0*%
G04 #@! TD*
G04 #@! TA.AperFunction,SMDPad,CuDef*
%ADD23R,0.500000X2.500000*%
G04 #@! TD*
G04 #@! TA.AperFunction,SMDPad,CuDef*
%ADD24R,2.000000X2.500000*%
G04 #@! TD*
G04 #@! TA.AperFunction,ViaPad*
%ADD25C,0.800000*%
G04 #@! TD*
G04 #@! TA.AperFunction,Conductor*
%ADD26C,0.500000*%
G04 #@! TD*
G04 #@! TA.AperFunction,Conductor*
%ADD27C,0.200000*%
G04 #@! TD*
G04 APERTURE END LIST*
D10*
X187350000Y-108300000D03*
X190166726Y-109466726D03*
X189000000Y-109950000D03*
X190650000Y-108300000D03*
X190166726Y-107133274D03*
X187833274Y-109466726D03*
D11*
X189000000Y-108300000D03*
D10*
X187833274Y-107133274D03*
X189000000Y-106650000D03*
D12*
X150340000Y-114507500D03*
D13*
X147800000Y-114507500D03*
D14*
X150785000Y-114507500D03*
D12*
X150340000Y-121492500D03*
D14*
X150785000Y-121492500D03*
D13*
X147800000Y-121492500D03*
D10*
X149316726Y-132033274D03*
X148150000Y-131550000D03*
X148150000Y-134850000D03*
X149316726Y-134366726D03*
X146500000Y-133200000D03*
X146983274Y-134366726D03*
X146983274Y-132033274D03*
X149800000Y-133200000D03*
D11*
X148200000Y-133200000D03*
D12*
X187660000Y-114507500D03*
D13*
X190200000Y-121492500D03*
X190200000Y-114507500D03*
D14*
X187215000Y-114507500D03*
X187215000Y-121492500D03*
D12*
X187660000Y-121492500D03*
D10*
X149366726Y-109466726D03*
X147033274Y-107133274D03*
X146550000Y-108300000D03*
X147033274Y-109466726D03*
D11*
X148200000Y-108300000D03*
D10*
X149366726Y-107133274D03*
X149850000Y-108300000D03*
X148200000Y-106650000D03*
X148200000Y-109950000D03*
X187833274Y-134366726D03*
X190166726Y-132033274D03*
X190650000Y-133200000D03*
D11*
X189000000Y-133200000D03*
D10*
X189000000Y-134850000D03*
X189000000Y-131550000D03*
X187350000Y-133200000D03*
X190166726Y-134366726D03*
X187833274Y-132033274D03*
D15*
X178850000Y-131350000D03*
X176350000Y-131350000D03*
X173850000Y-131350000D03*
D16*
X176450000Y-126810000D03*
X178025000Y-126810000D03*
D17*
X163665000Y-125450000D03*
X164635000Y-125450000D03*
D18*
X156425000Y-125500000D03*
D19*
X154975000Y-125500000D03*
D20*
X176462500Y-125300000D03*
X178012500Y-125300000D03*
D21*
X178150000Y-128550000D03*
X176325000Y-128550000D03*
D22*
X173800000Y-128550000D03*
X171900000Y-128550000D03*
D23*
X165750000Y-127825000D03*
X164950000Y-127825000D03*
X164150000Y-127825000D03*
X163350000Y-127825000D03*
X162550000Y-127825000D03*
D24*
X168550000Y-127825000D03*
X159750000Y-133325000D03*
X168550000Y-133325000D03*
X159750000Y-127825000D03*
D25*
X180950000Y-119460000D03*
X157050000Y-119460000D03*
X157050000Y-116540000D03*
X180950000Y-116540000D03*
X190200000Y-114500000D03*
X166000000Y-118000000D03*
X184000000Y-127000000D03*
X178000000Y-113000000D03*
X175000000Y-124000000D03*
X188800000Y-114500000D03*
X191000000Y-112000000D03*
X156000000Y-134000000D03*
X156000000Y-113000000D03*
X191600000Y-114500000D03*
X169000000Y-124000000D03*
X188800000Y-121500000D03*
X155000000Y-121000000D03*
X166300000Y-112060000D03*
X180000000Y-115000000D03*
X175000000Y-118000000D03*
X149000000Y-112000000D03*
X189000000Y-112000000D03*
X185000000Y-110000000D03*
X156000000Y-107000000D03*
X146400000Y-114500000D03*
X151000000Y-112000000D03*
X191000000Y-124000000D03*
X163000000Y-124000000D03*
X178000000Y-123000000D03*
X183000000Y-121000000D03*
X152000000Y-130000000D03*
X182000000Y-107000000D03*
X149200000Y-121500000D03*
X188000000Y-127000000D03*
X182000000Y-110000000D03*
X171700000Y-112060000D03*
X169000000Y-112000000D03*
X158000000Y-121000000D03*
X178000000Y-118000000D03*
X169000000Y-118000000D03*
X187000000Y-112000000D03*
X184000000Y-134000000D03*
X183000000Y-115000000D03*
X147000000Y-124000000D03*
X152000000Y-134000000D03*
X153000000Y-113000000D03*
X156000000Y-130000000D03*
X148000000Y-127000000D03*
X185000000Y-115000000D03*
X153500000Y-125500000D03*
X189000000Y-124000000D03*
X180000000Y-121000000D03*
X163000000Y-112000000D03*
X163000000Y-118000000D03*
X147000000Y-112000000D03*
X153000000Y-115000000D03*
X191600000Y-121500000D03*
X153000000Y-123000000D03*
X153000000Y-121000000D03*
X182000000Y-113000000D03*
X155000000Y-115000000D03*
X184000000Y-130000000D03*
X187000000Y-124000000D03*
X166000000Y-124000000D03*
X151000000Y-124000000D03*
X152000000Y-127000000D03*
X185000000Y-123000000D03*
X159950000Y-118000000D03*
X156000000Y-110000000D03*
X172000000Y-118000000D03*
X172000000Y-124000000D03*
X190200000Y-121500000D03*
X175000000Y-112000000D03*
X160000000Y-123000000D03*
X160000000Y-113000000D03*
X146400000Y-121500000D03*
X147800000Y-114500000D03*
X185000000Y-121000000D03*
X149000000Y-124000000D03*
X149200000Y-114500000D03*
X158000000Y-115000000D03*
X185000000Y-113000000D03*
X147800000Y-121500000D03*
D26*
X163175000Y-125450000D02*
X163665000Y-125450000D01*
X162550000Y-127825000D02*
X162550000Y-126075000D01*
D27*
X180950000Y-119460000D02*
X180950000Y-125750000D01*
X157050000Y-119950000D02*
X156425000Y-120575000D01*
D26*
X156425000Y-125500000D02*
X158725000Y-125500000D01*
D27*
X156425000Y-120575000D02*
X156425000Y-125500000D01*
X180950000Y-125750000D02*
X178150000Y-128550000D01*
X157050000Y-119460000D02*
X157050000Y-119950000D01*
D26*
X162550000Y-126075000D02*
X163175000Y-125450000D01*
X165125000Y-125450000D02*
X165750000Y-126075000D01*
D27*
X165750000Y-128250000D02*
X165750000Y-127825000D01*
X168850000Y-131350000D02*
X165750000Y-128250000D01*
D26*
X165750000Y-126075000D02*
X165750000Y-127825000D01*
X173800000Y-128550000D02*
X173800000Y-131450000D01*
X164635000Y-125450000D02*
X165125000Y-125450000D01*
D27*
X173850000Y-131350000D02*
X168850000Y-131350000D01*
X173500000Y-124000000D02*
X177500000Y-120000000D01*
X174800000Y-125300000D02*
X173500000Y-124000000D01*
X180000000Y-119500000D02*
X180000000Y-117000000D01*
X173500000Y-124000000D02*
X172000000Y-122500000D01*
X176462500Y-125300000D02*
X174800000Y-125300000D01*
X158000000Y-117490000D02*
X157050000Y-116540000D01*
X172000000Y-122500000D02*
X161000000Y-122500000D01*
X180000000Y-117000000D02*
X180460000Y-116540000D01*
X179500000Y-120000000D02*
X180000000Y-119500000D01*
X161000000Y-122500000D02*
X158000000Y-119500000D01*
X180460000Y-116540000D02*
X180950000Y-116540000D01*
X177972500Y-126810000D02*
X176462500Y-125300000D01*
X177500000Y-120000000D02*
X179500000Y-120000000D01*
X158000000Y-119500000D02*
X158000000Y-117490000D01*
X178025000Y-126810000D02*
X177972500Y-126810000D01*
X153500000Y-125500000D02*
X154975000Y-125500000D01*
X176325000Y-126935000D02*
X176450000Y-126810000D01*
X176325000Y-128550000D02*
X176325000Y-126935000D01*
X176350000Y-128575000D02*
X176325000Y-128550000D01*
X176350000Y-131350000D02*
X176350000Y-128575000D01*
G04 #@! TA.AperFunction,Conductor*
G36*
X162915130Y-124770002D02*
G01*
X162961623Y-124823658D01*
X162971727Y-124893932D01*
X162955462Y-124940140D01*
X162915166Y-125008276D01*
X162908918Y-125022713D01*
X162866721Y-125167957D01*
X162864771Y-125178635D01*
X162867795Y-125193031D01*
X162879258Y-125196000D01*
X163793000Y-125196000D01*
X163861121Y-125216002D01*
X163907614Y-125269658D01*
X163919000Y-125322000D01*
X163919000Y-125578000D01*
X163898998Y-125646121D01*
X163845342Y-125692614D01*
X163793000Y-125704000D01*
X162881319Y-125704000D01*
X162866524Y-125708344D01*
X162864492Y-125719840D01*
X162866721Y-125732043D01*
X162908918Y-125877287D01*
X162914925Y-125891168D01*
X162923622Y-125961630D01*
X162892844Y-126025609D01*
X162834786Y-126062105D01*
X162802876Y-126071475D01*
X162801671Y-126072865D01*
X162800000Y-126080548D01*
X162800000Y-129564884D01*
X162804475Y-129580123D01*
X162805865Y-129581328D01*
X162813548Y-129582999D01*
X162844669Y-129582999D01*
X162851490Y-129582629D01*
X162902352Y-129577105D01*
X162917604Y-129573479D01*
X163038054Y-129528324D01*
X163053649Y-129519786D01*
X163155724Y-129443285D01*
X163168285Y-129430724D01*
X163246820Y-129325935D01*
X163303679Y-129283420D01*
X163347646Y-129275500D01*
X163619748Y-129275500D01*
X163625816Y-129274293D01*
X163666061Y-129266288D01*
X163666062Y-129266288D01*
X163678231Y-129263867D01*
X163688547Y-129256974D01*
X163700017Y-129252223D01*
X163701555Y-129255937D01*
X163747751Y-129241472D01*
X163798289Y-129256312D01*
X163799983Y-129252223D01*
X163811453Y-129256974D01*
X163821769Y-129263867D01*
X163833938Y-129266288D01*
X163833939Y-129266288D01*
X163874184Y-129274293D01*
X163880252Y-129275500D01*
X164419748Y-129275500D01*
X164425816Y-129274293D01*
X164466061Y-129266288D01*
X164466062Y-129266288D01*
X164478231Y-129263867D01*
X164488547Y-129256974D01*
X164500017Y-129252223D01*
X164501555Y-129255937D01*
X164547751Y-129241472D01*
X164598289Y-129256312D01*
X164599983Y-129252223D01*
X164611453Y-129256974D01*
X164621769Y-129263867D01*
X164633938Y-129266288D01*
X164633939Y-129266288D01*
X164674184Y-129274293D01*
X164680252Y-129275500D01*
X165219748Y-129275500D01*
X165225816Y-129274293D01*
X165266061Y-129266288D01*
X165266062Y-129266288D01*
X165278231Y-129263867D01*
X165288547Y-129256974D01*
X165300017Y-129252223D01*
X165301555Y-129255937D01*
X165347751Y-129241472D01*
X165398289Y-129256312D01*
X165399983Y-129252223D01*
X165411453Y-129256974D01*
X165421769Y-129263867D01*
X165433938Y-129266288D01*
X165433939Y-129266288D01*
X165474184Y-129274293D01*
X165480252Y-129275500D01*
X166019748Y-129275500D01*
X166025816Y-129274293D01*
X166066061Y-129266288D01*
X166066062Y-129266288D01*
X166078231Y-129263867D01*
X166144552Y-129219552D01*
X166146385Y-129222295D01*
X166191091Y-129197892D01*
X166261906Y-129202968D01*
X166306951Y-129231922D01*
X166598216Y-129523187D01*
X166632242Y-129585499D01*
X166627177Y-129656314D01*
X166584630Y-129713150D01*
X166518110Y-129737961D01*
X166492675Y-129737204D01*
X166400262Y-129725038D01*
X166400259Y-129725038D01*
X166396174Y-129724500D01*
X166307484Y-129724500D01*
X166181680Y-129739724D01*
X166023077Y-129799655D01*
X166016819Y-129803956D01*
X165932444Y-129861946D01*
X165883349Y-129895688D01*
X165878297Y-129901358D01*
X165878296Y-129901359D01*
X165775612Y-130016608D01*
X165775610Y-130016612D01*
X165770560Y-130022279D01*
X165767008Y-130028988D01*
X165767007Y-130028989D01*
X165756671Y-130048510D01*
X165691224Y-130172119D01*
X165649919Y-130336559D01*
X165649031Y-130506105D01*
X165688612Y-130670968D01*
X165766375Y-130821631D01*
X165771367Y-130827353D01*
X165771368Y-130827355D01*
X165833808Y-130898931D01*
X165877831Y-130949396D01*
X165884045Y-130953763D01*
X166010330Y-131042518D01*
X166010332Y-131042519D01*
X166016547Y-131046887D01*
X166174513Y-131108476D01*
X166182046Y-131109468D01*
X166182047Y-131109468D01*
X166299739Y-131124962D01*
X166303826Y-131125500D01*
X166392516Y-131125500D01*
X166518320Y-131110276D01*
X166676923Y-131050345D01*
X166731849Y-131012595D01*
X166810392Y-130958614D01*
X166810393Y-130958613D01*
X166816651Y-130954312D01*
X166844104Y-130923500D01*
X166924388Y-130833392D01*
X166924390Y-130833388D01*
X166929440Y-130827721D01*
X166936238Y-130814883D01*
X167005224Y-130684589D01*
X167008776Y-130677881D01*
X167050081Y-130513441D01*
X167050969Y-130343895D01*
X167039016Y-130294109D01*
X167042563Y-130223202D01*
X167083883Y-130165468D01*
X167149857Y-130139238D01*
X167219538Y-130152841D01*
X167250630Y-130175601D01*
X168426934Y-131351905D01*
X168460960Y-131414217D01*
X168455895Y-131485032D01*
X168413348Y-131541868D01*
X168346828Y-131566679D01*
X168337839Y-131567000D01*
X167505331Y-131567001D01*
X167498510Y-131567371D01*
X167447648Y-131572895D01*
X167432396Y-131576521D01*
X167311946Y-131621676D01*
X167296351Y-131630214D01*
X167194276Y-131706715D01*
X167181715Y-131719276D01*
X167105214Y-131821351D01*
X167096676Y-131836946D01*
X167051522Y-131957394D01*
X167047895Y-131972649D01*
X167042369Y-132023514D01*
X167042000Y-132030328D01*
X167042000Y-133052885D01*
X167046475Y-133068124D01*
X167047865Y-133069329D01*
X167055548Y-133071000D01*
X170039884Y-133071000D01*
X170055123Y-133066525D01*
X170056328Y-133065135D01*
X170057999Y-133057452D01*
X170057999Y-132030331D01*
X170057629Y-132023510D01*
X170052105Y-131972648D01*
X170048479Y-131957396D01*
X170000172Y-131828538D01*
X170001406Y-131828076D01*
X169988190Y-131767654D01*
X170012925Y-131701106D01*
X170069713Y-131658494D01*
X170113879Y-131650500D01*
X172898500Y-131650500D01*
X172966621Y-131670502D01*
X173013114Y-131724158D01*
X173024500Y-131776500D01*
X173024500Y-132619748D01*
X173036133Y-132678231D01*
X173080448Y-132744552D01*
X173146769Y-132788867D01*
X173158938Y-132791288D01*
X173158939Y-132791288D01*
X173199184Y-132799293D01*
X173205252Y-132800500D01*
X174494748Y-132800500D01*
X174500816Y-132799293D01*
X174541061Y-132791288D01*
X174541062Y-132791288D01*
X174553231Y-132788867D01*
X174619552Y-132744552D01*
X174663867Y-132678231D01*
X174675500Y-132619748D01*
X174675500Y-130080252D01*
X174663867Y-130021769D01*
X174619552Y-129955448D01*
X174553231Y-129911133D01*
X174541062Y-129908712D01*
X174541061Y-129908712D01*
X174500816Y-129900707D01*
X174494748Y-129899500D01*
X174376500Y-129899500D01*
X174308379Y-129879498D01*
X174261886Y-129825842D01*
X174250500Y-129773500D01*
X174250500Y-129500581D01*
X174270502Y-129432460D01*
X174301640Y-129399230D01*
X174364579Y-129352742D01*
X174372150Y-129347150D01*
X174395471Y-129315576D01*
X174447041Y-129245757D01*
X174447042Y-129245754D01*
X174452634Y-129238184D01*
X174497519Y-129110369D01*
X174500500Y-129078834D01*
X174500500Y-128021166D01*
X174497519Y-127989631D01*
X174452634Y-127861816D01*
X174447042Y-127854246D01*
X174447041Y-127854243D01*
X174377742Y-127760421D01*
X174372150Y-127752850D01*
X174355206Y-127740335D01*
X174270757Y-127677959D01*
X174270754Y-127677958D01*
X174263184Y-127672366D01*
X174135369Y-127627481D01*
X174127723Y-127626758D01*
X174127722Y-127626758D01*
X174121752Y-127626194D01*
X174103834Y-127624500D01*
X173496166Y-127624500D01*
X173478248Y-127626194D01*
X173472278Y-127626758D01*
X173472277Y-127626758D01*
X173464631Y-127627481D01*
X173336816Y-127672366D01*
X173329246Y-127677958D01*
X173329243Y-127677959D01*
X173244794Y-127740335D01*
X173227850Y-127752850D01*
X173222258Y-127760421D01*
X173152959Y-127854243D01*
X173152958Y-127854246D01*
X173147366Y-127861816D01*
X173135467Y-127895699D01*
X173131157Y-127907973D01*
X173089714Y-127965619D01*
X173023684Y-127991707D01*
X172954032Y-127977956D01*
X172902871Y-127928731D01*
X172892750Y-127906101D01*
X172843412Y-127758216D01*
X172837239Y-127745038D01*
X172751937Y-127607193D01*
X172742901Y-127595792D01*
X172628171Y-127481261D01*
X172616760Y-127472249D01*
X172478757Y-127387184D01*
X172465576Y-127381037D01*
X172311290Y-127329862D01*
X172297914Y-127326995D01*
X172203562Y-127317328D01*
X172197145Y-127317000D01*
X172172115Y-127317000D01*
X172156876Y-127321475D01*
X172155671Y-127322865D01*
X172154000Y-127330548D01*
X172154000Y-129764884D01*
X172158475Y-129780123D01*
X172159865Y-129781328D01*
X172167548Y-129782999D01*
X172197095Y-129782999D01*
X172203614Y-129782662D01*
X172299206Y-129772743D01*
X172312600Y-129769851D01*
X172466784Y-129718412D01*
X172479962Y-129712239D01*
X172617807Y-129626937D01*
X172629208Y-129617901D01*
X172743739Y-129503171D01*
X172752751Y-129491760D01*
X172837816Y-129353757D01*
X172843963Y-129340576D01*
X172892611Y-129193908D01*
X172933042Y-129135549D01*
X172998606Y-129108312D01*
X173068488Y-129120846D01*
X173120500Y-129169170D01*
X173131087Y-129191828D01*
X173133217Y-129197892D01*
X173147366Y-129238184D01*
X173152958Y-129245754D01*
X173152959Y-129245757D01*
X173204529Y-129315576D01*
X173227850Y-129347150D01*
X173235421Y-129352742D01*
X173298360Y-129399230D01*
X173341270Y-129455791D01*
X173349500Y-129500581D01*
X173349500Y-129773500D01*
X173329498Y-129841621D01*
X173275842Y-129888114D01*
X173223500Y-129899500D01*
X173205252Y-129899500D01*
X173199184Y-129900707D01*
X173158939Y-129908712D01*
X173158938Y-129908712D01*
X173146769Y-129911133D01*
X173080448Y-129955448D01*
X173036133Y-130021769D01*
X173024500Y-130080252D01*
X173024500Y-130923500D01*
X173004498Y-130991621D01*
X172950842Y-131038114D01*
X172898500Y-131049500D01*
X169026661Y-131049500D01*
X168958540Y-131029498D01*
X168937566Y-131012595D01*
X167723066Y-129798095D01*
X167689040Y-129735783D01*
X167694105Y-129664968D01*
X167736652Y-129608132D01*
X167803172Y-129583321D01*
X167812161Y-129583000D01*
X168277885Y-129583000D01*
X168293124Y-129578525D01*
X168294329Y-129577135D01*
X168296000Y-129569452D01*
X168296000Y-129564884D01*
X168804000Y-129564884D01*
X168808475Y-129580123D01*
X168809865Y-129581328D01*
X168817548Y-129582999D01*
X169594669Y-129582999D01*
X169601490Y-129582629D01*
X169652352Y-129577105D01*
X169667604Y-129573479D01*
X169788054Y-129528324D01*
X169803649Y-129519786D01*
X169905724Y-129443285D01*
X169918285Y-129430724D01*
X169994786Y-129328649D01*
X170003324Y-129313054D01*
X170048478Y-129192606D01*
X170052105Y-129177351D01*
X170057631Y-129126486D01*
X170058000Y-129119672D01*
X170058000Y-129072095D01*
X170892001Y-129072095D01*
X170892338Y-129078614D01*
X170902257Y-129174206D01*
X170905149Y-129187600D01*
X170956588Y-129341784D01*
X170962761Y-129354962D01*
X171048063Y-129492807D01*
X171057099Y-129504208D01*
X171171829Y-129618739D01*
X171183240Y-129627751D01*
X171321243Y-129712816D01*
X171334424Y-129718963D01*
X171488710Y-129770138D01*
X171502086Y-129773005D01*
X171596438Y-129782672D01*
X171602854Y-129783000D01*
X171627885Y-129783000D01*
X171643124Y-129778525D01*
X171644329Y-129777135D01*
X171646000Y-129769452D01*
X171646000Y-128822115D01*
X171641525Y-128806876D01*
X171640135Y-128805671D01*
X171632452Y-128804000D01*
X170910116Y-128804000D01*
X170894877Y-128808475D01*
X170893672Y-128809865D01*
X170892001Y-128817548D01*
X170892001Y-129072095D01*
X170058000Y-129072095D01*
X170058000Y-128277885D01*
X170892000Y-128277885D01*
X170896475Y-128293124D01*
X170897865Y-128294329D01*
X170905548Y-128296000D01*
X171627885Y-128296000D01*
X171643124Y-128291525D01*
X171644329Y-128290135D01*
X171646000Y-128282452D01*
X171646000Y-127335116D01*
X171641525Y-127319877D01*
X171640135Y-127318672D01*
X171632452Y-127317001D01*
X171602905Y-127317001D01*
X171596386Y-127317338D01*
X171500794Y-127327257D01*
X171487400Y-127330149D01*
X171333216Y-127381588D01*
X171320038Y-127387761D01*
X171182193Y-127473063D01*
X171170792Y-127482099D01*
X171056261Y-127596829D01*
X171047249Y-127608240D01*
X170962184Y-127746243D01*
X170956037Y-127759424D01*
X170904862Y-127913710D01*
X170901995Y-127927086D01*
X170892328Y-128021438D01*
X170892000Y-128027855D01*
X170892000Y-128277885D01*
X170058000Y-128277885D01*
X170058000Y-128097115D01*
X170053525Y-128081876D01*
X170052135Y-128080671D01*
X170044452Y-128079000D01*
X168822115Y-128079000D01*
X168806876Y-128083475D01*
X168805671Y-128084865D01*
X168804000Y-128092548D01*
X168804000Y-129564884D01*
X168296000Y-129564884D01*
X168296000Y-128097115D01*
X168291525Y-128081876D01*
X168290135Y-128080671D01*
X168282452Y-128079000D01*
X167060116Y-128079000D01*
X167044877Y-128083475D01*
X167043672Y-128084865D01*
X167042001Y-128092548D01*
X167042001Y-128812840D01*
X167021999Y-128880961D01*
X166968343Y-128927454D01*
X166898069Y-128937558D01*
X166833489Y-128908064D01*
X166826906Y-128901935D01*
X166237405Y-128312434D01*
X166203379Y-128250122D01*
X166200500Y-128223339D01*
X166200500Y-127552885D01*
X167042000Y-127552885D01*
X167046475Y-127568124D01*
X167047865Y-127569329D01*
X167055548Y-127571000D01*
X168277885Y-127571000D01*
X168293124Y-127566525D01*
X168294329Y-127565135D01*
X168296000Y-127557452D01*
X168296000Y-127552885D01*
X168804000Y-127552885D01*
X168808475Y-127568124D01*
X168809865Y-127569329D01*
X168817548Y-127571000D01*
X170039884Y-127571000D01*
X170055123Y-127566525D01*
X170056328Y-127565135D01*
X170057999Y-127557452D01*
X170057999Y-126530331D01*
X170057629Y-126523510D01*
X170052105Y-126472648D01*
X170048479Y-126457396D01*
X170003324Y-126336946D01*
X169994786Y-126321351D01*
X169918285Y-126219276D01*
X169905724Y-126206715D01*
X169803649Y-126130214D01*
X169788054Y-126121676D01*
X169667606Y-126076522D01*
X169652351Y-126072895D01*
X169601486Y-126067369D01*
X169594672Y-126067000D01*
X168822115Y-126067000D01*
X168806876Y-126071475D01*
X168805671Y-126072865D01*
X168804000Y-126080548D01*
X168804000Y-127552885D01*
X168296000Y-127552885D01*
X168296000Y-126085116D01*
X168291525Y-126069877D01*
X168290135Y-126068672D01*
X168282452Y-126067001D01*
X167505331Y-126067001D01*
X167498510Y-126067371D01*
X167447648Y-126072895D01*
X167432396Y-126076521D01*
X167311946Y-126121676D01*
X167296351Y-126130214D01*
X167194276Y-126206715D01*
X167181715Y-126219276D01*
X167105214Y-126321351D01*
X167096676Y-126336946D01*
X167051522Y-126457394D01*
X167047895Y-126472649D01*
X167042369Y-126523514D01*
X167042000Y-126530328D01*
X167042000Y-127552885D01*
X166200500Y-127552885D01*
X166200500Y-126109219D01*
X166201373Y-126094410D01*
X166204257Y-126070042D01*
X166205364Y-126060689D01*
X166203672Y-126051423D01*
X166194826Y-126002988D01*
X166194176Y-125999084D01*
X166186849Y-125950348D01*
X166186848Y-125950346D01*
X166185449Y-125941038D01*
X166182322Y-125934525D01*
X166181025Y-125927426D01*
X166171833Y-125909730D01*
X166153982Y-125875363D01*
X166152214Y-125871825D01*
X166130887Y-125827413D01*
X166130887Y-125827412D01*
X166126809Y-125818921D01*
X166121924Y-125813636D01*
X166121892Y-125813589D01*
X166118579Y-125807211D01*
X166114275Y-125802172D01*
X166077048Y-125764945D01*
X166073618Y-125761379D01*
X166041246Y-125726359D01*
X166034854Y-125719444D01*
X166028495Y-125715751D01*
X166022337Y-125710234D01*
X165467753Y-125155650D01*
X165457899Y-125144561D01*
X165442707Y-125125291D01*
X165442705Y-125125289D01*
X165436872Y-125117890D01*
X165429125Y-125112535D01*
X165429123Y-125112534D01*
X165388625Y-125084545D01*
X165385403Y-125082243D01*
X165345758Y-125052960D01*
X165345757Y-125052959D01*
X165338184Y-125047366D01*
X165331368Y-125044973D01*
X165325431Y-125040869D01*
X165316451Y-125038029D01*
X165316449Y-125038028D01*
X165296283Y-125031650D01*
X165269481Y-125023174D01*
X165265750Y-125021929D01*
X165219263Y-125005604D01*
X165219261Y-125005604D01*
X165210369Y-125002481D01*
X165203181Y-125002199D01*
X165203122Y-125002188D01*
X165196270Y-125000020D01*
X165189926Y-124999521D01*
X165127184Y-124967009D01*
X165091814Y-124905450D01*
X165095340Y-124834541D01*
X165136643Y-124776795D01*
X165202608Y-124750546D01*
X165214324Y-124750000D01*
X173772839Y-124750000D01*
X173840960Y-124770002D01*
X173861934Y-124786905D01*
X174550481Y-125475452D01*
X174552237Y-125477486D01*
X174554575Y-125482269D01*
X174563104Y-125490181D01*
X174563105Y-125490182D01*
X174590477Y-125515573D01*
X174593882Y-125518853D01*
X174607277Y-125532248D01*
X174611247Y-125534972D01*
X174613895Y-125537297D01*
X174636646Y-125558401D01*
X174647453Y-125562713D01*
X174651438Y-125565232D01*
X174662247Y-125571004D01*
X174666552Y-125572911D01*
X174676146Y-125579493D01*
X174700099Y-125585177D01*
X174700136Y-125585186D01*
X174717732Y-125590751D01*
X174740622Y-125599883D01*
X174746915Y-125600500D01*
X174749997Y-125600500D01*
X174753067Y-125600650D01*
X174753056Y-125600866D01*
X174764431Y-125602198D01*
X174773745Y-125602653D01*
X174785066Y-125605340D01*
X174796595Y-125603771D01*
X174796596Y-125603771D01*
X174812173Y-125601651D01*
X174829164Y-125600500D01*
X175711021Y-125600500D01*
X175779142Y-125620502D01*
X175825635Y-125674158D01*
X175826858Y-125677300D01*
X175827781Y-125683126D01*
X175888972Y-125803220D01*
X175984280Y-125898528D01*
X176068664Y-125941524D01*
X176120278Y-125990271D01*
X176137344Y-126059186D01*
X176114443Y-126126388D01*
X176068663Y-126166057D01*
X175981749Y-126210342D01*
X175887842Y-126304249D01*
X175827549Y-126422580D01*
X175812000Y-126520754D01*
X175812000Y-127099246D01*
X175827549Y-127197420D01*
X175887842Y-127315751D01*
X175981749Y-127409658D01*
X175980304Y-127411103D01*
X176015918Y-127457296D01*
X176024500Y-127503001D01*
X176024500Y-127546550D01*
X176004498Y-127614671D01*
X175950842Y-127661164D01*
X175940251Y-127665432D01*
X175849316Y-127697366D01*
X175841746Y-127702958D01*
X175841743Y-127702959D01*
X175783142Y-127746243D01*
X175740350Y-127777850D01*
X175734758Y-127785421D01*
X175665459Y-127879243D01*
X175665458Y-127879246D01*
X175659866Y-127886816D01*
X175614981Y-128014631D01*
X175612000Y-128046166D01*
X175612000Y-129053834D01*
X175614981Y-129085369D01*
X175659866Y-129213184D01*
X175665458Y-129220754D01*
X175665459Y-129220757D01*
X175711743Y-129283420D01*
X175740350Y-129322150D01*
X175747921Y-129327742D01*
X175841743Y-129397041D01*
X175841746Y-129397042D01*
X175849316Y-129402634D01*
X175933190Y-129432088D01*
X175965248Y-129443346D01*
X176022894Y-129484789D01*
X176048982Y-129550819D01*
X176049500Y-129562229D01*
X176049500Y-129773500D01*
X176029498Y-129841621D01*
X175975842Y-129888114D01*
X175923500Y-129899500D01*
X175705252Y-129899500D01*
X175699184Y-129900707D01*
X175658939Y-129908712D01*
X175658938Y-129908712D01*
X175646769Y-129911133D01*
X175580448Y-129955448D01*
X175536133Y-130021769D01*
X175524500Y-130080252D01*
X175524500Y-132619748D01*
X175536133Y-132678231D01*
X175580448Y-132744552D01*
X175646769Y-132788867D01*
X175658938Y-132791288D01*
X175658939Y-132791288D01*
X175699184Y-132799293D01*
X175705252Y-132800500D01*
X176994748Y-132800500D01*
X177000816Y-132799293D01*
X177041061Y-132791288D01*
X177041062Y-132791288D01*
X177053231Y-132788867D01*
X177119552Y-132744552D01*
X177163867Y-132678231D01*
X177170543Y-132644669D01*
X177717001Y-132644669D01*
X177717371Y-132651490D01*
X177722895Y-132702352D01*
X177726521Y-132717604D01*
X177771676Y-132838054D01*
X177780214Y-132853649D01*
X177856715Y-132955724D01*
X177869276Y-132968285D01*
X177971351Y-133044786D01*
X177986946Y-133053324D01*
X178107394Y-133098478D01*
X178122649Y-133102105D01*
X178173514Y-133107631D01*
X178180328Y-133108000D01*
X178577885Y-133108000D01*
X178593124Y-133103525D01*
X178594329Y-133102135D01*
X178596000Y-133094452D01*
X178596000Y-133089884D01*
X179104000Y-133089884D01*
X179108475Y-133105123D01*
X179109865Y-133106328D01*
X179117548Y-133107999D01*
X179519669Y-133107999D01*
X179526490Y-133107629D01*
X179577352Y-133102105D01*
X179592604Y-133098479D01*
X179713054Y-133053324D01*
X179728649Y-133044786D01*
X179830724Y-132968285D01*
X179843285Y-132955724D01*
X179919786Y-132853649D01*
X179928324Y-132838054D01*
X179973478Y-132717606D01*
X179977105Y-132702351D01*
X179982631Y-132651486D01*
X179983000Y-132644672D01*
X179983000Y-131622115D01*
X179978525Y-131606876D01*
X179977135Y-131605671D01*
X179969452Y-131604000D01*
X179122115Y-131604000D01*
X179106876Y-131608475D01*
X179105671Y-131609865D01*
X179104000Y-131617548D01*
X179104000Y-133089884D01*
X178596000Y-133089884D01*
X178596000Y-131622115D01*
X178591525Y-131606876D01*
X178590135Y-131605671D01*
X178582452Y-131604000D01*
X177735116Y-131604000D01*
X177719877Y-131608475D01*
X177718672Y-131609865D01*
X177717001Y-131617548D01*
X177717001Y-132644669D01*
X177170543Y-132644669D01*
X177175500Y-132619748D01*
X177175500Y-130080252D01*
X177163867Y-130021769D01*
X177119552Y-129955448D01*
X177053231Y-129911133D01*
X177041062Y-129908712D01*
X177041061Y-129908712D01*
X177000816Y-129900707D01*
X176994748Y-129899500D01*
X176776500Y-129899500D01*
X176708379Y-129879498D01*
X176661886Y-129825842D01*
X176650500Y-129773500D01*
X176650500Y-129544670D01*
X176670502Y-129476549D01*
X176724158Y-129430056D01*
X176734753Y-129425787D01*
X176791800Y-129405754D01*
X176791801Y-129405753D01*
X176800684Y-129402634D01*
X176808254Y-129397042D01*
X176808257Y-129397041D01*
X176902079Y-129327742D01*
X176909650Y-129322150D01*
X176938257Y-129283420D01*
X176962709Y-129250315D01*
X177019271Y-129207404D01*
X177090052Y-129201885D01*
X177152582Y-129235510D01*
X177183584Y-129285300D01*
X177194087Y-129316782D01*
X177200261Y-129329962D01*
X177285563Y-129467807D01*
X177294599Y-129479208D01*
X177409329Y-129593739D01*
X177420740Y-129602751D01*
X177558743Y-129687816D01*
X177571924Y-129693963D01*
X177681319Y-129730248D01*
X177739678Y-129770679D01*
X177766915Y-129836243D01*
X177759633Y-129894071D01*
X177726522Y-129982394D01*
X177722895Y-129997649D01*
X177717369Y-130048514D01*
X177717000Y-130055328D01*
X177717000Y-131077885D01*
X177721475Y-131093124D01*
X177722865Y-131094329D01*
X177730548Y-131096000D01*
X179964884Y-131096000D01*
X179980123Y-131091525D01*
X179981328Y-131090135D01*
X179982999Y-131082452D01*
X179982999Y-130055331D01*
X179982629Y-130048510D01*
X179977105Y-129997648D01*
X179973479Y-129982396D01*
X179928324Y-129861946D01*
X179919786Y-129846351D01*
X179843285Y-129744276D01*
X179830724Y-129731715D01*
X179728649Y-129655214D01*
X179713054Y-129646676D01*
X179592606Y-129601522D01*
X179577351Y-129597895D01*
X179526486Y-129592369D01*
X179519672Y-129592000D01*
X179163734Y-129592000D01*
X179095613Y-129571998D01*
X179049120Y-129518342D01*
X179039016Y-129448068D01*
X179056474Y-129399885D01*
X179100314Y-129328762D01*
X179106463Y-129315576D01*
X179157638Y-129161290D01*
X179160505Y-129147914D01*
X179170172Y-129053562D01*
X179170500Y-129047146D01*
X179170500Y-128822115D01*
X179166025Y-128806876D01*
X179164635Y-128805671D01*
X179156952Y-128804000D01*
X178022000Y-128804000D01*
X177953879Y-128783998D01*
X177907386Y-128730342D01*
X177896000Y-128678000D01*
X177896000Y-128422000D01*
X177916002Y-128353879D01*
X177969658Y-128307386D01*
X178022000Y-128296000D01*
X179152384Y-128296000D01*
X179167623Y-128291525D01*
X179168828Y-128290135D01*
X179170499Y-128282452D01*
X179170499Y-128052905D01*
X179170161Y-128046377D01*
X179160243Y-127950794D01*
X179157351Y-127937400D01*
X179105912Y-127783216D01*
X179099739Y-127770038D01*
X179014437Y-127632193D01*
X179005401Y-127620792D01*
X178890671Y-127506261D01*
X178879260Y-127497249D01*
X178741257Y-127412184D01*
X178728073Y-127406036D01*
X178707339Y-127399158D01*
X178648980Y-127358726D01*
X178621745Y-127293162D01*
X178634742Y-127222364D01*
X178642949Y-127206257D01*
X178642950Y-127206253D01*
X178647451Y-127197420D01*
X178663000Y-127099246D01*
X178663000Y-126520754D01*
X178647451Y-126422580D01*
X178597735Y-126325007D01*
X178584631Y-126255232D01*
X178611331Y-126189447D01*
X178643700Y-126160660D01*
X178689676Y-126132210D01*
X178701074Y-126123176D01*
X178811486Y-126012571D01*
X178820498Y-126001160D01*
X178902504Y-125868120D01*
X178908651Y-125854939D01*
X178957991Y-125706186D01*
X178960858Y-125692810D01*
X178970172Y-125601903D01*
X178970500Y-125595487D01*
X178970500Y-125572115D01*
X178966025Y-125556876D01*
X178964635Y-125555671D01*
X178956952Y-125554000D01*
X177884500Y-125554000D01*
X177816379Y-125533998D01*
X177769886Y-125480342D01*
X177758500Y-125428000D01*
X177758500Y-125172000D01*
X177778502Y-125103879D01*
X177832158Y-125057386D01*
X177884500Y-125046000D01*
X178952385Y-125046000D01*
X178967624Y-125041525D01*
X178968829Y-125040135D01*
X178970500Y-125032452D01*
X178970500Y-125004562D01*
X178970163Y-124998047D01*
X178960606Y-124905944D01*
X178959884Y-124902602D01*
X178960039Y-124900480D01*
X178959894Y-124899084D01*
X178960143Y-124899058D01*
X178965053Y-124831794D01*
X179007684Y-124775021D01*
X179074240Y-124750308D01*
X179083044Y-124750000D01*
X181524000Y-124750000D01*
X181592121Y-124770002D01*
X181638614Y-124823658D01*
X181650000Y-124876000D01*
X181650000Y-136373000D01*
X181629998Y-136441121D01*
X181576342Y-136487614D01*
X181524000Y-136499000D01*
X158376000Y-136499000D01*
X158307879Y-136478998D01*
X158261386Y-136425342D01*
X158250000Y-136373000D01*
X158250000Y-135087047D01*
X158270002Y-135018926D01*
X158323658Y-134972433D01*
X158393932Y-134962329D01*
X158451564Y-134986220D01*
X158496352Y-135019787D01*
X158511946Y-135028324D01*
X158632394Y-135073478D01*
X158647649Y-135077105D01*
X158698514Y-135082631D01*
X158705328Y-135083000D01*
X159477885Y-135083000D01*
X159493124Y-135078525D01*
X159494329Y-135077135D01*
X159496000Y-135069452D01*
X159496000Y-135064884D01*
X160004000Y-135064884D01*
X160008475Y-135080123D01*
X160009865Y-135081328D01*
X160017548Y-135082999D01*
X160794669Y-135082999D01*
X160801490Y-135082629D01*
X160852352Y-135077105D01*
X160867604Y-135073479D01*
X160988054Y-135028324D01*
X161003649Y-135019786D01*
X161105724Y-134943285D01*
X161118285Y-134930724D01*
X161194786Y-134828649D01*
X161203324Y-134813054D01*
X161248478Y-134692606D01*
X161252105Y-134677351D01*
X161257631Y-134626486D01*
X161258000Y-134619672D01*
X161258000Y-134619669D01*
X167042001Y-134619669D01*
X167042371Y-134626490D01*
X167047895Y-134677352D01*
X167051521Y-134692604D01*
X167096676Y-134813054D01*
X167105214Y-134828649D01*
X167181715Y-134930724D01*
X167194276Y-134943285D01*
X167296351Y-135019786D01*
X167311946Y-135028324D01*
X167432394Y-135073478D01*
X167447649Y-135077105D01*
X167498514Y-135082631D01*
X167505328Y-135083000D01*
X168277885Y-135083000D01*
X168293124Y-135078525D01*
X168294329Y-135077135D01*
X168296000Y-135069452D01*
X168296000Y-135064884D01*
X168804000Y-135064884D01*
X168808475Y-135080123D01*
X168809865Y-135081328D01*
X168817548Y-135082999D01*
X169594669Y-135082999D01*
X169601490Y-135082629D01*
X169652352Y-135077105D01*
X169667604Y-135073479D01*
X169788054Y-135028324D01*
X169803649Y-135019786D01*
X169905724Y-134943285D01*
X169918285Y-134930724D01*
X169994786Y-134828649D01*
X170003324Y-134813054D01*
X170048478Y-134692606D01*
X170052105Y-134677351D01*
X170057631Y-134626486D01*
X170058000Y-134619672D01*
X170058000Y-134181105D01*
X172249031Y-134181105D01*
X172288612Y-134345968D01*
X172366375Y-134496631D01*
X172371367Y-134502353D01*
X172371368Y-134502355D01*
X172433808Y-134573931D01*
X172477831Y-134624396D01*
X172484045Y-134628763D01*
X172610330Y-134717518D01*
X172610332Y-134717519D01*
X172616547Y-134721887D01*
X172774513Y-134783476D01*
X172782046Y-134784468D01*
X172782047Y-134784468D01*
X172899739Y-134799962D01*
X172903826Y-134800500D01*
X172992516Y-134800500D01*
X173118320Y-134785276D01*
X173276923Y-134725345D01*
X173416651Y-134629312D01*
X173426132Y-134618671D01*
X173524388Y-134508392D01*
X173524390Y-134508388D01*
X173529440Y-134502721D01*
X173536238Y-134489883D01*
X173605224Y-134359589D01*
X173608776Y-134352881D01*
X173650081Y-134188441D01*
X173650119Y-134181105D01*
X179049031Y-134181105D01*
X179088612Y-134345968D01*
X179166375Y-134496631D01*
X179171367Y-134502353D01*
X179171368Y-134502355D01*
X179233808Y-134573931D01*
X179277831Y-134624396D01*
X179284045Y-134628763D01*
X179410330Y-134717518D01*
X179410332Y-134717519D01*
X179416547Y-134721887D01*
X179574513Y-134783476D01*
X179582046Y-134784468D01*
X179582047Y-134784468D01*
X179699739Y-134799962D01*
X179703826Y-134800500D01*
X179792516Y-134800500D01*
X179918320Y-134785276D01*
X180076923Y-134725345D01*
X180216651Y-134629312D01*
X180226132Y-134618671D01*
X180324388Y-134508392D01*
X180324390Y-134508388D01*
X180329440Y-134502721D01*
X180336238Y-134489883D01*
X180405224Y-134359589D01*
X180408776Y-134352881D01*
X180450081Y-134188441D01*
X180450969Y-134018895D01*
X180411388Y-133854032D01*
X180333625Y-133703369D01*
X180328313Y-133697279D01*
X180227163Y-133581329D01*
X180222169Y-133575604D01*
X180163649Y-133534475D01*
X180089670Y-133482482D01*
X180089668Y-133482481D01*
X180083453Y-133478113D01*
X179925487Y-133416524D01*
X179917954Y-133415532D01*
X179917953Y-133415532D01*
X179800261Y-133400038D01*
X179800260Y-133400038D01*
X179796174Y-133399500D01*
X179707484Y-133399500D01*
X179581680Y-133414724D01*
X179423077Y-133474655D01*
X179283349Y-133570688D01*
X179278297Y-133576358D01*
X179278296Y-133576359D01*
X179175612Y-133691608D01*
X179175610Y-133691612D01*
X179170560Y-133697279D01*
X179167008Y-133703988D01*
X179167007Y-133703989D01*
X179134746Y-133764920D01*
X179091224Y-133847119D01*
X179049919Y-134011559D01*
X179049031Y-134181105D01*
X173650119Y-134181105D01*
X173650969Y-134018895D01*
X173611388Y-133854032D01*
X173533625Y-133703369D01*
X173528313Y-133697279D01*
X173427163Y-133581329D01*
X173422169Y-133575604D01*
X173363649Y-133534475D01*
X173289670Y-133482482D01*
X173289668Y-133482481D01*
X173283453Y-133478113D01*
X173125487Y-133416524D01*
X173117954Y-133415532D01*
X173117953Y-133415532D01*
X173000261Y-133400038D01*
X173000260Y-133400038D01*
X172996174Y-133399500D01*
X172907484Y-133399500D01*
X172781680Y-133414724D01*
X172623077Y-133474655D01*
X172483349Y-133570688D01*
X172478297Y-133576358D01*
X172478296Y-133576359D01*
X172375612Y-133691608D01*
X172375610Y-133691612D01*
X172370560Y-133697279D01*
X172367008Y-133703988D01*
X172367007Y-133703989D01*
X172334746Y-133764920D01*
X172291224Y-133847119D01*
X172249919Y-134011559D01*
X172249031Y-134181105D01*
X170058000Y-134181105D01*
X170058000Y-133597115D01*
X170053525Y-133581876D01*
X170052135Y-133580671D01*
X170044452Y-133579000D01*
X168822115Y-133579000D01*
X168806876Y-133583475D01*
X168805671Y-133584865D01*
X168804000Y-133592548D01*
X168804000Y-135064884D01*
X168296000Y-135064884D01*
X168296000Y-133597115D01*
X168291525Y-133581876D01*
X168290135Y-133580671D01*
X168282452Y-133579000D01*
X167060116Y-133579000D01*
X167044877Y-133583475D01*
X167043672Y-133584865D01*
X167042001Y-133592548D01*
X167042001Y-134619669D01*
X161258000Y-134619669D01*
X161258000Y-133597115D01*
X161253525Y-133581876D01*
X161252135Y-133580671D01*
X161244452Y-133579000D01*
X160022115Y-133579000D01*
X160006876Y-133583475D01*
X160005671Y-133584865D01*
X160004000Y-133592548D01*
X160004000Y-135064884D01*
X159496000Y-135064884D01*
X159496000Y-133052885D01*
X160004000Y-133052885D01*
X160008475Y-133068124D01*
X160009865Y-133069329D01*
X160017548Y-133071000D01*
X161239884Y-133071000D01*
X161255123Y-133066525D01*
X161256328Y-133065135D01*
X161257999Y-133057452D01*
X161257999Y-132030331D01*
X161257629Y-132023510D01*
X161252105Y-131972648D01*
X161248479Y-131957396D01*
X161203324Y-131836946D01*
X161194786Y-131821351D01*
X161118285Y-131719276D01*
X161105724Y-131706715D01*
X161003649Y-131630214D01*
X160988054Y-131621676D01*
X160867606Y-131576522D01*
X160852351Y-131572895D01*
X160801486Y-131567369D01*
X160794672Y-131567000D01*
X160022115Y-131567000D01*
X160006876Y-131571475D01*
X160005671Y-131572865D01*
X160004000Y-131580548D01*
X160004000Y-133052885D01*
X159496000Y-133052885D01*
X159496000Y-131585116D01*
X159491525Y-131569877D01*
X159490135Y-131568672D01*
X159482452Y-131567001D01*
X158705331Y-131567001D01*
X158698510Y-131567371D01*
X158647648Y-131572895D01*
X158632396Y-131576521D01*
X158511946Y-131621676D01*
X158496352Y-131630213D01*
X158451564Y-131663780D01*
X158385058Y-131688627D01*
X158315675Y-131673574D01*
X158265446Y-131623399D01*
X158250000Y-131562953D01*
X158250000Y-130506105D01*
X161249031Y-130506105D01*
X161288612Y-130670968D01*
X161366375Y-130821631D01*
X161371367Y-130827353D01*
X161371368Y-130827355D01*
X161433808Y-130898931D01*
X161477831Y-130949396D01*
X161484045Y-130953763D01*
X161610330Y-131042518D01*
X161610332Y-131042519D01*
X161616547Y-131046887D01*
X161774513Y-131108476D01*
X161782046Y-131109468D01*
X161782047Y-131109468D01*
X161899739Y-131124962D01*
X161903826Y-131125500D01*
X161992516Y-131125500D01*
X162118320Y-131110276D01*
X162276923Y-131050345D01*
X162331849Y-131012595D01*
X162410392Y-130958614D01*
X162410393Y-130958613D01*
X162416651Y-130954312D01*
X162444104Y-130923500D01*
X162524388Y-130833392D01*
X162524390Y-130833388D01*
X162529440Y-130827721D01*
X162536238Y-130814883D01*
X162605224Y-130684589D01*
X162608776Y-130677881D01*
X162650081Y-130513441D01*
X162650969Y-130343895D01*
X162639017Y-130294110D01*
X162613161Y-130186417D01*
X162611388Y-130179032D01*
X162533625Y-130028369D01*
X162528313Y-130022279D01*
X162427163Y-129906329D01*
X162422169Y-129900604D01*
X162344975Y-129846351D01*
X162289670Y-129807482D01*
X162289668Y-129807481D01*
X162284653Y-129803956D01*
X162283453Y-129803113D01*
X162283758Y-129802680D01*
X162236813Y-129756444D01*
X162221193Y-129687187D01*
X162245496Y-129620480D01*
X162290291Y-129586411D01*
X162298329Y-129577135D01*
X162300000Y-129569452D01*
X162300000Y-128093115D01*
X162295525Y-128077876D01*
X162294135Y-128076671D01*
X162286452Y-128075000D01*
X161810116Y-128075000D01*
X161794877Y-128079475D01*
X161793672Y-128080865D01*
X161792001Y-128088548D01*
X161792001Y-129119669D01*
X161792371Y-129126490D01*
X161797895Y-129177352D01*
X161801521Y-129192604D01*
X161846676Y-129313054D01*
X161855214Y-129328649D01*
X161931715Y-129430724D01*
X161944276Y-129443285D01*
X162016847Y-129497674D01*
X162059362Y-129554533D01*
X162064388Y-129625352D01*
X162030328Y-129687645D01*
X161967997Y-129721635D01*
X161941282Y-129724500D01*
X161907484Y-129724500D01*
X161781680Y-129739724D01*
X161623077Y-129799655D01*
X161616819Y-129803956D01*
X161532444Y-129861946D01*
X161483349Y-129895688D01*
X161478297Y-129901358D01*
X161478296Y-129901359D01*
X161375612Y-130016608D01*
X161375610Y-130016612D01*
X161370560Y-130022279D01*
X161367008Y-130028988D01*
X161367007Y-130028989D01*
X161356671Y-130048510D01*
X161291224Y-130172119D01*
X161249919Y-130336559D01*
X161249031Y-130506105D01*
X158250000Y-130506105D01*
X158250000Y-129587047D01*
X158270002Y-129518926D01*
X158323658Y-129472433D01*
X158393932Y-129462329D01*
X158451564Y-129486220D01*
X158496352Y-129519787D01*
X158511946Y-129528324D01*
X158632394Y-129573478D01*
X158647649Y-129577105D01*
X158698514Y-129582631D01*
X158705328Y-129583000D01*
X159477885Y-129583000D01*
X159493124Y-129578525D01*
X159494329Y-129577135D01*
X159496000Y-129569452D01*
X159496000Y-129564884D01*
X160004000Y-129564884D01*
X160008475Y-129580123D01*
X160009865Y-129581328D01*
X160017548Y-129582999D01*
X160794669Y-129582999D01*
X160801490Y-129582629D01*
X160852352Y-129577105D01*
X160867604Y-129573479D01*
X160988054Y-129528324D01*
X161003649Y-129519786D01*
X161105724Y-129443285D01*
X161118285Y-129430724D01*
X161194786Y-129328649D01*
X161203324Y-129313054D01*
X161248478Y-129192606D01*
X161252105Y-129177351D01*
X161257631Y-129126486D01*
X161258000Y-129119672D01*
X161258000Y-128097115D01*
X161253525Y-128081876D01*
X161252135Y-128080671D01*
X161244452Y-128079000D01*
X160022115Y-128079000D01*
X160006876Y-128083475D01*
X160005671Y-128084865D01*
X160004000Y-128092548D01*
X160004000Y-129564884D01*
X159496000Y-129564884D01*
X159496000Y-127552885D01*
X160004000Y-127552885D01*
X160008475Y-127568124D01*
X160009865Y-127569329D01*
X160017548Y-127571000D01*
X161239884Y-127571000D01*
X161255123Y-127566525D01*
X161256328Y-127565135D01*
X161257999Y-127557452D01*
X161257999Y-127556885D01*
X161792000Y-127556885D01*
X161796475Y-127572124D01*
X161797865Y-127573329D01*
X161805548Y-127575000D01*
X162281885Y-127575000D01*
X162297124Y-127570525D01*
X162298329Y-127569135D01*
X162300000Y-127561452D01*
X162300000Y-126085116D01*
X162295525Y-126069877D01*
X162294135Y-126068672D01*
X162286452Y-126067001D01*
X162255331Y-126067001D01*
X162248510Y-126067371D01*
X162197648Y-126072895D01*
X162182396Y-126076521D01*
X162061946Y-126121676D01*
X162046351Y-126130214D01*
X161944276Y-126206715D01*
X161931715Y-126219276D01*
X161855214Y-126321351D01*
X161846676Y-126336946D01*
X161801522Y-126457394D01*
X161797895Y-126472649D01*
X161792369Y-126523514D01*
X161792000Y-126530328D01*
X161792000Y-127556885D01*
X161257999Y-127556885D01*
X161257999Y-126530331D01*
X161257629Y-126523510D01*
X161252105Y-126472648D01*
X161248479Y-126457396D01*
X161203324Y-126336946D01*
X161194786Y-126321351D01*
X161118285Y-126219276D01*
X161105724Y-126206715D01*
X161003649Y-126130214D01*
X160988054Y-126121676D01*
X160867606Y-126076522D01*
X160852351Y-126072895D01*
X160801486Y-126067369D01*
X160794672Y-126067000D01*
X160022115Y-126067000D01*
X160006876Y-126071475D01*
X160005671Y-126072865D01*
X160004000Y-126080548D01*
X160004000Y-127552885D01*
X159496000Y-127552885D01*
X159496000Y-126085116D01*
X159491525Y-126069877D01*
X159490135Y-126068672D01*
X159482452Y-126067001D01*
X158705331Y-126067001D01*
X158698510Y-126067371D01*
X158647648Y-126072895D01*
X158632396Y-126076521D01*
X158511946Y-126121676D01*
X158496352Y-126130213D01*
X158451564Y-126163780D01*
X158385058Y-126188627D01*
X158315675Y-126173574D01*
X158265446Y-126123399D01*
X158250000Y-126062953D01*
X158250000Y-124876000D01*
X158270002Y-124807879D01*
X158323658Y-124761386D01*
X158376000Y-124750000D01*
X162847009Y-124750000D01*
X162915130Y-124770002D01*
G37*
G04 #@! TD.AperFunction*
M02*
