G04 #@! TF.GenerationSoftware,KiCad,Pcbnew,(6.0.5-0)*
G04 #@! TF.CreationDate,2022-11-14T20:13:07-05:00*
G04 #@! TF.ProjectId,switchable-rf-attenuator,73776974-6368-4616-926c-652d72662d61,rev?*
G04 #@! TF.SameCoordinates,Original*
G04 #@! TF.FileFunction,Soldermask,Bot*
G04 #@! TF.FilePolarity,Negative*
%FSLAX46Y46*%
G04 Gerber Fmt 4.6, Leading zero omitted, Abs format (unit mm)*
G04 Created by KiCad (PCBNEW (6.0.5-0)) date 2022-11-14 20:13:07*
%MOMM*%
%LPD*%
G01*
G04 APERTURE LIST*
G04 Aperture macros list*
%AMRoundRect*
0 Rectangle with rounded corners*
0 $1 Rounding radius*
0 $2 $3 $4 $5 $6 $7 $8 $9 X,Y pos of 4 corners*
0 Add a 4 corners polygon primitive as box body*
4,1,4,$2,$3,$4,$5,$6,$7,$8,$9,$2,$3,0*
0 Add four circle primitives for the rounded corners*
1,1,$1+$1,$2,$3*
1,1,$1+$1,$4,$5*
1,1,$1+$1,$6,$7*
1,1,$1+$1,$8,$9*
0 Add four rect primitives between the rounded corners*
20,1,$1+$1,$2,$3,$4,$5,0*
20,1,$1+$1,$4,$5,$6,$7,0*
20,1,$1+$1,$6,$7,$8,$9,0*
20,1,$1+$1,$8,$9,$2,$3,0*%
%AMFreePoly0*
4,1,6,1.000000,0.000000,0.500000,-0.750000,-0.500000,-0.750000,-0.500000,0.750000,0.500000,0.750000,1.000000,0.000000,1.000000,0.000000,$1*%
%AMFreePoly1*
4,1,6,0.500000,-0.750000,-0.650000,-0.750000,-0.150000,0.000000,-0.650000,0.750000,0.500000,0.750000,0.500000,-0.750000,0.500000,-0.750000,$1*%
G04 Aperture macros list end*
%ADD10C,0.700000*%
%ADD11C,4.400000*%
%ADD12R,4.190000X2.665000*%
%ADD13C,0.900000*%
%ADD14R,1.250000X2.500000*%
%ADD15RoundRect,0.218750X-0.218750X-0.256250X0.218750X-0.256250X0.218750X0.256250X-0.218750X0.256250X0*%
%ADD16RoundRect,0.147500X-0.147500X-0.172500X0.147500X-0.172500X0.147500X0.172500X-0.147500X0.172500X0*%
%ADD17FreePoly0,180.000000*%
%ADD18FreePoly1,180.000000*%
%ADD19RoundRect,0.225000X-0.225000X-0.250000X0.225000X-0.250000X0.225000X0.250000X-0.225000X0.250000X0*%
%ADD20RoundRect,0.250000X0.262500X0.450000X-0.262500X0.450000X-0.262500X-0.450000X0.262500X-0.450000X0*%
%ADD21RoundRect,0.250000X0.250000X0.475000X-0.250000X0.475000X-0.250000X-0.475000X0.250000X-0.475000X0*%
%ADD22R,0.500000X2.500000*%
%ADD23R,2.000000X2.500000*%
G04 APERTURE END LIST*
D10*
X187350000Y-108300000D03*
X190166726Y-109466726D03*
X189000000Y-109950000D03*
X190650000Y-108300000D03*
X190166726Y-107133274D03*
X187833274Y-109466726D03*
D11*
X189000000Y-108300000D03*
D10*
X187833274Y-107133274D03*
X189000000Y-106650000D03*
D12*
X147800000Y-114507500D03*
X147800000Y-121492500D03*
D10*
X149316726Y-132033274D03*
X148150000Y-131550000D03*
X148150000Y-134850000D03*
X149316726Y-134366726D03*
X146500000Y-133200000D03*
X146983274Y-134366726D03*
X146983274Y-132033274D03*
X149800000Y-133200000D03*
D11*
X148200000Y-133200000D03*
D12*
X190200000Y-121492500D03*
X190200000Y-114507500D03*
D10*
X149366726Y-109466726D03*
X147033274Y-107133274D03*
X146550000Y-108300000D03*
X147033274Y-109466726D03*
D11*
X148200000Y-108300000D03*
D10*
X149366726Y-107133274D03*
X149850000Y-108300000D03*
X148200000Y-106650000D03*
X148200000Y-109950000D03*
X187833274Y-134366726D03*
X190166726Y-132033274D03*
X190650000Y-133200000D03*
D11*
X189000000Y-133200000D03*
D10*
X189000000Y-134850000D03*
X189000000Y-131550000D03*
X187350000Y-133200000D03*
X190166726Y-134366726D03*
X187833274Y-132033274D03*
D13*
X172950000Y-134100000D03*
X179750000Y-134100000D03*
D14*
X178850000Y-131350000D03*
X176350000Y-131350000D03*
X173850000Y-131350000D03*
D15*
X176450000Y-126810000D03*
X178025000Y-126810000D03*
D16*
X163665000Y-125450000D03*
X164635000Y-125450000D03*
D17*
X156425000Y-125500000D03*
D18*
X154975000Y-125500000D03*
D19*
X176462500Y-125300000D03*
X178012500Y-125300000D03*
D20*
X178150000Y-128550000D03*
X176325000Y-128550000D03*
D21*
X173800000Y-128550000D03*
X171900000Y-128550000D03*
D13*
X161950000Y-130425000D03*
X166350000Y-130425000D03*
D22*
X165750000Y-127825000D03*
X164950000Y-127825000D03*
X164150000Y-127825000D03*
X163350000Y-127825000D03*
X162550000Y-127825000D03*
D23*
X168550000Y-127825000D03*
X159750000Y-133325000D03*
X168550000Y-133325000D03*
X159750000Y-127825000D03*
M02*
