M48
; DRILL file {KiCad (6.0.5-0)} date Monday, November 14, 2022 at 08:13:04 pm
; FORMAT={-:-/ absolute / metric / decimal}
; #@! TF.CreationDate,2022-11-14T20:13:04-05:00
; #@! TF.GenerationSoftware,Kicad,Pcbnew,(6.0.5-0)
; #@! TF.FileFunction,Plated,1,4,PTH
FMAT,2
METRIC
; #@! TA.AperFunction,Plated,PTH,ViaDrill
T1C0.400
; #@! TA.AperFunction,Plated,PTH,ComponentDrill
T2C0.400
; #@! TA.AperFunction,Plated,PTH,ComponentDrill
T3C0.460
; #@! TA.AperFunction,Plated,PTH,ComponentDrill
T4C2.200
%
G90
G05
T1
X146.4Y-114.5
X146.4Y-121.5
X147.0Y-112.0
X147.0Y-124.0
X147.8Y-114.5
X147.8Y-121.5
X148.0Y-127.0
X149.0Y-112.0
X149.0Y-124.0
X149.2Y-114.5
X149.2Y-121.5
X151.0Y-112.0
X151.0Y-124.0
X152.0Y-127.0
X152.0Y-130.0
X152.0Y-134.0
X153.0Y-113.0
X153.0Y-115.0
X153.0Y-121.0
X153.0Y-123.0
X153.5Y-125.5
X155.0Y-115.0
X155.0Y-121.0
X156.0Y-107.0
X156.0Y-110.0
X156.0Y-113.0
X156.0Y-130.0
X156.0Y-134.0
X157.05Y-116.54
X157.05Y-119.46
X158.0Y-115.0
X158.0Y-121.0
X159.95Y-118.0
X160.0Y-113.0
X160.0Y-123.0
X163.0Y-112.0
X163.0Y-118.0
X163.0Y-124.0
X166.0Y-118.0
X166.0Y-124.0
X166.3Y-112.06
X169.0Y-112.0
X169.0Y-118.0
X169.0Y-124.0
X171.7Y-112.06
X172.0Y-118.0
X172.0Y-124.0
X175.0Y-112.0
X175.0Y-118.0
X175.0Y-124.0
X178.0Y-113.0
X178.0Y-118.0
X178.0Y-123.0
X180.0Y-115.0
X180.0Y-121.0
X180.95Y-116.54
X180.95Y-119.46
X182.0Y-107.0
X182.0Y-110.0
X182.0Y-113.0
X183.0Y-115.0
X183.0Y-121.0
X184.0Y-127.0
X184.0Y-130.0
X184.0Y-134.0
X185.0Y-110.0
X185.0Y-113.0
X185.0Y-115.0
X185.0Y-121.0
X185.0Y-123.0
X187.0Y-112.0
X187.0Y-124.0
X188.0Y-127.0
X188.8Y-114.5
X188.8Y-121.5
X189.0Y-112.0
X189.0Y-124.0
X190.2Y-114.5
X190.2Y-121.5
X191.0Y-112.0
X191.0Y-124.0
X191.6Y-114.5
X191.6Y-121.5
T2
X146.5Y-133.2
X146.55Y-108.3
X146.983Y-132.033
X146.983Y-134.367
X147.033Y-107.133
X147.033Y-109.467
X148.15Y-131.55
X148.15Y-134.85
X148.2Y-106.65
X148.2Y-109.95
X149.317Y-132.033
X149.317Y-134.367
X149.367Y-107.133
X149.367Y-109.467
X149.8Y-133.2
X149.85Y-108.3
X187.35Y-108.3
X187.35Y-133.2
X187.833Y-107.133
X187.833Y-109.467
X187.833Y-132.033
X187.833Y-134.367
X189.0Y-106.65
X189.0Y-109.95
X189.0Y-131.55
X189.0Y-134.85
X190.167Y-107.133
X190.167Y-109.467
X190.167Y-132.033
X190.167Y-134.367
X190.65Y-108.3
X190.65Y-133.2
T3
X150.785Y-114.507
X150.785Y-121.492
X187.215Y-114.507
X187.215Y-121.492
T4
X148.2Y-108.3
X148.2Y-133.2
X189.0Y-108.3
X189.0Y-133.2
T0
M30
