G04 #@! TF.GenerationSoftware,KiCad,Pcbnew,(6.0.5-0)*
G04 #@! TF.CreationDate,2022-11-14T20:13:07-05:00*
G04 #@! TF.ProjectId,switchable-rf-attenuator,73776974-6368-4616-926c-652d72662d61,rev?*
G04 #@! TF.SameCoordinates,Original*
G04 #@! TF.FileFunction,Copper,L2,Inr*
G04 #@! TF.FilePolarity,Positive*
%FSLAX46Y46*%
G04 Gerber Fmt 4.6, Leading zero omitted, Abs format (unit mm)*
G04 Created by KiCad (PCBNEW (6.0.5-0)) date 2022-11-14 20:13:07*
%MOMM*%
%LPD*%
G01*
G04 APERTURE LIST*
G04 #@! TA.AperFunction,ComponentPad*
%ADD10C,0.700000*%
G04 #@! TD*
G04 #@! TA.AperFunction,ComponentPad*
%ADD11C,4.400000*%
G04 #@! TD*
G04 #@! TA.AperFunction,ComponentPad*
%ADD12C,0.970000*%
G04 #@! TD*
G04 #@! TA.AperFunction,ViaPad*
%ADD13C,0.800000*%
G04 #@! TD*
G04 APERTURE END LIST*
D10*
X187350000Y-108300000D03*
X190166726Y-109466726D03*
X189000000Y-109950000D03*
X190650000Y-108300000D03*
X190166726Y-107133274D03*
X187833274Y-109466726D03*
D11*
X189000000Y-108300000D03*
D10*
X187833274Y-107133274D03*
X189000000Y-106650000D03*
D12*
X150785000Y-114507500D03*
X150785000Y-121492500D03*
D10*
X149316726Y-132033274D03*
X148150000Y-131550000D03*
X148150000Y-134850000D03*
X149316726Y-134366726D03*
X146500000Y-133200000D03*
X146983274Y-134366726D03*
X146983274Y-132033274D03*
X149800000Y-133200000D03*
D11*
X148200000Y-133200000D03*
D12*
X187215000Y-114507500D03*
X187215000Y-121492500D03*
D10*
X149366726Y-109466726D03*
X147033274Y-107133274D03*
X146550000Y-108300000D03*
X147033274Y-109466726D03*
D11*
X148200000Y-108300000D03*
D10*
X149366726Y-107133274D03*
X149850000Y-108300000D03*
X148200000Y-106650000D03*
X148200000Y-109950000D03*
X187833274Y-134366726D03*
X190166726Y-132033274D03*
X190650000Y-133200000D03*
D11*
X189000000Y-133200000D03*
D10*
X189000000Y-134850000D03*
X189000000Y-131550000D03*
X187350000Y-133200000D03*
X190166726Y-134366726D03*
X187833274Y-132033274D03*
D13*
X180950000Y-119460000D03*
X157050000Y-119460000D03*
X157050000Y-116540000D03*
X180950000Y-116540000D03*
X190200000Y-114500000D03*
X166000000Y-118000000D03*
X184000000Y-127000000D03*
X178000000Y-113000000D03*
X175000000Y-124000000D03*
X188800000Y-114500000D03*
X191000000Y-112000000D03*
X156000000Y-134000000D03*
X156000000Y-113000000D03*
X191600000Y-114500000D03*
X169000000Y-124000000D03*
X188800000Y-121500000D03*
X155000000Y-121000000D03*
X166300000Y-112060000D03*
X180000000Y-115000000D03*
X175000000Y-118000000D03*
X149000000Y-112000000D03*
X189000000Y-112000000D03*
X185000000Y-110000000D03*
X156000000Y-107000000D03*
X146400000Y-114500000D03*
X151000000Y-112000000D03*
X191000000Y-124000000D03*
X163000000Y-124000000D03*
X178000000Y-123000000D03*
X183000000Y-121000000D03*
X152000000Y-130000000D03*
X182000000Y-107000000D03*
X149200000Y-121500000D03*
X188000000Y-127000000D03*
X182000000Y-110000000D03*
X171700000Y-112060000D03*
X169000000Y-112000000D03*
X158000000Y-121000000D03*
X178000000Y-118000000D03*
X169000000Y-118000000D03*
X187000000Y-112000000D03*
X184000000Y-134000000D03*
X183000000Y-115000000D03*
X147000000Y-124000000D03*
X152000000Y-134000000D03*
X153000000Y-113000000D03*
X156000000Y-130000000D03*
X148000000Y-127000000D03*
X185000000Y-115000000D03*
X153500000Y-125500000D03*
X189000000Y-124000000D03*
X180000000Y-121000000D03*
X163000000Y-112000000D03*
X163000000Y-118000000D03*
X147000000Y-112000000D03*
X153000000Y-115000000D03*
X191600000Y-121500000D03*
X153000000Y-123000000D03*
X153000000Y-121000000D03*
X182000000Y-113000000D03*
X155000000Y-115000000D03*
X184000000Y-130000000D03*
X187000000Y-124000000D03*
X166000000Y-124000000D03*
X151000000Y-124000000D03*
X152000000Y-127000000D03*
X185000000Y-123000000D03*
X159950000Y-118000000D03*
X156000000Y-110000000D03*
X172000000Y-118000000D03*
X172000000Y-124000000D03*
X190200000Y-121500000D03*
X175000000Y-112000000D03*
X160000000Y-123000000D03*
X160000000Y-113000000D03*
X146400000Y-121500000D03*
X147800000Y-114500000D03*
X185000000Y-121000000D03*
X149000000Y-124000000D03*
X149200000Y-114500000D03*
X158000000Y-115000000D03*
X185000000Y-113000000D03*
X147800000Y-121500000D03*
G04 #@! TA.AperFunction,Conductor*
G36*
X189003306Y-105001173D02*
G01*
X189266543Y-105014969D01*
X189282802Y-105015882D01*
X189341360Y-105019171D01*
X189354004Y-105020524D01*
X189416920Y-105030488D01*
X189562069Y-105053478D01*
X189563118Y-105053650D01*
X189670070Y-105071822D01*
X189694578Y-105075986D01*
X189706082Y-105078499D01*
X189800118Y-105103696D01*
X189898377Y-105130024D01*
X189900547Y-105130627D01*
X190039484Y-105170655D01*
X190049738Y-105174093D01*
X190128038Y-105204149D01*
X190231127Y-105243722D01*
X190234189Y-105244944D01*
X190372009Y-105302030D01*
X190380984Y-105306167D01*
X190551909Y-105393257D01*
X190555654Y-105395246D01*
X190688281Y-105468546D01*
X190695958Y-105473152D01*
X190855678Y-105576876D01*
X190859966Y-105579787D01*
X190984571Y-105668199D01*
X190990952Y-105673039D01*
X191138428Y-105792463D01*
X191143071Y-105796413D01*
X191245210Y-105887690D01*
X191257415Y-105898597D01*
X191262550Y-105903453D01*
X191396547Y-106037450D01*
X191401402Y-106042584D01*
X191503587Y-106156929D01*
X191507547Y-106161583D01*
X191626961Y-106309048D01*
X191631801Y-106315429D01*
X191720213Y-106440034D01*
X191723124Y-106444322D01*
X191826848Y-106604042D01*
X191831454Y-106611719D01*
X191904754Y-106744346D01*
X191906740Y-106748084D01*
X191993833Y-106919016D01*
X191997970Y-106927991D01*
X192055056Y-107065811D01*
X192056278Y-107068873D01*
X192125904Y-107250252D01*
X192129345Y-107260516D01*
X192151549Y-107337583D01*
X192169359Y-107399404D01*
X192169976Y-107401624D01*
X192196304Y-107499882D01*
X192221501Y-107593918D01*
X192224014Y-107605422D01*
X192246350Y-107736882D01*
X192246522Y-107737931D01*
X192269512Y-107883080D01*
X192279476Y-107945996D01*
X192280829Y-107958640D01*
X192285035Y-108033524D01*
X192285060Y-108033996D01*
X192298827Y-108296695D01*
X192299000Y-108303289D01*
X192299000Y-133196711D01*
X192298827Y-133203305D01*
X192287607Y-133417408D01*
X192285060Y-133466004D01*
X192285035Y-133466476D01*
X192280829Y-133541360D01*
X192279476Y-133554004D01*
X192274410Y-133585989D01*
X192246522Y-133762069D01*
X192246350Y-133763118D01*
X192236151Y-133823146D01*
X192224014Y-133894578D01*
X192221501Y-133906082D01*
X192199769Y-133987188D01*
X192169976Y-134098377D01*
X192169373Y-134100547D01*
X192136303Y-134215335D01*
X192129349Y-134239474D01*
X192125904Y-134249748D01*
X192056278Y-134431127D01*
X192055056Y-134434189D01*
X191997970Y-134572009D01*
X191993833Y-134580984D01*
X191920278Y-134725345D01*
X191906743Y-134751909D01*
X191904754Y-134755654D01*
X191831454Y-134888281D01*
X191826850Y-134895955D01*
X191814003Y-134915737D01*
X191723124Y-135055678D01*
X191720213Y-135059966D01*
X191631801Y-135184571D01*
X191626961Y-135190952D01*
X191549651Y-135286423D01*
X191507547Y-135338417D01*
X191503587Y-135343071D01*
X191440730Y-135413408D01*
X191401403Y-135457415D01*
X191396547Y-135462550D01*
X191262550Y-135596547D01*
X191257416Y-135601402D01*
X191143071Y-135703587D01*
X191138428Y-135707537D01*
X191122017Y-135720827D01*
X190990952Y-135826961D01*
X190984571Y-135831801D01*
X190859966Y-135920213D01*
X190855678Y-135923124D01*
X190695958Y-136026848D01*
X190688281Y-136031454D01*
X190555654Y-136104754D01*
X190551916Y-136106740D01*
X190380984Y-136193833D01*
X190372009Y-136197970D01*
X190234189Y-136255056D01*
X190231127Y-136256278D01*
X190128038Y-136295851D01*
X190049738Y-136325907D01*
X190039484Y-136329345D01*
X189900547Y-136369373D01*
X189898377Y-136369976D01*
X189800118Y-136396304D01*
X189706082Y-136421501D01*
X189694578Y-136424014D01*
X189670070Y-136428178D01*
X189563118Y-136446350D01*
X189562069Y-136446522D01*
X189416920Y-136469512D01*
X189354004Y-136479476D01*
X189341360Y-136480829D01*
X189282802Y-136484118D01*
X189266543Y-136485031D01*
X189038145Y-136497001D01*
X189003305Y-136498827D01*
X188996711Y-136499000D01*
X148203289Y-136499000D01*
X148196695Y-136498827D01*
X148161855Y-136497001D01*
X147933457Y-136485031D01*
X147917198Y-136484118D01*
X147858640Y-136480829D01*
X147845996Y-136479476D01*
X147783080Y-136469512D01*
X147637931Y-136446522D01*
X147636882Y-136446350D01*
X147529930Y-136428178D01*
X147505422Y-136424014D01*
X147493918Y-136421501D01*
X147399882Y-136396304D01*
X147301623Y-136369976D01*
X147299453Y-136369373D01*
X147160516Y-136329345D01*
X147150262Y-136325907D01*
X147071962Y-136295851D01*
X146968873Y-136256278D01*
X146965811Y-136255056D01*
X146827991Y-136197970D01*
X146819016Y-136193833D01*
X146648084Y-136106740D01*
X146644346Y-136104754D01*
X146511719Y-136031454D01*
X146504042Y-136026848D01*
X146344322Y-135923124D01*
X146340034Y-135920213D01*
X146215429Y-135831801D01*
X146209048Y-135826961D01*
X146077983Y-135720827D01*
X146061572Y-135707537D01*
X146056929Y-135703587D01*
X145942584Y-135601402D01*
X145937450Y-135596547D01*
X145803453Y-135462550D01*
X145798597Y-135457415D01*
X145759270Y-135413408D01*
X145696413Y-135343071D01*
X145692453Y-135338417D01*
X145650350Y-135286423D01*
X145650348Y-135286421D01*
X146478702Y-135286421D01*
X146486227Y-135296854D01*
X146625483Y-135409020D01*
X146631657Y-135413408D01*
X146902271Y-135582178D01*
X146908931Y-135585794D01*
X147197852Y-135720827D01*
X147204905Y-135723620D01*
X147507970Y-135822970D01*
X147515282Y-135824888D01*
X147828092Y-135887109D01*
X147835590Y-135888137D01*
X148153610Y-135912328D01*
X148161173Y-135912446D01*
X148479785Y-135898257D01*
X148487326Y-135897465D01*
X148801924Y-135845101D01*
X148809302Y-135843411D01*
X149115355Y-135753625D01*
X149122450Y-135751071D01*
X149415496Y-135625169D01*
X149422263Y-135621765D01*
X149698042Y-135461580D01*
X149704349Y-135457390D01*
X149914305Y-135298889D01*
X149922761Y-135287496D01*
X149922172Y-135286423D01*
X187278703Y-135286423D01*
X187286227Y-135296854D01*
X187425483Y-135409020D01*
X187431657Y-135413408D01*
X187702271Y-135582178D01*
X187708931Y-135585794D01*
X187997852Y-135720827D01*
X188004905Y-135723620D01*
X188307970Y-135822970D01*
X188315282Y-135824888D01*
X188628092Y-135887109D01*
X188635590Y-135888137D01*
X188953610Y-135912328D01*
X188961173Y-135912446D01*
X189279785Y-135898257D01*
X189287326Y-135897465D01*
X189601924Y-135845101D01*
X189609302Y-135843411D01*
X189915355Y-135753625D01*
X189922450Y-135751071D01*
X190215496Y-135625169D01*
X190222263Y-135621765D01*
X190498042Y-135461580D01*
X190504349Y-135457390D01*
X190714305Y-135298889D01*
X190722761Y-135287496D01*
X190716045Y-135275256D01*
X189012810Y-133572020D01*
X188998869Y-133564408D01*
X188997034Y-133564539D01*
X188990420Y-133568790D01*
X187285818Y-135273393D01*
X187278703Y-135286423D01*
X149922172Y-135286423D01*
X149916046Y-135275257D01*
X149809911Y-135169122D01*
X149781334Y-135153517D01*
X149743235Y-135145228D01*
X149714527Y-135123737D01*
X148591922Y-134001132D01*
X149364408Y-134001132D01*
X149364539Y-134002965D01*
X149368790Y-134009580D01*
X150273289Y-134914078D01*
X150286407Y-134921241D01*
X150296709Y-134913851D01*
X150400751Y-134786055D01*
X150405164Y-134779914D01*
X150575349Y-134510187D01*
X150579005Y-134503536D01*
X150715544Y-134215335D01*
X150718375Y-134208295D01*
X150727446Y-134181105D01*
X172249031Y-134181105D01*
X172250805Y-134188492D01*
X172250805Y-134188496D01*
X172263044Y-134239474D01*
X172288612Y-134345968D01*
X172292093Y-134352712D01*
X172292094Y-134352715D01*
X172324004Y-134414539D01*
X172366375Y-134496631D01*
X172371367Y-134502353D01*
X172371368Y-134502355D01*
X172405799Y-134541824D01*
X172477831Y-134624396D01*
X172484045Y-134628763D01*
X172610330Y-134717518D01*
X172610332Y-134717519D01*
X172616547Y-134721887D01*
X172774513Y-134783476D01*
X172782046Y-134784468D01*
X172782047Y-134784468D01*
X172899739Y-134799962D01*
X172903826Y-134800500D01*
X172992516Y-134800500D01*
X173118320Y-134785276D01*
X173276923Y-134725345D01*
X173416651Y-134629312D01*
X173426132Y-134618671D01*
X173524388Y-134508392D01*
X173524390Y-134508388D01*
X173529440Y-134502721D01*
X173536238Y-134489883D01*
X173605224Y-134359589D01*
X173608776Y-134352881D01*
X173650081Y-134188441D01*
X173650119Y-134181105D01*
X179049031Y-134181105D01*
X179050805Y-134188492D01*
X179050805Y-134188496D01*
X179063044Y-134239474D01*
X179088612Y-134345968D01*
X179092093Y-134352712D01*
X179092094Y-134352715D01*
X179124004Y-134414539D01*
X179166375Y-134496631D01*
X179171367Y-134502353D01*
X179171368Y-134502355D01*
X179205799Y-134541824D01*
X179277831Y-134624396D01*
X179284045Y-134628763D01*
X179410330Y-134717518D01*
X179410332Y-134717519D01*
X179416547Y-134721887D01*
X179574513Y-134783476D01*
X179582046Y-134784468D01*
X179582047Y-134784468D01*
X179699739Y-134799962D01*
X179703826Y-134800500D01*
X179792516Y-134800500D01*
X179918320Y-134785276D01*
X180076923Y-134725345D01*
X180216651Y-134629312D01*
X180226132Y-134618671D01*
X180324388Y-134508392D01*
X180324390Y-134508388D01*
X180329440Y-134502721D01*
X180336238Y-134489883D01*
X180405224Y-134359589D01*
X180408776Y-134352881D01*
X180450081Y-134188441D01*
X180450969Y-134018895D01*
X180447145Y-134002965D01*
X180413161Y-133861417D01*
X180411388Y-133854032D01*
X180333625Y-133703369D01*
X180328313Y-133697279D01*
X180227163Y-133581329D01*
X180222169Y-133575604D01*
X180163649Y-133534475D01*
X180089670Y-133482482D01*
X180089668Y-133482481D01*
X180083453Y-133478113D01*
X179925487Y-133416524D01*
X179917954Y-133415532D01*
X179917953Y-133415532D01*
X179800261Y-133400038D01*
X179800260Y-133400038D01*
X179796174Y-133399500D01*
X179707484Y-133399500D01*
X179581680Y-133414724D01*
X179423077Y-133474655D01*
X179416819Y-133478956D01*
X179292296Y-133564539D01*
X179283349Y-133570688D01*
X179278297Y-133576358D01*
X179278296Y-133576359D01*
X179175612Y-133691608D01*
X179175610Y-133691612D01*
X179170560Y-133697279D01*
X179167008Y-133703988D01*
X179167007Y-133703989D01*
X179136342Y-133761905D01*
X179091224Y-133847119D01*
X179049919Y-134011559D01*
X179049031Y-134181105D01*
X173650119Y-134181105D01*
X173650969Y-134018895D01*
X173647145Y-134002965D01*
X173613161Y-133861417D01*
X173611388Y-133854032D01*
X173533625Y-133703369D01*
X173528313Y-133697279D01*
X173427163Y-133581329D01*
X173422169Y-133575604D01*
X173363649Y-133534475D01*
X173289670Y-133482482D01*
X173289668Y-133482481D01*
X173283453Y-133478113D01*
X173125487Y-133416524D01*
X173117954Y-133415532D01*
X173117953Y-133415532D01*
X173000261Y-133400038D01*
X173000260Y-133400038D01*
X172996174Y-133399500D01*
X172907484Y-133399500D01*
X172781680Y-133414724D01*
X172623077Y-133474655D01*
X172616819Y-133478956D01*
X172492296Y-133564539D01*
X172483349Y-133570688D01*
X172478297Y-133576358D01*
X172478296Y-133576359D01*
X172375612Y-133691608D01*
X172375610Y-133691612D01*
X172370560Y-133697279D01*
X172367008Y-133703988D01*
X172367007Y-133703989D01*
X172336342Y-133761905D01*
X172291224Y-133847119D01*
X172249919Y-134011559D01*
X172249031Y-134181105D01*
X150727446Y-134181105D01*
X150819306Y-133905767D01*
X150821270Y-133898433D01*
X150885122Y-133585989D01*
X150886194Y-133578465D01*
X150912173Y-133259051D01*
X150912378Y-133254576D01*
X150912927Y-133202221D01*
X150912817Y-133197789D01*
X150911466Y-133175383D01*
X186287388Y-133175383D01*
X186303245Y-133493914D01*
X186304076Y-133501443D01*
X186358085Y-133815759D01*
X186359818Y-133823146D01*
X186451196Y-134128695D01*
X186453799Y-134135808D01*
X186581227Y-134428173D01*
X186584669Y-134434929D01*
X186746296Y-134709865D01*
X186750519Y-134716150D01*
X186901463Y-134913934D01*
X186912989Y-134922396D01*
X186925054Y-134915735D01*
X188627980Y-133212810D01*
X188634357Y-133201131D01*
X189364408Y-133201131D01*
X189364539Y-133202966D01*
X189368790Y-133209580D01*
X191073285Y-134914074D01*
X191086408Y-134921240D01*
X191096709Y-134913851D01*
X191200751Y-134786055D01*
X191205164Y-134779914D01*
X191375349Y-134510187D01*
X191379005Y-134503536D01*
X191515544Y-134215335D01*
X191518375Y-134208295D01*
X191619306Y-133905767D01*
X191621270Y-133898433D01*
X191685122Y-133585989D01*
X191686194Y-133578465D01*
X191712173Y-133259051D01*
X191712378Y-133254576D01*
X191712927Y-133202221D01*
X191712817Y-133197789D01*
X191693529Y-132877853D01*
X191692621Y-132870351D01*
X191635319Y-132556593D01*
X191633518Y-132549260D01*
X191538935Y-132244655D01*
X191536263Y-132237583D01*
X191405781Y-131946570D01*
X191402264Y-131939843D01*
X191237771Y-131666621D01*
X191233481Y-131660377D01*
X191097991Y-131486647D01*
X191086199Y-131478178D01*
X191074486Y-131484725D01*
X189372020Y-133187190D01*
X189364408Y-133201131D01*
X188634357Y-133201131D01*
X188635592Y-133198869D01*
X188635461Y-133197034D01*
X188631210Y-133190420D01*
X186926445Y-131485656D01*
X186913510Y-131478592D01*
X186902949Y-131486252D01*
X186782766Y-131637072D01*
X186778410Y-131643270D01*
X186611059Y-131914764D01*
X186607479Y-131921440D01*
X186473956Y-132211074D01*
X186471206Y-132218125D01*
X186373444Y-132521708D01*
X186371561Y-132529041D01*
X186310979Y-132842170D01*
X186309992Y-132849670D01*
X186287467Y-133167802D01*
X186287388Y-133175383D01*
X150911466Y-133175383D01*
X150893529Y-132877853D01*
X150892621Y-132870351D01*
X150835319Y-132556593D01*
X150833518Y-132549260D01*
X150738935Y-132244655D01*
X150736263Y-132237583D01*
X150605781Y-131946570D01*
X150602264Y-131939843D01*
X150437771Y-131666621D01*
X150433481Y-131660377D01*
X150297991Y-131486647D01*
X150286198Y-131478177D01*
X150274489Y-131484722D01*
X149372021Y-132387189D01*
X149364408Y-132401132D01*
X149364539Y-132402966D01*
X149368790Y-132409580D01*
X150070115Y-133110905D01*
X150104141Y-133173217D01*
X150099076Y-133244032D01*
X150070115Y-133289095D01*
X149372022Y-133987188D01*
X149364408Y-134001132D01*
X148591922Y-134001132D01*
X148558711Y-133967921D01*
X148524685Y-133905609D01*
X148522127Y-133887814D01*
X148521810Y-133883384D01*
X148517559Y-133876769D01*
X148212812Y-133572022D01*
X148198868Y-133564408D01*
X148197035Y-133564539D01*
X148190420Y-133568790D01*
X147722022Y-134037188D01*
X147714408Y-134051132D01*
X147714539Y-134052965D01*
X147718790Y-134059580D01*
X148420115Y-134760905D01*
X148454141Y-134823217D01*
X148449076Y-134894032D01*
X148420115Y-134939095D01*
X148239095Y-135120115D01*
X148176783Y-135154141D01*
X148105968Y-135149076D01*
X148060905Y-135120115D01*
X147362812Y-134422022D01*
X147348868Y-134414408D01*
X147347035Y-134414539D01*
X147340420Y-134418790D01*
X146485814Y-135273397D01*
X146478702Y-135286421D01*
X145650348Y-135286421D01*
X145573039Y-135190952D01*
X145568199Y-135184571D01*
X145479787Y-135059966D01*
X145476876Y-135055678D01*
X145385997Y-134915737D01*
X145373150Y-134895955D01*
X145368546Y-134888281D01*
X145295246Y-134755654D01*
X145293257Y-134751909D01*
X145279722Y-134725345D01*
X145206167Y-134580984D01*
X145202030Y-134572009D01*
X145144944Y-134434189D01*
X145143722Y-134431127D01*
X145074096Y-134249748D01*
X145070651Y-134239474D01*
X145063697Y-134215335D01*
X145030627Y-134100547D01*
X145030024Y-134098377D01*
X145000231Y-133987188D01*
X144978499Y-133906082D01*
X144975986Y-133894578D01*
X144963849Y-133823146D01*
X144953650Y-133763118D01*
X144953478Y-133762069D01*
X144925590Y-133585989D01*
X144920524Y-133554004D01*
X144919171Y-133541360D01*
X144914965Y-133466476D01*
X144914940Y-133466004D01*
X144912394Y-133417408D01*
X144901173Y-133203305D01*
X144901000Y-133196711D01*
X144901000Y-133175383D01*
X145487388Y-133175383D01*
X145503245Y-133493914D01*
X145504076Y-133501443D01*
X145558085Y-133815759D01*
X145559818Y-133823146D01*
X145651196Y-134128695D01*
X145653799Y-134135808D01*
X145781227Y-134428173D01*
X145784669Y-134434929D01*
X145946296Y-134709865D01*
X145950519Y-134716150D01*
X146101463Y-134913934D01*
X146112990Y-134922396D01*
X146125052Y-134915737D01*
X146180879Y-134859911D01*
X146196483Y-134831334D01*
X146204772Y-134793235D01*
X146226263Y-134764527D01*
X147382079Y-133608711D01*
X147444391Y-133574685D01*
X147462186Y-133572127D01*
X147466616Y-133571810D01*
X147473231Y-133567559D01*
X147827978Y-133212812D01*
X147834356Y-133201132D01*
X148564408Y-133201132D01*
X148564539Y-133202965D01*
X148568790Y-133209580D01*
X148987188Y-133627978D01*
X149001132Y-133635592D01*
X149002965Y-133635461D01*
X149009580Y-133631210D01*
X149427978Y-133212812D01*
X149435592Y-133198868D01*
X149435461Y-133197035D01*
X149431210Y-133190420D01*
X149012812Y-132772022D01*
X148998868Y-132764408D01*
X148997035Y-132764539D01*
X148990420Y-132768790D01*
X148572022Y-133187188D01*
X148564408Y-133201132D01*
X147834356Y-133201132D01*
X147835592Y-133198868D01*
X147835461Y-133197035D01*
X147831210Y-133190420D01*
X147476463Y-132835673D01*
X147447877Y-132820063D01*
X147409782Y-132811775D01*
X147381074Y-132790284D01*
X146225259Y-131634469D01*
X146191233Y-131572157D01*
X146188675Y-131554362D01*
X146188358Y-131549932D01*
X146184108Y-131543318D01*
X146126443Y-131485654D01*
X146113510Y-131478592D01*
X146102948Y-131486253D01*
X145982766Y-131637072D01*
X145978410Y-131643270D01*
X145811059Y-131914764D01*
X145807479Y-131921440D01*
X145673956Y-132211074D01*
X145671206Y-132218125D01*
X145573444Y-132521708D01*
X145571561Y-132529041D01*
X145510979Y-132842170D01*
X145509992Y-132849670D01*
X145487467Y-133167802D01*
X145487388Y-133175383D01*
X144901000Y-133175383D01*
X144901000Y-131113423D01*
X146477917Y-131113423D01*
X146484519Y-131125308D01*
X147337189Y-131977979D01*
X147351132Y-131985592D01*
X147352966Y-131985461D01*
X147359580Y-131981210D01*
X148060905Y-131279885D01*
X148123217Y-131245859D01*
X148194032Y-131250924D01*
X148239095Y-131279885D01*
X148420115Y-131460905D01*
X148454141Y-131523217D01*
X148449076Y-131594032D01*
X148420115Y-131639095D01*
X147722022Y-132337188D01*
X147714408Y-132351132D01*
X147714539Y-132352965D01*
X147718790Y-132359580D01*
X148187188Y-132827978D01*
X148201132Y-132835592D01*
X148202965Y-132835461D01*
X148209580Y-132831210D01*
X148514327Y-132526463D01*
X148529937Y-132497877D01*
X148538225Y-132459782D01*
X148559716Y-132431074D01*
X149715531Y-131275259D01*
X149777843Y-131241233D01*
X149795638Y-131238675D01*
X149800068Y-131238358D01*
X149806682Y-131234108D01*
X149914563Y-131126226D01*
X149921572Y-131113391D01*
X149913776Y-131102700D01*
X149751298Y-130974613D01*
X149745075Y-130970288D01*
X149472702Y-130804357D01*
X149466025Y-130800822D01*
X149175686Y-130668813D01*
X149168616Y-130666099D01*
X148864537Y-130569932D01*
X148857186Y-130568085D01*
X148543746Y-130509142D01*
X148536237Y-130508194D01*
X148504365Y-130506105D01*
X161249031Y-130506105D01*
X161288612Y-130670968D01*
X161366375Y-130821631D01*
X161371367Y-130827353D01*
X161371368Y-130827355D01*
X161433808Y-130898931D01*
X161477831Y-130949396D01*
X161513711Y-130974613D01*
X161610330Y-131042518D01*
X161610332Y-131042519D01*
X161616547Y-131046887D01*
X161774513Y-131108476D01*
X161782046Y-131109468D01*
X161782047Y-131109468D01*
X161899739Y-131124962D01*
X161903826Y-131125500D01*
X161992516Y-131125500D01*
X162118320Y-131110276D01*
X162276923Y-131050345D01*
X162416651Y-130954312D01*
X162426132Y-130943671D01*
X162524388Y-130833392D01*
X162524390Y-130833388D01*
X162529440Y-130827721D01*
X162536238Y-130814883D01*
X162605224Y-130684589D01*
X162608776Y-130677881D01*
X162650081Y-130513441D01*
X162650119Y-130506105D01*
X165649031Y-130506105D01*
X165688612Y-130670968D01*
X165766375Y-130821631D01*
X165771367Y-130827353D01*
X165771368Y-130827355D01*
X165833808Y-130898931D01*
X165877831Y-130949396D01*
X165913711Y-130974613D01*
X166010330Y-131042518D01*
X166010332Y-131042519D01*
X166016547Y-131046887D01*
X166174513Y-131108476D01*
X166182046Y-131109468D01*
X166182047Y-131109468D01*
X166299739Y-131124962D01*
X166303826Y-131125500D01*
X166392516Y-131125500D01*
X166492315Y-131113423D01*
X187277917Y-131113423D01*
X187284520Y-131125309D01*
X188987190Y-132827980D01*
X189001131Y-132835592D01*
X189002966Y-132835461D01*
X189009580Y-132831210D01*
X190714559Y-131126230D01*
X190721571Y-131113389D01*
X190713777Y-131102701D01*
X190551298Y-130974613D01*
X190545075Y-130970288D01*
X190272702Y-130804357D01*
X190266025Y-130800822D01*
X189975686Y-130668813D01*
X189968616Y-130666099D01*
X189664537Y-130569932D01*
X189657186Y-130568085D01*
X189343746Y-130509142D01*
X189336237Y-130508194D01*
X189017989Y-130487335D01*
X189010424Y-130487295D01*
X188691964Y-130504821D01*
X188684450Y-130505690D01*
X188370405Y-130561348D01*
X188363044Y-130563115D01*
X188057980Y-130656092D01*
X188050860Y-130658740D01*
X187759182Y-130787690D01*
X187752445Y-130791167D01*
X187478355Y-130954233D01*
X187472091Y-130958490D01*
X187286385Y-131101762D01*
X187277917Y-131113423D01*
X166492315Y-131113423D01*
X166518320Y-131110276D01*
X166676923Y-131050345D01*
X166816651Y-130954312D01*
X166826132Y-130943671D01*
X166924388Y-130833392D01*
X166924390Y-130833388D01*
X166929440Y-130827721D01*
X166936238Y-130814883D01*
X167005224Y-130684589D01*
X167008776Y-130677881D01*
X167050081Y-130513441D01*
X167050969Y-130343895D01*
X167011388Y-130179032D01*
X166933625Y-130028369D01*
X166928313Y-130022279D01*
X166827163Y-129906329D01*
X166822169Y-129900604D01*
X166763649Y-129859475D01*
X166689670Y-129807482D01*
X166689668Y-129807481D01*
X166683453Y-129803113D01*
X166525487Y-129741524D01*
X166517954Y-129740532D01*
X166517953Y-129740532D01*
X166400261Y-129725038D01*
X166400260Y-129725038D01*
X166396174Y-129724500D01*
X166307484Y-129724500D01*
X166181680Y-129739724D01*
X166023077Y-129799655D01*
X165883349Y-129895688D01*
X165878297Y-129901358D01*
X165878296Y-129901359D01*
X165775612Y-130016608D01*
X165775610Y-130016612D01*
X165770560Y-130022279D01*
X165767008Y-130028988D01*
X165767007Y-130028989D01*
X165734746Y-130089920D01*
X165691224Y-130172119D01*
X165649919Y-130336559D01*
X165649031Y-130506105D01*
X162650119Y-130506105D01*
X162650969Y-130343895D01*
X162611388Y-130179032D01*
X162533625Y-130028369D01*
X162528313Y-130022279D01*
X162427163Y-129906329D01*
X162422169Y-129900604D01*
X162363649Y-129859475D01*
X162289670Y-129807482D01*
X162289668Y-129807481D01*
X162283453Y-129803113D01*
X162125487Y-129741524D01*
X162117954Y-129740532D01*
X162117953Y-129740532D01*
X162000261Y-129725038D01*
X162000260Y-129725038D01*
X161996174Y-129724500D01*
X161907484Y-129724500D01*
X161781680Y-129739724D01*
X161623077Y-129799655D01*
X161483349Y-129895688D01*
X161478297Y-129901358D01*
X161478296Y-129901359D01*
X161375612Y-130016608D01*
X161375610Y-130016612D01*
X161370560Y-130022279D01*
X161367008Y-130028988D01*
X161367007Y-130028989D01*
X161334746Y-130089920D01*
X161291224Y-130172119D01*
X161249919Y-130336559D01*
X161249031Y-130506105D01*
X148504365Y-130506105D01*
X148217989Y-130487335D01*
X148210424Y-130487295D01*
X147891964Y-130504821D01*
X147884450Y-130505690D01*
X147570405Y-130561348D01*
X147563044Y-130563115D01*
X147257980Y-130656092D01*
X147250860Y-130658740D01*
X146959182Y-130787690D01*
X146952445Y-130791167D01*
X146678355Y-130954233D01*
X146672091Y-130958490D01*
X146486385Y-131101762D01*
X146477917Y-131113423D01*
X144901000Y-131113423D01*
X144901000Y-122350609D01*
X150291721Y-122350609D01*
X150296630Y-122357167D01*
X150380150Y-122403844D01*
X150391390Y-122408755D01*
X150564877Y-122465124D01*
X150576851Y-122467757D01*
X150757992Y-122489357D01*
X150770241Y-122489614D01*
X150952125Y-122475619D01*
X150964205Y-122473488D01*
X151139895Y-122424434D01*
X151151328Y-122420000D01*
X151269342Y-122360387D01*
X151279626Y-122350742D01*
X151279581Y-122350609D01*
X186721721Y-122350609D01*
X186726630Y-122357167D01*
X186810150Y-122403844D01*
X186821390Y-122408755D01*
X186994877Y-122465124D01*
X187006851Y-122467757D01*
X187187992Y-122489357D01*
X187200241Y-122489614D01*
X187382125Y-122475619D01*
X187394205Y-122473488D01*
X187569895Y-122424434D01*
X187581328Y-122420000D01*
X187699342Y-122360387D01*
X187709626Y-122350742D01*
X187707388Y-122344098D01*
X187227812Y-121864522D01*
X187213868Y-121856908D01*
X187212035Y-121857039D01*
X187205420Y-121861290D01*
X186728481Y-122338229D01*
X186721721Y-122350609D01*
X151279581Y-122350609D01*
X151277388Y-122344098D01*
X150797812Y-121864522D01*
X150783868Y-121856908D01*
X150782035Y-121857039D01*
X150775420Y-121861290D01*
X150298481Y-122338229D01*
X150291721Y-122350609D01*
X144901000Y-122350609D01*
X144901000Y-121484712D01*
X149787808Y-121484712D01*
X149803071Y-121666482D01*
X149805286Y-121678547D01*
X149855565Y-121853891D01*
X149860083Y-121865303D01*
X149917286Y-121976607D01*
X149927007Y-121986828D01*
X149933806Y-121984484D01*
X150412978Y-121505312D01*
X150419356Y-121493632D01*
X151149408Y-121493632D01*
X151149539Y-121495465D01*
X151153790Y-121502080D01*
X151630659Y-121978949D01*
X151643039Y-121985709D01*
X151649773Y-121980668D01*
X151693494Y-121903707D01*
X151698487Y-121892491D01*
X151756062Y-121719414D01*
X151758782Y-121707442D01*
X151781973Y-121523864D01*
X151782465Y-121516835D01*
X151782756Y-121496005D01*
X151782463Y-121489012D01*
X151782041Y-121484712D01*
X186217808Y-121484712D01*
X186233071Y-121666482D01*
X186235286Y-121678547D01*
X186285565Y-121853891D01*
X186290083Y-121865303D01*
X186347286Y-121976607D01*
X186357007Y-121986828D01*
X186363806Y-121984484D01*
X186842978Y-121505312D01*
X186849356Y-121493632D01*
X187579408Y-121493632D01*
X187579539Y-121495465D01*
X187583790Y-121502080D01*
X188060659Y-121978949D01*
X188073039Y-121985709D01*
X188079773Y-121980668D01*
X188123494Y-121903707D01*
X188128487Y-121892491D01*
X188186062Y-121719414D01*
X188188782Y-121707442D01*
X188211973Y-121523864D01*
X188212465Y-121516835D01*
X188212756Y-121496005D01*
X188212463Y-121489012D01*
X188194403Y-121304825D01*
X188192020Y-121292790D01*
X188139298Y-121118165D01*
X188134623Y-121106824D01*
X188082472Y-121008741D01*
X188072610Y-120998658D01*
X188065484Y-121001226D01*
X187587022Y-121479688D01*
X187579408Y-121493632D01*
X186849356Y-121493632D01*
X186850592Y-121491368D01*
X186850461Y-121489535D01*
X186846210Y-121482920D01*
X186369166Y-121005876D01*
X186356786Y-120999116D01*
X186350398Y-121003898D01*
X186300854Y-121094016D01*
X186296017Y-121105301D01*
X186240861Y-121279175D01*
X186238313Y-121291164D01*
X186217979Y-121472443D01*
X186217808Y-121484712D01*
X151782041Y-121484712D01*
X151764403Y-121304825D01*
X151762020Y-121292790D01*
X151709298Y-121118165D01*
X151704623Y-121106824D01*
X151652472Y-121008741D01*
X151642610Y-120998658D01*
X151635484Y-121001226D01*
X151157022Y-121479688D01*
X151149408Y-121493632D01*
X150419356Y-121493632D01*
X150420592Y-121491368D01*
X150420461Y-121489535D01*
X150416210Y-121482920D01*
X149939166Y-121005876D01*
X149926786Y-120999116D01*
X149920398Y-121003898D01*
X149870854Y-121094016D01*
X149866017Y-121105301D01*
X149810861Y-121279175D01*
X149808313Y-121291164D01*
X149787979Y-121472443D01*
X149787808Y-121484712D01*
X144901000Y-121484712D01*
X144901000Y-120634716D01*
X150290934Y-120634716D01*
X150293389Y-120641679D01*
X150772188Y-121120478D01*
X150786132Y-121128092D01*
X150787965Y-121127961D01*
X150794580Y-121123710D01*
X151271766Y-120646524D01*
X151278214Y-120634716D01*
X186720934Y-120634716D01*
X186723389Y-120641679D01*
X187202188Y-121120478D01*
X187216132Y-121128092D01*
X187217965Y-121127961D01*
X187224580Y-121123710D01*
X187701766Y-120646524D01*
X187708526Y-120634144D01*
X187703867Y-120627921D01*
X187607083Y-120575590D01*
X187595778Y-120570838D01*
X187421524Y-120516897D01*
X187409511Y-120514431D01*
X187228094Y-120495363D01*
X187215826Y-120495278D01*
X187034169Y-120511810D01*
X187022120Y-120514108D01*
X186847128Y-120565611D01*
X186835751Y-120570208D01*
X186731083Y-120624927D01*
X186720934Y-120634716D01*
X151278214Y-120634716D01*
X151278526Y-120634144D01*
X151273867Y-120627921D01*
X151177083Y-120575590D01*
X151165778Y-120570838D01*
X150991524Y-120516897D01*
X150979511Y-120514431D01*
X150798094Y-120495363D01*
X150785826Y-120495278D01*
X150604169Y-120511810D01*
X150592120Y-120514108D01*
X150417128Y-120565611D01*
X150405751Y-120570208D01*
X150301083Y-120624927D01*
X150290934Y-120634716D01*
X144901000Y-120634716D01*
X144901000Y-119460000D01*
X156444318Y-119460000D01*
X156464956Y-119616762D01*
X156525464Y-119762841D01*
X156621718Y-119888282D01*
X156747159Y-119984536D01*
X156893238Y-120045044D01*
X157050000Y-120065682D01*
X157058188Y-120064604D01*
X157198574Y-120046122D01*
X157206762Y-120045044D01*
X157352841Y-119984536D01*
X157478282Y-119888282D01*
X157574536Y-119762841D01*
X157635044Y-119616762D01*
X157655682Y-119460000D01*
X180344318Y-119460000D01*
X180364956Y-119616762D01*
X180425464Y-119762841D01*
X180521718Y-119888282D01*
X180647159Y-119984536D01*
X180793238Y-120045044D01*
X180950000Y-120065682D01*
X180958188Y-120064604D01*
X181098574Y-120046122D01*
X181106762Y-120045044D01*
X181252841Y-119984536D01*
X181378282Y-119888282D01*
X181474536Y-119762841D01*
X181535044Y-119616762D01*
X181555682Y-119460000D01*
X181535044Y-119303238D01*
X181474536Y-119157159D01*
X181378282Y-119031718D01*
X181252841Y-118935464D01*
X181106762Y-118874956D01*
X180950000Y-118854318D01*
X180793238Y-118874956D01*
X180647159Y-118935464D01*
X180521718Y-119031718D01*
X180425464Y-119157159D01*
X180364956Y-119303238D01*
X180344318Y-119460000D01*
X157655682Y-119460000D01*
X157635044Y-119303238D01*
X157574536Y-119157159D01*
X157478282Y-119031718D01*
X157352841Y-118935464D01*
X157206762Y-118874956D01*
X157050000Y-118854318D01*
X156893238Y-118874956D01*
X156747159Y-118935464D01*
X156621718Y-119031718D01*
X156525464Y-119157159D01*
X156464956Y-119303238D01*
X156444318Y-119460000D01*
X144901000Y-119460000D01*
X144901000Y-116540000D01*
X156444318Y-116540000D01*
X156464956Y-116696762D01*
X156525464Y-116842841D01*
X156621718Y-116968282D01*
X156747159Y-117064536D01*
X156893238Y-117125044D01*
X157050000Y-117145682D01*
X157058188Y-117144604D01*
X157198574Y-117126122D01*
X157206762Y-117125044D01*
X157352841Y-117064536D01*
X157478282Y-116968282D01*
X157574536Y-116842841D01*
X157635044Y-116696762D01*
X157655682Y-116540000D01*
X180344318Y-116540000D01*
X180364956Y-116696762D01*
X180425464Y-116842841D01*
X180521718Y-116968282D01*
X180647159Y-117064536D01*
X180793238Y-117125044D01*
X180950000Y-117145682D01*
X180958188Y-117144604D01*
X181098574Y-117126122D01*
X181106762Y-117125044D01*
X181252841Y-117064536D01*
X181378282Y-116968282D01*
X181474536Y-116842841D01*
X181535044Y-116696762D01*
X181555682Y-116540000D01*
X181535044Y-116383238D01*
X181474536Y-116237159D01*
X181378282Y-116111718D01*
X181252841Y-116015464D01*
X181106762Y-115954956D01*
X180950000Y-115934318D01*
X180793238Y-115954956D01*
X180647159Y-116015464D01*
X180521718Y-116111718D01*
X180425464Y-116237159D01*
X180364956Y-116383238D01*
X180344318Y-116540000D01*
X157655682Y-116540000D01*
X157635044Y-116383238D01*
X157574536Y-116237159D01*
X157478282Y-116111718D01*
X157352841Y-116015464D01*
X157206762Y-115954956D01*
X157050000Y-115934318D01*
X156893238Y-115954956D01*
X156747159Y-116015464D01*
X156621718Y-116111718D01*
X156525464Y-116237159D01*
X156464956Y-116383238D01*
X156444318Y-116540000D01*
X144901000Y-116540000D01*
X144901000Y-115365609D01*
X150291721Y-115365609D01*
X150296630Y-115372167D01*
X150380150Y-115418844D01*
X150391390Y-115423755D01*
X150564877Y-115480124D01*
X150576851Y-115482757D01*
X150757992Y-115504357D01*
X150770241Y-115504614D01*
X150952125Y-115490619D01*
X150964205Y-115488488D01*
X151139895Y-115439434D01*
X151151328Y-115435000D01*
X151269342Y-115375387D01*
X151279626Y-115365742D01*
X151279581Y-115365609D01*
X186721721Y-115365609D01*
X186726630Y-115372167D01*
X186810150Y-115418844D01*
X186821390Y-115423755D01*
X186994877Y-115480124D01*
X187006851Y-115482757D01*
X187187992Y-115504357D01*
X187200241Y-115504614D01*
X187382125Y-115490619D01*
X187394205Y-115488488D01*
X187569895Y-115439434D01*
X187581328Y-115435000D01*
X187699342Y-115375387D01*
X187709626Y-115365742D01*
X187707388Y-115359098D01*
X187227812Y-114879522D01*
X187213868Y-114871908D01*
X187212035Y-114872039D01*
X187205420Y-114876290D01*
X186728481Y-115353229D01*
X186721721Y-115365609D01*
X151279581Y-115365609D01*
X151277388Y-115359098D01*
X150797812Y-114879522D01*
X150783868Y-114871908D01*
X150782035Y-114872039D01*
X150775420Y-114876290D01*
X150298481Y-115353229D01*
X150291721Y-115365609D01*
X144901000Y-115365609D01*
X144901000Y-114499712D01*
X149787808Y-114499712D01*
X149803071Y-114681482D01*
X149805286Y-114693547D01*
X149855565Y-114868891D01*
X149860083Y-114880303D01*
X149917286Y-114991607D01*
X149927007Y-115001828D01*
X149933806Y-114999484D01*
X150412978Y-114520312D01*
X150419356Y-114508632D01*
X151149408Y-114508632D01*
X151149539Y-114510465D01*
X151153790Y-114517080D01*
X151630659Y-114993949D01*
X151643039Y-115000709D01*
X151649773Y-114995668D01*
X151693494Y-114918707D01*
X151698487Y-114907491D01*
X151756062Y-114734414D01*
X151758782Y-114722442D01*
X151781973Y-114538864D01*
X151782465Y-114531835D01*
X151782756Y-114511005D01*
X151782463Y-114504012D01*
X151782041Y-114499712D01*
X186217808Y-114499712D01*
X186233071Y-114681482D01*
X186235286Y-114693547D01*
X186285565Y-114868891D01*
X186290083Y-114880303D01*
X186347286Y-114991607D01*
X186357007Y-115001828D01*
X186363806Y-114999484D01*
X186842978Y-114520312D01*
X186849356Y-114508632D01*
X187579408Y-114508632D01*
X187579539Y-114510465D01*
X187583790Y-114517080D01*
X188060659Y-114993949D01*
X188073039Y-115000709D01*
X188079773Y-114995668D01*
X188123494Y-114918707D01*
X188128487Y-114907491D01*
X188186062Y-114734414D01*
X188188782Y-114722442D01*
X188211973Y-114538864D01*
X188212465Y-114531835D01*
X188212756Y-114511005D01*
X188212463Y-114504012D01*
X188194403Y-114319825D01*
X188192020Y-114307790D01*
X188139298Y-114133165D01*
X188134623Y-114121824D01*
X188082472Y-114023741D01*
X188072610Y-114013658D01*
X188065484Y-114016226D01*
X187587022Y-114494688D01*
X187579408Y-114508632D01*
X186849356Y-114508632D01*
X186850592Y-114506368D01*
X186850461Y-114504535D01*
X186846210Y-114497920D01*
X186369166Y-114020876D01*
X186356786Y-114014116D01*
X186350398Y-114018898D01*
X186300854Y-114109016D01*
X186296017Y-114120301D01*
X186240861Y-114294175D01*
X186238313Y-114306164D01*
X186217979Y-114487443D01*
X186217808Y-114499712D01*
X151782041Y-114499712D01*
X151764403Y-114319825D01*
X151762020Y-114307790D01*
X151709298Y-114133165D01*
X151704623Y-114121824D01*
X151652472Y-114023741D01*
X151642610Y-114013658D01*
X151635484Y-114016226D01*
X151157022Y-114494688D01*
X151149408Y-114508632D01*
X150419356Y-114508632D01*
X150420592Y-114506368D01*
X150420461Y-114504535D01*
X150416210Y-114497920D01*
X149939166Y-114020876D01*
X149926786Y-114014116D01*
X149920398Y-114018898D01*
X149870854Y-114109016D01*
X149866017Y-114120301D01*
X149810861Y-114294175D01*
X149808313Y-114306164D01*
X149787979Y-114487443D01*
X149787808Y-114499712D01*
X144901000Y-114499712D01*
X144901000Y-113649716D01*
X150290934Y-113649716D01*
X150293389Y-113656679D01*
X150772188Y-114135478D01*
X150786132Y-114143092D01*
X150787965Y-114142961D01*
X150794580Y-114138710D01*
X151271766Y-113661524D01*
X151278214Y-113649716D01*
X186720934Y-113649716D01*
X186723389Y-113656679D01*
X187202188Y-114135478D01*
X187216132Y-114143092D01*
X187217965Y-114142961D01*
X187224580Y-114138710D01*
X187701766Y-113661524D01*
X187708526Y-113649144D01*
X187703867Y-113642921D01*
X187607083Y-113590590D01*
X187595778Y-113585838D01*
X187421524Y-113531897D01*
X187409511Y-113529431D01*
X187228094Y-113510363D01*
X187215826Y-113510278D01*
X187034169Y-113526810D01*
X187022120Y-113529108D01*
X186847128Y-113580611D01*
X186835751Y-113585208D01*
X186731083Y-113639927D01*
X186720934Y-113649716D01*
X151278214Y-113649716D01*
X151278526Y-113649144D01*
X151273867Y-113642921D01*
X151177083Y-113590590D01*
X151165778Y-113585838D01*
X150991524Y-113531897D01*
X150979511Y-113529431D01*
X150798094Y-113510363D01*
X150785826Y-113510278D01*
X150604169Y-113526810D01*
X150592120Y-113529108D01*
X150417128Y-113580611D01*
X150405751Y-113585208D01*
X150301083Y-113639927D01*
X150290934Y-113649716D01*
X144901000Y-113649716D01*
X144901000Y-110386423D01*
X146478703Y-110386423D01*
X146486227Y-110396854D01*
X146625483Y-110509020D01*
X146631657Y-110513408D01*
X146902271Y-110682178D01*
X146908931Y-110685794D01*
X147197852Y-110820827D01*
X147204905Y-110823620D01*
X147507970Y-110922970D01*
X147515282Y-110924888D01*
X147828092Y-110987109D01*
X147835590Y-110988137D01*
X148153610Y-111012328D01*
X148161173Y-111012446D01*
X148479785Y-110998257D01*
X148487326Y-110997465D01*
X148801924Y-110945101D01*
X148809302Y-110943411D01*
X149115355Y-110853625D01*
X149122450Y-110851071D01*
X149415496Y-110725169D01*
X149422263Y-110721765D01*
X149698042Y-110561580D01*
X149704349Y-110557390D01*
X149914305Y-110398889D01*
X149922761Y-110387496D01*
X149922172Y-110386423D01*
X187278703Y-110386423D01*
X187286227Y-110396854D01*
X187425483Y-110509020D01*
X187431657Y-110513408D01*
X187702271Y-110682178D01*
X187708931Y-110685794D01*
X187997852Y-110820827D01*
X188004905Y-110823620D01*
X188307970Y-110922970D01*
X188315282Y-110924888D01*
X188628092Y-110987109D01*
X188635590Y-110988137D01*
X188953610Y-111012328D01*
X188961173Y-111012446D01*
X189279785Y-110998257D01*
X189287326Y-110997465D01*
X189601924Y-110945101D01*
X189609302Y-110943411D01*
X189915355Y-110853625D01*
X189922450Y-110851071D01*
X190215496Y-110725169D01*
X190222263Y-110721765D01*
X190498042Y-110561580D01*
X190504349Y-110557390D01*
X190714305Y-110398889D01*
X190722761Y-110387496D01*
X190716045Y-110375256D01*
X189012810Y-108672020D01*
X188998869Y-108664408D01*
X188997034Y-108664539D01*
X188990420Y-108668790D01*
X187285818Y-110373393D01*
X187278703Y-110386423D01*
X149922172Y-110386423D01*
X149916045Y-110375256D01*
X148212810Y-108672020D01*
X148198869Y-108664408D01*
X148197034Y-108664539D01*
X148190420Y-108668790D01*
X146485818Y-110373393D01*
X146478703Y-110386423D01*
X144901000Y-110386423D01*
X144901000Y-108303289D01*
X144901173Y-108296695D01*
X144902290Y-108275383D01*
X145487388Y-108275383D01*
X145503245Y-108593914D01*
X145504076Y-108601443D01*
X145558085Y-108915759D01*
X145559818Y-108923146D01*
X145651196Y-109228695D01*
X145653799Y-109235808D01*
X145781227Y-109528173D01*
X145784669Y-109534929D01*
X145946296Y-109809865D01*
X145950519Y-109816150D01*
X146101463Y-110013934D01*
X146112989Y-110022396D01*
X146125054Y-110015735D01*
X147827980Y-108312810D01*
X147834357Y-108301131D01*
X148564408Y-108301131D01*
X148564539Y-108302966D01*
X148568790Y-108309580D01*
X150273285Y-110014074D01*
X150286408Y-110021240D01*
X150296709Y-110013851D01*
X150400751Y-109886055D01*
X150405164Y-109879914D01*
X150575349Y-109610187D01*
X150579005Y-109603536D01*
X150715544Y-109315335D01*
X150718375Y-109308295D01*
X150819306Y-109005767D01*
X150821270Y-108998433D01*
X150885122Y-108685989D01*
X150886194Y-108678465D01*
X150912173Y-108359051D01*
X150912378Y-108354576D01*
X150912927Y-108302221D01*
X150912817Y-108297789D01*
X150911466Y-108275383D01*
X186287388Y-108275383D01*
X186303245Y-108593914D01*
X186304076Y-108601443D01*
X186358085Y-108915759D01*
X186359818Y-108923146D01*
X186451196Y-109228695D01*
X186453799Y-109235808D01*
X186581227Y-109528173D01*
X186584669Y-109534929D01*
X186746296Y-109809865D01*
X186750519Y-109816150D01*
X186901463Y-110013934D01*
X186912989Y-110022396D01*
X186925054Y-110015735D01*
X188627980Y-108312810D01*
X188634357Y-108301131D01*
X189364408Y-108301131D01*
X189364539Y-108302966D01*
X189368790Y-108309580D01*
X191073285Y-110014074D01*
X191086408Y-110021240D01*
X191096709Y-110013851D01*
X191200751Y-109886055D01*
X191205164Y-109879914D01*
X191375349Y-109610187D01*
X191379005Y-109603536D01*
X191515544Y-109315335D01*
X191518375Y-109308295D01*
X191619306Y-109005767D01*
X191621270Y-108998433D01*
X191685122Y-108685989D01*
X191686194Y-108678465D01*
X191712173Y-108359051D01*
X191712378Y-108354576D01*
X191712927Y-108302221D01*
X191712817Y-108297789D01*
X191693529Y-107977853D01*
X191692621Y-107970351D01*
X191635319Y-107656593D01*
X191633518Y-107649260D01*
X191538935Y-107344655D01*
X191536263Y-107337583D01*
X191405781Y-107046570D01*
X191402264Y-107039843D01*
X191237771Y-106766621D01*
X191233481Y-106760377D01*
X191097991Y-106586647D01*
X191086199Y-106578178D01*
X191074486Y-106584725D01*
X189372020Y-108287190D01*
X189364408Y-108301131D01*
X188634357Y-108301131D01*
X188635592Y-108298869D01*
X188635461Y-108297034D01*
X188631210Y-108290420D01*
X186926445Y-106585656D01*
X186913510Y-106578592D01*
X186902949Y-106586252D01*
X186782766Y-106737072D01*
X186778410Y-106743270D01*
X186611059Y-107014764D01*
X186607479Y-107021440D01*
X186473956Y-107311074D01*
X186471206Y-107318125D01*
X186373444Y-107621708D01*
X186371561Y-107629041D01*
X186310979Y-107942170D01*
X186309992Y-107949670D01*
X186287467Y-108267802D01*
X186287388Y-108275383D01*
X150911466Y-108275383D01*
X150893529Y-107977853D01*
X150892621Y-107970351D01*
X150835319Y-107656593D01*
X150833518Y-107649260D01*
X150738935Y-107344655D01*
X150736263Y-107337583D01*
X150605781Y-107046570D01*
X150602264Y-107039843D01*
X150437771Y-106766621D01*
X150433481Y-106760377D01*
X150297991Y-106586647D01*
X150286199Y-106578178D01*
X150274486Y-106584725D01*
X148572020Y-108287190D01*
X148564408Y-108301131D01*
X147834357Y-108301131D01*
X147835592Y-108298869D01*
X147835461Y-108297034D01*
X147831210Y-108290420D01*
X146126445Y-106585656D01*
X146113510Y-106578592D01*
X146102949Y-106586252D01*
X145982766Y-106737072D01*
X145978410Y-106743270D01*
X145811059Y-107014764D01*
X145807479Y-107021440D01*
X145673956Y-107311074D01*
X145671206Y-107318125D01*
X145573444Y-107621708D01*
X145571561Y-107629041D01*
X145510979Y-107942170D01*
X145509992Y-107949670D01*
X145487467Y-108267802D01*
X145487388Y-108275383D01*
X144902290Y-108275383D01*
X144914940Y-108033996D01*
X144914965Y-108033524D01*
X144919171Y-107958640D01*
X144920524Y-107945996D01*
X144930488Y-107883080D01*
X144953478Y-107737931D01*
X144953650Y-107736882D01*
X144975986Y-107605422D01*
X144978499Y-107593918D01*
X145003696Y-107499882D01*
X145030024Y-107401624D01*
X145030641Y-107399404D01*
X145048452Y-107337583D01*
X145070655Y-107260516D01*
X145074096Y-107250252D01*
X145143722Y-107068873D01*
X145144944Y-107065811D01*
X145202030Y-106927991D01*
X145206167Y-106919016D01*
X145293260Y-106748084D01*
X145295246Y-106744346D01*
X145368546Y-106611719D01*
X145373152Y-106604042D01*
X145476876Y-106444322D01*
X145479787Y-106440034D01*
X145568199Y-106315429D01*
X145573039Y-106309048D01*
X145650474Y-106213423D01*
X146477917Y-106213423D01*
X146484520Y-106225309D01*
X148187190Y-107927980D01*
X148201131Y-107935592D01*
X148202966Y-107935461D01*
X148209580Y-107931210D01*
X149914559Y-106226230D01*
X149921552Y-106213423D01*
X187277917Y-106213423D01*
X187284520Y-106225309D01*
X188987190Y-107927980D01*
X189001131Y-107935592D01*
X189002966Y-107935461D01*
X189009580Y-107931210D01*
X190714559Y-106226230D01*
X190721571Y-106213389D01*
X190713777Y-106202701D01*
X190551298Y-106074613D01*
X190545075Y-106070288D01*
X190272702Y-105904357D01*
X190266025Y-105900822D01*
X189975686Y-105768813D01*
X189968616Y-105766099D01*
X189664537Y-105669932D01*
X189657186Y-105668085D01*
X189343746Y-105609142D01*
X189336237Y-105608194D01*
X189017989Y-105587335D01*
X189010424Y-105587295D01*
X188691964Y-105604821D01*
X188684450Y-105605690D01*
X188370405Y-105661348D01*
X188363044Y-105663115D01*
X188057980Y-105756092D01*
X188050860Y-105758740D01*
X187759182Y-105887690D01*
X187752445Y-105891167D01*
X187478355Y-106054233D01*
X187472091Y-106058490D01*
X187286385Y-106201762D01*
X187277917Y-106213423D01*
X149921552Y-106213423D01*
X149921571Y-106213389D01*
X149913777Y-106202701D01*
X149751298Y-106074613D01*
X149745075Y-106070288D01*
X149472702Y-105904357D01*
X149466025Y-105900822D01*
X149175686Y-105768813D01*
X149168616Y-105766099D01*
X148864537Y-105669932D01*
X148857186Y-105668085D01*
X148543746Y-105609142D01*
X148536237Y-105608194D01*
X148217989Y-105587335D01*
X148210424Y-105587295D01*
X147891964Y-105604821D01*
X147884450Y-105605690D01*
X147570405Y-105661348D01*
X147563044Y-105663115D01*
X147257980Y-105756092D01*
X147250860Y-105758740D01*
X146959182Y-105887690D01*
X146952445Y-105891167D01*
X146678355Y-106054233D01*
X146672091Y-106058490D01*
X146486385Y-106201762D01*
X146477917Y-106213423D01*
X145650474Y-106213423D01*
X145692453Y-106161583D01*
X145696413Y-106156929D01*
X145798598Y-106042584D01*
X145803453Y-106037450D01*
X145937450Y-105903453D01*
X145942585Y-105898597D01*
X145954790Y-105887690D01*
X146056929Y-105796413D01*
X146061572Y-105792463D01*
X146209048Y-105673039D01*
X146215429Y-105668199D01*
X146340034Y-105579787D01*
X146344322Y-105576876D01*
X146504042Y-105473152D01*
X146511719Y-105468546D01*
X146644346Y-105395246D01*
X146648091Y-105393257D01*
X146819016Y-105306167D01*
X146827991Y-105302030D01*
X146965811Y-105244944D01*
X146968873Y-105243722D01*
X147071962Y-105204149D01*
X147150262Y-105174093D01*
X147160516Y-105170655D01*
X147299453Y-105130627D01*
X147301623Y-105130024D01*
X147399882Y-105103696D01*
X147493918Y-105078499D01*
X147505422Y-105075986D01*
X147529930Y-105071822D01*
X147636882Y-105053650D01*
X147637931Y-105053478D01*
X147783080Y-105030488D01*
X147845996Y-105020524D01*
X147858640Y-105019171D01*
X147917198Y-105015882D01*
X147933457Y-105014969D01*
X148196694Y-105001173D01*
X148203289Y-105001000D01*
X188996711Y-105001000D01*
X189003306Y-105001173D01*
G37*
G04 #@! TD.AperFunction*
M02*
