G04 #@! TF.GenerationSoftware,KiCad,Pcbnew,(6.0.5-0)*
G04 #@! TF.CreationDate,2022-11-14T20:13:07-05:00*
G04 #@! TF.ProjectId,switchable-rf-attenuator,73776974-6368-4616-926c-652d72662d61,rev?*
G04 #@! TF.SameCoordinates,Original*
G04 #@! TF.FileFunction,Copper,L1,Top*
G04 #@! TF.FilePolarity,Positive*
%FSLAX46Y46*%
G04 Gerber Fmt 4.6, Leading zero omitted, Abs format (unit mm)*
G04 Created by KiCad (PCBNEW (6.0.5-0)) date 2022-11-14 20:13:07*
%MOMM*%
%LPD*%
G01*
G04 APERTURE LIST*
G04 Aperture macros list*
%AMRoundRect*
0 Rectangle with rounded corners*
0 $1 Rounding radius*
0 $2 $3 $4 $5 $6 $7 $8 $9 X,Y pos of 4 corners*
0 Add a 4 corners polygon primitive as box body*
4,1,4,$2,$3,$4,$5,$6,$7,$8,$9,$2,$3,0*
0 Add four circle primitives for the rounded corners*
1,1,$1+$1,$2,$3*
1,1,$1+$1,$4,$5*
1,1,$1+$1,$6,$7*
1,1,$1+$1,$8,$9*
0 Add four rect primitives between the rounded corners*
20,1,$1+$1,$2,$3,$4,$5,0*
20,1,$1+$1,$4,$5,$6,$7,0*
20,1,$1+$1,$6,$7,$8,$9,0*
20,1,$1+$1,$8,$9,$2,$3,0*%
G04 Aperture macros list end*
G04 #@! TA.AperFunction,SMDPad,CuDef*
%ADD10RoundRect,0.250000X-0.450000X0.262500X-0.450000X-0.262500X0.450000X-0.262500X0.450000X0.262500X0*%
G04 #@! TD*
G04 #@! TA.AperFunction,SMDPad,CuDef*
%ADD11R,0.650000X0.400000*%
G04 #@! TD*
G04 #@! TA.AperFunction,ComponentPad*
%ADD12C,0.700000*%
G04 #@! TD*
G04 #@! TA.AperFunction,ComponentPad*
%ADD13C,4.400000*%
G04 #@! TD*
G04 #@! TA.AperFunction,SMDPad,CuDef*
%ADD14R,4.190000X1.780000*%
G04 #@! TD*
G04 #@! TA.AperFunction,SMDPad,CuDef*
%ADD15R,4.190000X2.665000*%
G04 #@! TD*
G04 #@! TA.AperFunction,ComponentPad*
%ADD16C,0.970000*%
G04 #@! TD*
G04 #@! TA.AperFunction,SMDPad,CuDef*
%ADD17R,0.890000X0.460000*%
G04 #@! TD*
G04 #@! TA.AperFunction,SMDPad,CuDef*
%ADD18RoundRect,0.250000X0.250000X0.475000X-0.250000X0.475000X-0.250000X-0.475000X0.250000X-0.475000X0*%
G04 #@! TD*
G04 #@! TA.AperFunction,SMDPad,CuDef*
%ADD19RoundRect,0.250000X-0.250000X-0.475000X0.250000X-0.475000X0.250000X0.475000X-0.250000X0.475000X0*%
G04 #@! TD*
G04 #@! TA.AperFunction,SMDPad,CuDef*
%ADD20RoundRect,0.147500X0.172500X-0.147500X0.172500X0.147500X-0.172500X0.147500X-0.172500X-0.147500X0*%
G04 #@! TD*
G04 #@! TA.AperFunction,SMDPad,CuDef*
%ADD21RoundRect,0.250000X-0.262500X-0.450000X0.262500X-0.450000X0.262500X0.450000X-0.262500X0.450000X0*%
G04 #@! TD*
G04 #@! TA.AperFunction,ViaPad*
%ADD22C,0.800000*%
G04 #@! TD*
G04 #@! TA.AperFunction,Conductor*
%ADD23C,0.200000*%
G04 #@! TD*
G04 #@! TA.AperFunction,Conductor*
%ADD24C,0.293370*%
G04 #@! TD*
G04 #@! TA.AperFunction,Conductor*
%ADD25C,0.640000*%
G04 #@! TD*
G04 APERTURE END LIST*
D10*
X166300000Y-113175000D03*
X166300000Y-115000000D03*
D11*
X179050000Y-117350000D03*
X179050000Y-118000000D03*
X179050000Y-118650000D03*
X180950000Y-118650000D03*
X180950000Y-118000000D03*
X180950000Y-117350000D03*
D12*
X187350000Y-108300000D03*
X190166726Y-109466726D03*
X189000000Y-109950000D03*
X190650000Y-108300000D03*
X190166726Y-107133274D03*
X187833274Y-109466726D03*
D13*
X189000000Y-108300000D03*
D12*
X187833274Y-107133274D03*
X189000000Y-106650000D03*
D14*
X147800000Y-118000000D03*
D15*
X147800000Y-121492500D03*
D16*
X150785000Y-114507500D03*
X150785000Y-121492500D03*
D15*
X147800000Y-114507500D03*
D17*
X150340000Y-114507500D03*
X150340000Y-121492500D03*
D18*
X155550000Y-118000000D03*
X153650000Y-118000000D03*
D12*
X149316726Y-132033274D03*
X148150000Y-131550000D03*
X148150000Y-134850000D03*
X149316726Y-134366726D03*
X146500000Y-133200000D03*
X146983274Y-134366726D03*
X146983274Y-132033274D03*
X149800000Y-133200000D03*
D13*
X148200000Y-133200000D03*
D19*
X168050000Y-121000000D03*
X169950000Y-121000000D03*
D14*
X190200000Y-118000000D03*
D15*
X190200000Y-121492500D03*
D16*
X187215000Y-114507500D03*
X187215000Y-121492500D03*
D17*
X187660000Y-121492500D03*
D15*
X190200000Y-114507500D03*
D17*
X187660000Y-114507500D03*
D20*
X185650000Y-118970000D03*
X185650000Y-118000000D03*
D19*
X162630000Y-115000000D03*
X164530000Y-115000000D03*
X173470000Y-115000000D03*
X175370000Y-115000000D03*
D11*
X158950000Y-118650000D03*
X158950000Y-118000000D03*
X158950000Y-117350000D03*
X157050000Y-117350000D03*
X157050000Y-118000000D03*
X157050000Y-118650000D03*
D19*
X182450000Y-118000000D03*
X184350000Y-118000000D03*
D21*
X168087500Y-115000000D03*
X169912500Y-115000000D03*
D12*
X149366726Y-109466726D03*
X147033274Y-107133274D03*
X146550000Y-108300000D03*
X147033274Y-109466726D03*
D13*
X148200000Y-108300000D03*
D12*
X149366726Y-107133274D03*
X149850000Y-108300000D03*
X148200000Y-106650000D03*
X148200000Y-109950000D03*
D10*
X171700000Y-113175000D03*
X171700000Y-115000000D03*
D20*
X152330000Y-118970000D03*
X152330000Y-118000000D03*
D12*
X187833274Y-134366726D03*
X190166726Y-132033274D03*
X190650000Y-133200000D03*
D13*
X189000000Y-133200000D03*
D12*
X189000000Y-134850000D03*
X189000000Y-131550000D03*
X187350000Y-133200000D03*
X190166726Y-134366726D03*
X187833274Y-132033274D03*
D22*
X180950000Y-119460000D03*
X157050000Y-119460000D03*
X157050000Y-116540000D03*
X180950000Y-116540000D03*
X190200000Y-114500000D03*
X166000000Y-118000000D03*
X184000000Y-127000000D03*
X178000000Y-113000000D03*
X175000000Y-124000000D03*
X188800000Y-114500000D03*
X191000000Y-112000000D03*
X156000000Y-134000000D03*
X156000000Y-113000000D03*
X191600000Y-114500000D03*
X169000000Y-124000000D03*
X188800000Y-121500000D03*
X155000000Y-121000000D03*
X166300000Y-112060000D03*
X180000000Y-115000000D03*
X175000000Y-118000000D03*
X149000000Y-112000000D03*
X189000000Y-112000000D03*
X185000000Y-110000000D03*
X156000000Y-107000000D03*
X146400000Y-114500000D03*
X151000000Y-112000000D03*
X191000000Y-124000000D03*
X163000000Y-124000000D03*
X178000000Y-123000000D03*
X183000000Y-121000000D03*
X152000000Y-130000000D03*
X182000000Y-107000000D03*
X149200000Y-121500000D03*
X188000000Y-127000000D03*
X182000000Y-110000000D03*
X171700000Y-112060000D03*
X169000000Y-112000000D03*
X158000000Y-121000000D03*
X178000000Y-118000000D03*
X169000000Y-118000000D03*
X187000000Y-112000000D03*
X184000000Y-134000000D03*
X183000000Y-115000000D03*
X147000000Y-124000000D03*
X152000000Y-134000000D03*
X153000000Y-113000000D03*
X156000000Y-130000000D03*
X148000000Y-127000000D03*
X185000000Y-115000000D03*
X153500000Y-125500000D03*
X189000000Y-124000000D03*
X180000000Y-121000000D03*
X163000000Y-112000000D03*
X163000000Y-118000000D03*
X147000000Y-112000000D03*
X153000000Y-115000000D03*
X191600000Y-121500000D03*
X153000000Y-123000000D03*
X153000000Y-121000000D03*
X182000000Y-113000000D03*
X155000000Y-115000000D03*
X184000000Y-130000000D03*
X187000000Y-124000000D03*
X166000000Y-124000000D03*
X151000000Y-124000000D03*
X152000000Y-127000000D03*
X185000000Y-123000000D03*
X159950000Y-118000000D03*
X156000000Y-110000000D03*
X172000000Y-118000000D03*
X172000000Y-124000000D03*
X190200000Y-121500000D03*
X175000000Y-112000000D03*
X160000000Y-123000000D03*
X160000000Y-113000000D03*
X146400000Y-121500000D03*
X147800000Y-114500000D03*
X185000000Y-121000000D03*
X149000000Y-124000000D03*
X149200000Y-114500000D03*
X158000000Y-115000000D03*
X185000000Y-113000000D03*
X147800000Y-121500000D03*
D23*
X180950000Y-118650000D02*
X180950000Y-119460000D01*
X157050000Y-118650000D02*
X157050000Y-119460000D01*
X157050000Y-117350000D02*
X157050000Y-116540000D01*
X180950000Y-117350000D02*
X180950000Y-116540000D01*
D24*
X155550000Y-118000000D02*
X157050000Y-118000000D01*
X180950000Y-118000000D02*
X182450000Y-118000000D01*
X160000000Y-115000000D02*
X162050000Y-115000000D01*
X158950000Y-116050000D02*
X160000000Y-115000000D01*
X158950000Y-117350000D02*
X158950000Y-116050000D01*
X175370000Y-115000000D02*
X178000000Y-115000000D01*
X179050000Y-116050000D02*
X179050000Y-117350000D01*
X178000000Y-115000000D02*
X179050000Y-116050000D01*
X179000000Y-118000000D02*
X178000000Y-118000000D01*
X171700000Y-113175000D02*
X171700000Y-112060000D01*
X166300000Y-113175000D02*
X166300000Y-112060000D01*
D25*
X185650000Y-119927500D02*
X187215000Y-121492500D01*
X152330000Y-119947500D02*
X150785000Y-121492500D01*
X152330000Y-118970000D02*
X152330000Y-119947500D01*
D24*
X158950000Y-118000000D02*
X159950000Y-118000000D01*
D25*
X185650000Y-118970000D02*
X185650000Y-119927500D01*
D24*
X168087500Y-115000000D02*
X164530000Y-115000000D01*
X169912500Y-115000000D02*
X173470000Y-115000000D01*
X168050000Y-121000000D02*
X160000000Y-121000000D01*
X158950000Y-119950000D02*
X158950000Y-118650000D01*
X160000000Y-121000000D02*
X158950000Y-119950000D01*
X179050000Y-119950000D02*
X178000000Y-121000000D01*
X178000000Y-121000000D02*
X169950000Y-121000000D01*
X179050000Y-118650000D02*
X179050000Y-119950000D01*
X190200000Y-118000000D02*
X185650000Y-118000000D01*
X184350000Y-118000000D02*
X185650000Y-118000000D01*
X152330000Y-118000000D02*
X147800000Y-118000000D01*
X152330000Y-118000000D02*
X153650000Y-118000000D01*
M02*
