<?xml version="1.0" standalone="no"?>
<!DOCTYPE svg PUBLIC "-//W3C//DTD SVG 1.1//EN" "http://www.w3.org/Graphics/SVG/1.1/DTD/svg11.dtd">
<svg width="10mm" height="4mm" viewBox="-5 -2 10 4" xmlns="http://www.w3.org/2000/svg" version="1.1">
<title>OpenSCAD Model</title>
<path d="
M 4.53911,1.49692 L 4.57724,1.48776 L 4.61349,1.47275 L 4.64694,1.45224 L 4.67677,1.42677 L 4.70224,1.39694
 L 4.72275,1.36349 L 4.73776,1.32724 L 4.74692,1.28911 L 4.75,1.25 L 4.75,-1.25 L 4.74692,-1.28911
 L 4.73776,-1.32724 L 4.72275,-1.36349 L 4.70224,-1.39694 L 4.67677,-1.42677 L 4.64694,-1.45224 L 4.61349,-1.47275
 L 4.57724,-1.48776 L 4.53911,-1.49692 L 4.5,-1.5 L -4.5,-1.5 L -4.53911,-1.49692 L -4.57724,-1.48776
 L -4.61349,-1.47275 L -4.64694,-1.45224 L -4.67677,-1.42677 L -4.70224,-1.39694 L -4.72275,-1.36349 L -4.73776,-1.32724
 L -4.74692,-1.28911 L -4.75,-1.25 L -4.75,1.25 L -4.74692,1.28911 L -4.73776,1.32724 L -4.72275,1.36349
 L -4.70224,1.39694 L -4.67677,1.42677 L -4.64694,1.45224 L -4.61349,1.47275 L -4.57724,1.48776 L -4.53911,1.49692
 L -4.5,1.5 L 4.5,1.5 z
M 0.897156,0.594559 L 0.85173,0.584549 L 0.810181,0.567886 L 0.772522,0.54454 L 0.738754,0.514542 L 0.708862,0.477859
 L 0.683258,0.435196 L 0.662308,0.387222 L 0.646011,0.333939 L 0.634369,0.27533 L 0.62738,0.211411 L 0.625046,0.142197
 L 0.627502,0.071991 L 0.634857,0.00733948 L 0.647125,-0.0517731 L 0.664291,-0.105347 L 0.686371,-0.153397 L 0.713348,-0.195892
 L 0.744827,-0.23233 L 0.780396,-0.262131 L 0.820053,-0.285309 L 0.8638,-0.301865 L 0.911636,-0.311798 L 0.963562,-0.315109
 L 0.994049,-0.314026 L 1.02312,-0.310776 L 1.05075,-0.305344 L 1.07695,-0.29776 L 1.10175,-0.287994 L 1.12511,-0.276062
 L 1.14688,-0.261978 L 1.16692,-0.245773 L 1.18521,-0.227432 L 1.20177,-0.206985 L 1.2166,-0.184402 L 1.22968,-0.159698
 L 1.23131,-0.159698 L 1.22968,-0.30455 L 1.22968,-0.625977 L 1.45833,-0.625977 L 1.45833,0.389572 L 1.45851,0.417511
 L 1.45906,0.447067 L 1.45996,0.478271 L 1.46123,0.511093 L 1.46286,0.545532 L 1.46484,0.581619 L 1.2435,0.581619
 L 1.24239,0.576523 L 1.2412,0.569366 L 1.23994,0.56015 L 1.23863,0.548889 L 1.23723,0.535568 L 1.23578,0.520172
 L 1.23441,0.504227 L 1.23329,0.489212 L 1.23242,0.475113 L 1.2318,0.461945 L 1.23143,0.449707 L 1.23131,0.4384
 L 1.22804,0.4384 L 1.19965,0.487137 L 1.16385,0.527008 L 1.12062,0.558014 L 1.06999,0.58017 L 1.01195,0.59346
 L 0.946487,0.597885 z
M 1.0723,0.439453 L 1.09901,0.432831 L 1.12347,0.421814 L 1.14568,0.406387 L 1.1656,0.386551 L 1.18327,0.36232
 L 1.19844,0.334 L 1.21086,0.301956 L 1.2205,0.26619 L 1.2274,0.226685 L 1.23154,0.183456 L 1.23293,0.136505
 L 1.2316,0.0908508 L 1.22763,0.0488434 L 1.22102,0.0104675 L 1.21176,-0.0242462 L 1.19986,-0.0553436 L 1.18532,-0.0827942
 L 1.1682,-0.106293 L 1.14856,-0.125519 L 1.12642,-0.140472 L 1.10178,-0.151154 L 1.07462,-0.157562 L 1.04495,-0.159698
 L 1.01561,-0.157623 L 0.988892,-0.151413 L 0.964798,-0.141083 L 0.943329,-0.126602 L 0.924469,-0.107986 L 0.908234,-0.0852356
 L 0.894562,-0.0582275 L 0.883377,-0.0268707 L 0.874664,0.00883484 L 0.868454,0.0489197 L 0.864716,0.0933685 L 0.86348,0.142197
 L 0.868469,0.233688 L 0.883453,0.308563 L 0.908432,0.366791 L 0.943405,0.408371 L 0.988373,0.433334 L 1.04332,0.44165
 z
M 3.08427,-0.457535 L 3.08427,-0.625977 L 3.31294,-0.625977 L 3.31294,-0.457535 z
M -3.76566,0.593582 L -3.84818,0.580658 L -3.92352,0.559128 L -3.99167,0.528992 L -4.05264,0.490234 L -4.10641,0.442871
 L -4.15242,0.387589 L -4.19005,0.325104 L -4.21931,0.255402 L -4.24023,0.178497 L -4.25278,0.0943756 L -4.25696,0.0030365
 L -4.25275,-0.0876617 L -4.24014,-0.171036 L -4.21912,-0.24707 L -4.18968,-0.31575 L -4.15184,-0.377075 L -4.10561,-0.431076
 L -4.05145,-0.477203 L -3.98994,-0.514938 L -3.92108,-0.544296 L -3.84483,-0.565262 L -3.76122,-0.577835 L -3.67024,-0.582031
 L -3.54385,-0.57373 L -3.43379,-0.548843 L -3.34006,-0.50737 L -3.26263,-0.449295 L -3.20154,-0.374634 L -3.15675,-0.283386
 L -3.3781,-0.21666 L -3.39116,-0.244507 L -3.40649,-0.270004 L -3.42407,-0.293152 L -3.44392,-0.313934 L -3.46603,-0.332382
 L -3.4904,-0.34848 L -3.51665,-0.362152 L -3.54439,-0.373337 L -3.57361,-0.38205 L -3.60432,-0.38826 L -3.63654,-0.391998
 L -3.67024,-0.393234 L -3.7244,-0.390381 L -3.77403,-0.381836 L -3.81915,-0.367599 L -3.85976,-0.347672 L -3.89583,-0.322037
 L -3.92738,-0.29071 L -3.95424,-0.254074 L -3.97621,-0.212494 L -3.9933,-0.166 L -4.00549,-0.114578 L -4.01282,-0.0582275
 L -4.01526,0.0030365 L -4.01274,0.0654144 L -4.00519,0.122879 L -3.99258,0.175446 L -3.97495,0.223114 L -3.95226,0.265869
 L -3.92453,0.303726 L -3.89224,0.336166 L -3.85587,0.362717 L -3.81538,0.383377 L -3.77083,0.398117 L -3.72217,0.406967
 L -3.66942,0.409927 L -3.63838,0.409164 L -3.60767,0.406891 L -3.57727,0.403107 L -3.54718,0.397797 L -3.51741,0.390991
 L -3.48796,0.38266 L -3.45978,0.373154 L -3.43379,0.362808 L -3.41003,0.351639 L -3.3885,0.339615 L -3.36917,0.326767
 L -3.35207,0.31308 L -3.35207,0.154388 L -3.63199,0.154388 L -3.63199,-0.022995 L -3.13235,-0.022995 L -3.13235,0.398514
 L -3.16426,0.428589 L -3.19922,0.45639 L -3.23723,0.481934 L -3.27829,0.505219 L -3.3224,0.526245 L -3.36957,0.544998
 L -3.41866,0.561157 L -3.46852,0.574387 L -3.5192,0.584671 L -3.57065,0.59201 L -3.62289,0.59642 L -3.67593,0.597885
 z
M 2.39207,0.581619 L 2.39207,-0.37941 L 2.02182,-0.37941 L 2.02182,-0.564941 L 3.0032,-0.564941 L 3.0032,-0.37941
 L 2.63214,-0.37941 L 2.63214,0.581619 z
M -2.94295,0.581619 L -2.94295,-0.0921478 L -2.94299,-0.115631 L -2.94318,-0.137772 L -2.94345,-0.158569 L -2.94385,-0.178055
 L -2.94437,-0.196182 L -2.94498,-0.212997 L -2.94566,-0.228836 L -2.94638,-0.244049 L -2.94711,-0.258667 L -2.94786,-0.272675
 L -2.94864,-0.286057 L -2.94945,-0.298843 L -2.73137,-0.298843 L -2.73051,-0.292297 L -2.72955,-0.28244 L -2.72852,-0.269241
 L -2.72739,-0.252731 L -2.72617,-0.232895 L -2.72485,-0.209747 L -2.72362,-0.18631 L -2.7226,-0.165665 L -2.7218,-0.147797
 L -2.72124,-0.132706 L -2.7209,-0.120392 L -2.72078,-0.11087 L -2.71753,-0.11087 L -2.70662,-0.140259 L -2.69611,-0.166611
 L -2.68599,-0.189896 L -2.6763,-0.210144 L -2.66701,-0.227341 L -2.65813,-0.24147 L -2.64917,-0.25354 L -2.63968,-0.264526
 L -2.62964,-0.274429 L -2.61906,-0.283249 L -2.60794,-0.29097 L -2.59628,-0.297623 L -2.58385,-0.303207 L -2.57042,-0.3078
 L -2.556,-0.311356 L -2.54059,-0.313904 L -2.52417,-0.31543 L -2.50676,-0.315933 L -2.4926,-0.315598 L -2.47937,-0.314575
 L -2.4671,-0.312881 L -2.45578,-0.310501 L -2.4454,-0.307449 L -2.43597,-0.303726 L -2.43597,-0.112488 L -2.45406,-0.116226
 L -2.47142,-0.119278 L -2.48805,-0.121643 L -2.50397,-0.123337 L -2.51915,-0.124359 L -2.53363,-0.124695 L -2.56105,-0.122772
 L -2.58638,-0.11702 L -2.6096,-0.107407 L -2.63072,-0.0939636 L -2.64975,-0.0766602 L -2.66667,-0.0555267 L -2.68121,-0.0306244
 L -2.69312,-0.0019989 L -2.70238,0.030304 L -2.70898,0.06633 L -2.71295,0.106079 L -2.71426,0.149521 L -2.71426,0.581619
 z
M -0.321136,0.581619 L -0.321136,-0.101929 L -0.321182,-0.124802 L -0.32135,-0.146271 L -0.32164,-0.166306 L -0.322037,-0.184921
 L -0.32254,-0.202103 L -0.323166,-0.217865 L -0.323853,-0.232666 L -0.325302,-0.260696 L -0.32605,-0.273926 L -0.326828,-0.286652
 L -0.327637,-0.298843 L -0.109558,-0.298843 L -0.108704,-0.292252 L -0.107742,-0.282791 L -0.106705,-0.270462 L -0.105576,-0.255264
 L -0.104355,-0.237198 L -0.103043,-0.216248 L -0.101807,-0.195038 L -0.100784,-0.176147 L -0.0999908,-0.159592 L -0.0994263,-0.145355
 L -0.0990906,-0.133453 L -0.0989685,-0.123886 L -0.0957184,-0.123886 L -0.0796051,-0.155975 L -0.0621796,-0.185013 L -0.0434418,-0.210953
 L -0.0233917,-0.233826 L -0.00202942,-0.253632 L 0.0206299,-0.270355 L 0.044693,-0.284286 L 0.0702667,-0.29567 L 0.0973206,-0.304535
 L 0.12587,-0.310867 L 0.155914,-0.314667 L 0.187454,-0.315933 L 0.2323,-0.313538 L 0.273529,-0.306351 L 0.311142,-0.294373
 L 0.345139,-0.277588 L 0.375519,-0.256027 L 0.402267,-0.229675 L 0.425156,-0.198715 L 0.443863,-0.163315 L 0.45842,-0.123474
 L 0.468826,-0.0792236 L 0.475067,-0.0305328 L 0.477142,0.0225677 L 0.477142,0.581619 L 0.249298,0.581619 L 0.249298,0.087677
 L 0.244934,0.0168152 L 0.231842,-0.041153 L 0.210037,-0.0862579 L 0.179489,-0.118469 L 0.140228,-0.137787 L 0.0922394,-0.144241
 L 0.0654602,-0.142258 L 0.0404816,-0.136322 L 0.0172729,-0.126434 L -0.00411987,-0.112595 L -0.0237579,-0.0947876 L -0.0415955,-0.0730286
 L -0.0571442,-0.048172 L -0.0698547,-0.0210876 L -0.0797424,0.00822449 L -0.0868073,0.0397949 L -0.0910492,0.0735931 L -0.092453,0.10965
 L -0.092453,0.581619 z
M -1.98672,0.594498 L -2.04796,0.58432 L -2.10428,0.567368 L -2.15565,0.54364 L -2.2021,0.513123 L -2.24362,0.47583
 L -2.27943,0.432602 L -2.30873,0.384323 L -2.33151,0.330978 L -2.34779,0.272568 L -2.35756,0.209106 L -2.36081,0.140564
 L -2.35756,0.0722961 L -2.34779,0.00906372 L -2.33151,-0.049118 L -2.30873,-0.10228 L -2.27943,-0.150391 L -2.24362,-0.193466
 L -2.20197,-0.230637 L -2.15511,-0.261047 L -2.10306,-0.284698 L -2.04579,-0.301605 L -1.98335,-0.311737 L -1.9157,-0.315109
 L -1.84665,-0.311844 L -1.78328,-0.302048 L -1.72557,-0.285721 L -1.67355,-0.262848 L -1.62721,-0.233459 L -1.58653,-0.197525
 L -1.55185,-0.155472 L -1.52347,-0.107697 L -1.50139,-0.0542145 L -1.48563,0.00498962 L -1.47617,0.0699158 L -1.47301,0.140564
 L -1.47632,0.209335 L -1.48622,0.27298 L -1.50272,0.331482 L -1.52582,0.384872 L -1.55553,0.433121 L -1.59183,0.476227
 L -1.63396,0.513412 L -1.68115,0.543823 L -1.73341,0.567474 L -1.79073,0.584366 L -1.85312,0.594513 L -1.92056,0.597885
 z
M -1.85861,0.433289 L -1.80592,0.408203 L -1.76494,0.366379 L -1.73566,0.307831 L -1.71809,0.232559 L -1.71225,0.140564
 L -1.71367,0.0906067 L -1.71794,0.0454559 L -1.72507,0.00508118 L -1.73503,-0.0304871 L -1.74785,-0.0612793 L -1.76352,-0.087265
 L -1.78189,-0.108902 L -1.80286,-0.126602 L -1.82639,-0.140366 L -1.85249,-0.150208 L -1.88116,-0.156097 L -1.91243,-0.158066
 L -1.97607,-0.14978 L -2.02817,-0.124893 L -2.06866,-0.0834045 L -2.0976,-0.0253296 L -2.11496,0.0493164 L -2.12074,0.140564
 L -2.11934,0.187714 L -2.1151,0.230942 L -2.10803,0.270264 L -2.09814,0.305664 L -2.08543,0.337173 L -2.06989,0.364746
 L -2.05168,0.388245 L -2.03098,0.407471 L -2.00775,0.422424 L -1.98201,0.433105 L -1.95377,0.439514 L -1.92302,0.44165
 z
M 3.83334,0.59462 L 3.77483,0.584824 L 3.72141,0.568497 L 3.6731,0.545624 L 3.6299,0.516235 L 3.59181,0.480301
 L 3.55923,0.43811 L 3.53259,0.389923 L 3.51187,0.335754 L 3.49706,0.275604 L 3.48817,0.209442 L 3.48521,0.137299
 L 3.48822,0.0674133 L 3.49724,0.00312805 L 3.51227,-0.0555267 L 3.53331,-0.108612 L 3.56038,-0.156067 L 3.59344,-0.197937
 L 3.63203,-0.233734 L 3.67563,-0.263031 L 3.72426,-0.285828 L 3.77789,-0.302094 L 3.83655,-0.311859 L 3.90022,-0.315109
 L 3.96094,-0.31163 L 4.01668,-0.301147 L 4.06746,-0.283691 L 4.11325,-0.259232 L 4.15408,-0.227814 L 4.18993,-0.189392
 L 4.2205,-0.144241 L 4.24553,-0.0926056 L 4.265,-0.0344696 L 4.2789,0.0301208 L 4.28725,0.101227 L 4.29002,0.178818
 L 4.29002,0.185318 L 3.72528,0.185318 L 3.72659,0.226425 L 3.73056,0.264023 L 3.73718,0.298126 L 3.74643,0.32872
 L 3.75833,0.35582 L 3.77287,0.37941 L 3.78987,0.399414 L 3.8091,0.415787 L 3.83055,0.428528 L 3.85425,0.437622
 L 3.88019,0.443085 L 3.90837,0.444901 L 3.9463,0.441986 L 3.97926,0.433243 L 4.00723,0.418655 L 4.03024,0.398254
 L 4.04828,0.372009 L 4.06134,0.339935 L 4.27699,0.358643 L 4.24045,0.431747 L 4.19318,0.491562 L 4.13519,0.538086
 L 4.0665,0.571304 L 3.98709,0.591248 L 3.89697,0.597885 z
M 4.06544,0.00804138 L 4.06009,-0.0230255 L 4.0526,-0.0511627 L 4.043,-0.0763245 L 4.03127,-0.0985413 L 4.01741,-0.117783
 L 4.00163,-0.134079 L 3.98413,-0.1474 L 3.96492,-0.157761 L 3.94398,-0.165161 L 3.92134,-0.169617 L 3.89697,-0.171097
 L 3.87115,-0.169525 L 3.84738,-0.164856 L 3.82567,-0.157059 L 3.80602,-0.146133 L 3.78842,-0.132095 L 3.77287,-0.114929
 L 3.75951,-0.0949707 L 3.74843,-0.072525 L 3.73961,-0.0475922 L 3.73309,-0.0201721 L 3.72885,0.00970459 L 3.7269,0.042099
 L 4.06868,0.042099 z
M -1.08351,0.595505 L -1.12474,0.588348 L -1.16235,0.576431 L -1.19635,0.559738 L -1.22673,0.538269 L -1.25349,0.512039
 L -1.27637,0.481201 L -1.29509,0.445908 L -1.30965,0.406158 L -1.32004,0.361954 L -1.32628,0.313293 L -1.32835,0.260193
 L -1.32835,-0.298843 L -1.09969,-0.298843 L -1.09969,0.195084 L -1.09535,0.265945 L -1.08232,0.323929 L -1.06062,0.369034
 L -1.03024,0.401245 L -0.99118,0.420563 L -0.943451,0.427002 L -0.916672,0.425034 L -0.891693,0.419098 L -0.868484,0.40921
 L -0.847076,0.395355 L -0.827438,0.377563 L -0.809601,0.355804 L -0.794052,0.330948 L -0.781342,0.303848 L -0.771454,0.274521
 L -0.764374,0.242966 L -0.760147,0.209152 L -0.758728,0.173111 L -0.758728,-0.298843 L -0.530075,-0.298843 L -0.530075,0.384689
 L -0.529892,0.421356 L -0.529343,0.456482 L -0.528442,0.490067 L -0.527176,0.522125 L -0.525543,0.552643 L -0.52356,0.581619
 L -0.741638,0.581619 L -0.744629,0.544205 L -0.74707,0.510101 L -0.748962,0.479294 L -0.75032,0.451782 L -0.751144,0.427567
 L -0.751404,0.406662 L -0.755478,0.406662 L -0.771362,0.438507 L -0.788605,0.467331 L -0.807251,0.493118 L -0.827271,0.515884
 L -0.848663,0.535614 L -0.871429,0.552322 L -0.89563,0.566254 L -0.921295,0.577637 L -0.948441,0.586502 L -0.977051,0.592819
 L -1.00713,0.596619 L -1.03867,0.597885 z
M 3.08427,0.581619 L 3.08427,-0.298843 L 3.31294,-0.298843 L 3.31294,0.581619 z
" stroke="black" fill="lightgray" stroke-width="0.5"/>
</svg>
