<?xml version="1.0" standalone="no"?>
<!DOCTYPE svg PUBLIC "-//W3C//DTD SVG 1.1//EN" "http://www.w3.org/Graphics/SVG/1.1/DTD/svg11.dtd">
<svg width="6mm" height="4mm" viewBox="-3 -2 6 4" xmlns="http://www.w3.org/2000/svg" version="1.1">
<title>OpenSCAD Model</title>
<path d="
M 2.53911,1.24692 L 2.57724,1.23776 L 2.61349,1.22275 L 2.64694,1.20224 L 2.67677,1.17677 L 2.70224,1.14694
 L 2.72275,1.11349 L 2.73776,1.07724 L 2.74692,1.03911 L 2.75,1 L 2.75,-1 L 2.74692,-1.03911
 L 2.73776,-1.07724 L 2.72275,-1.11349 L 2.70224,-1.14694 L 2.67677,-1.17677 L 2.64694,-1.20224 L 2.61349,-1.22275
 L 2.57724,-1.23776 L 2.53911,-1.24692 L 2.5,-1.25 L -2.5,-1.25 L -2.53911,-1.24692 L -2.57724,-1.23776
 L -2.61349,-1.22275 L -2.64694,-1.20224 L -2.67677,-1.17677 L -2.70224,-1.14694 L -2.72275,-1.11349 L -2.73776,-1.07724
 L -2.74692,-1.03911 L -2.75,-1 L -2.75,1 L -2.74692,1.03911 L -2.73776,1.07724 L -2.72275,1.11349
 L -2.70224,1.14694 L -2.67677,1.17677 L -2.64694,1.20224 L -2.61349,1.22275 L -2.57724,1.23776 L -2.53911,1.24692
 L -2.5,1.25 L 2.5,1.25 z
M -2.2925,0.689529 L -2.2925,-0.743683 L -1.5764,-0.743683 L -1.4942,-0.740616 L -1.41852,-0.731415 L -1.34932,-0.716095
 L -1.28662,-0.694626 L -1.23042,-0.667038 L -1.18073,-0.633316 L -1.13814,-0.593857 L -1.10329,-0.549057 L -1.07619,-0.498917
 L -1.05684,-0.443451 L -1.04523,-0.382629 L -1.04135,-0.316467 L -1.04373,-0.267426 L -1.05084,-0.220673 L -1.06271,-0.176208
 L -1.07933,-0.134033 L -1.10069,-0.094162 L -1.1268,-0.0565643 L -1.15695,-0.0221863 L -1.19043,0.00801086 L -1.22725,0.0340729
 L -1.2674,0.0559845 L -1.31088,0.0737457 L -1.3577,0.0873413 L -0.970154,0.689529 L -1.30786,0.689529 L -1.64049,0.145325
 L -1.99243,0.145325 L -1.99243,0.689529 z
M -1.55945,-0.0891724 L -1.52249,-0.0939178 L -1.48892,-0.101837 L -1.45874,-0.112915 L -1.43196,-0.127151 L -1.40857,-0.144547
 L -1.38867,-0.16481 L -1.37241,-0.187622 L -1.35974,-0.212967 L -1.35071,-0.240845 L -1.34528,-0.271286 L -1.34348,-0.30426
 L -1.35081,-0.367355 L -1.37285,-0.418976 L -1.40958,-0.459122 L -1.46101,-0.487808 L -1.52713,-0.505005 L -1.60793,-0.510742
 L -1.99243,-0.510742 L -1.99243,-0.0876007 L -1.59979,-0.0876007 z
M 1.43158,0.689529 L 1.43158,0.476929 L 1.78658,0.476929 L 1.78658,-0.50058 L 1.44278,-0.285934 L 1.44278,-0.510742
 L 1.80185,-0.743683 L 2.07242,-0.743683 L 2.07242,0.476929 L 2.40096,0.476929 L 2.40096,0.689529 z
M -0.44606,0.70578 L -0.519226,0.693527 L -0.585983,0.673111 L -0.646362,0.644531 L -0.700363,0.607788 L -0.747986,0.562881
 L -0.788696,0.510147 L -0.822006,0.449921 L -0.847916,0.382202 L -0.866425,0.306992 L -0.877518,0.224304 L -0.881226,0.13414
 L -0.877472,0.0467682 L -0.866196,-0.0335693 L -0.847397,-0.106918 L -0.821091,-0.173264 L -0.787277,-0.23259 L -0.745941,-0.284927
 L -0.697708,-0.329681 L -0.643204,-0.366302 L -0.582428,-0.394775 L -0.515381,-0.415115 L -0.442062,-0.427322 L -0.362457,-0.431396
 L -0.286575,-0.427032 L -0.216888,-0.41394 L -0.153427,-0.392105 L -0.0961761,-0.361557 L -0.0451508,-0.322266 L -0.000335693,-0.274246
 L 0.0378723,-0.217804 L 0.0691528,-0.153259 L 0.0934906,-0.0805969 L 0.11087,0.000152588 L 0.121292,0.089035 L 0.124771,0.18602
 L 0.124771,0.194153 L -0.581146,0.194153 L -0.579498,0.245529 L -0.574539,0.292542 L -0.566269,0.335159 L -0.554703,0.373413
 L -0.539825,0.407272 L -0.521652,0.436752 L -0.500412,0.461777 L -0.476379,0.482239 L -0.449554,0.498154 L -0.419922,0.509537
 L -0.387497,0.516357 L -0.35228,0.518631 L -0.304871,0.514984 L -0.263672,0.504044 L -0.228699,0.485825 L -0.199936,0.460312
 L -0.177383,0.427521 L -0.161057,0.387421 L 0.10849,0.410812 L 0.0628052,0.502182 L 0.00370789,0.57695 L -0.0687408,0.635101
 L -0.154617,0.676636 L -0.253876,0.701553 L -0.366531,0.709869 z
M -0.155945,-0.02742 L -0.162643,-0.0662842 L -0.171997,-0.101456 L -0.184006,-0.132919 L -0.198669,-0.160675 L -0.215988,-0.184738
 L -0.235703,-0.205093 L -0.257584,-0.221756 L -0.281586,-0.234711 L -0.307755,-0.243958 L -0.336075,-0.249512 L -0.366531,-0.251373
 L -0.398804,-0.24942 L -0.428513,-0.243561 L -0.455658,-0.23381 L -0.480225,-0.220169 L -0.502213,-0.202621 L -0.521652,-0.181168
 L -0.538361,-0.156219 L -0.552216,-0.128159 L -0.563232,-0.0970001 L -0.571381,-0.0627289 L -0.576675,-0.0253448 L -0.579132,0.0151215
 L -0.151901,0.0151215 z
M 0.570663,0.689529 L 0.177017,-0.411057 L 0.479126,-0.411057 L 0.671356,0.204315 L 0.677612,0.22551 L 0.686172,0.255188
 L 0.697052,0.293335 L 0.710251,0.339951 L 0.725754,0.39505 L 0.743591,0.458633 L 0.747574,0.442978 L 0.752731,0.423813
 L 0.759094,0.401154 L 0.766632,0.374985 L 0.77536,0.345322 L 0.785278,0.312149 L 0.800552,0.262955 L 0.825302,0.185226
 L 0.859543,0.0789642 L 0.90329,-0.0558319 L 0.956512,-0.219177 L 1.01924,-0.411057 L 1.3183,-0.411057 L 0.912445,0.689529
 z
" stroke="black" fill="lightgray" stroke-width="0.5"/>
</svg>
