<?xml version="1.0" standalone="no"?>
<!DOCTYPE svg PUBLIC "-//W3C//DTD SVG 1.1//EN" "http://www.w3.org/Graphics/SVG/1.1/DTD/svg11.dtd">
<svg width="22mm" height="6mm" viewBox="-11 -3 22 6" xmlns="http://www.w3.org/2000/svg" version="1.1">
<title>OpenSCAD Model</title>
<path d="
M 10.0391,2.74692 L 10.0772,2.73776 L 10.1135,2.72275 L 10.1469,2.70224 L 10.1768,2.67677 L 10.2022,2.64694
 L 10.2227,2.61349 L 10.2378,2.57724 L 10.2469,2.53911 L 10.25,2.5 L 10.25,-2.5 L 10.2469,-2.53911
 L 10.2378,-2.57724 L 10.2227,-2.61349 L 10.2022,-2.64694 L 10.1768,-2.67677 L 10.1469,-2.70224 L 10.1135,-2.72275
 L 10.0772,-2.73776 L 10.0391,-2.74692 L 10,-2.75 L -10,-2.75 L -10.0391,-2.74692 L -10.0772,-2.73776
 L -10.1135,-2.72275 L -10.1469,-2.70224 L -10.1768,-2.67677 L -10.2022,-2.64694 L -10.2227,-2.61349 L -10.2378,-2.57724
 L -10.2469,-2.53911 L -10.25,-2.5 L -10.25,2.5 L -10.2469,2.53911 L -10.2378,2.57724 L -10.2227,2.61349
 L -10.2022,2.64694 L -10.1768,2.67677 L -10.1469,2.70224 L -10.1135,2.72275 L -10.0772,2.73776 L -10.0391,2.74692
 L -10,2.75 L 10,2.75 z
M -0.117233,-0.818375 L -0.117233,-2.02597 L 0.11145,-2.02597 L 0.11145,-0.818375 z
M -0.646347,-0.803238 L -0.675446,-0.806625 L -0.703125,-0.812271 L -0.729416,-0.82019 L -0.754303,-0.830353 L -0.777802,-0.842789
 L -0.799698,-0.857346 L -0.819839,-0.873886 L -0.838211,-0.892426 L -0.854828,-0.912949 L -0.869675,-0.935455 L -0.882767,-0.959961
 L -0.884399,-0.959961 L -0.884491,-0.94989 L -0.884796,-0.938629 L -0.885315,-0.926193 L -0.886017,-0.912582 L -0.886932,-0.897812
 L -0.888046,-0.881851 L -0.889282,-0.866287 L -0.890533,-0.852737 L -0.891815,-0.841156 L -0.893112,-0.831573 L -0.89444,-0.82399
 L -0.895782,-0.818375 L -1.11794,-0.818375 L -1.11595,-0.844986 L -1.11432,-0.874344 L -1.11305,-0.906464 L -1.11215,-0.941345
 L -1.11162,-0.978989 L -1.11143,-1.01938 L -1.11143,-2.02597 L -0.882767,-2.02597 L -0.882767,-1.68907 L -0.886032,-1.54585
 L -0.882767,-1.54585 L -0.85347,-1.59756 L -0.817123,-1.63988 L -0.773712,-1.67279 L -0.723267,-1.6963 L -0.665756,-1.7104
 L -0.601212,-1.7151 L -0.551147,-1.71182 L -0.505142,-1.70195 L -0.463181,-1.6855 L -0.425262,-1.66249 L -0.391388,-1.63289
 L -0.361572,-1.59671 L -0.336075,-1.55452 L -0.315231,-1.50688 L -0.299011,-1.4538 L -0.287415,-1.39528 L -0.280472,-1.3313
 L -0.278152,-1.26187 L -0.280579,-1.19188 L -0.287872,-1.12729 L -0.300018,-1.0681 L -0.317032,-1.01431 L -0.338898,-0.965927
 L -0.365631,-0.922943 L -0.396881,-0.886017 L -0.432312,-0.855804 L -0.471924,-0.832321 L -0.515717,-0.815536 L -0.56369,-0.805466
 L -0.61586,-0.802109 z
M -0.642593,-0.966782 L -0.597229,-0.992065 L -0.561951,-1.03423 L -0.536743,-1.09325 L -0.521622,-1.16913 L -0.516586,-1.26187
 L -0.517807,-1.30963 L -0.521469,-1.3531 L -0.527573,-1.39227 L -0.536118,-1.42714 L -0.547104,-1.45772 L -0.560532,-1.48401
 L -0.576508,-1.50613 L -0.595154,-1.52425 L -0.61647,-1.53833 L -0.640457,-1.54839 L -0.667099,-1.55443 L -0.696411,-1.55643
 L -0.726105,-1.55428 L -0.753326,-1.54781 L -0.778091,-1.537 L -0.8004,-1.5219 L -0.820236,-1.50247 L -0.837601,-1.47871
 L -0.852402,-1.45091 L -0.864502,-1.41927 L -0.873917,-1.38383 L -0.880646,-1.34456 L -0.884674,-1.30147 L -0.886032,-1.25455
 L -0.884705,-1.20961 L -0.880737,-1.16811 L -0.87413,-1.13005 L -0.864868,-1.09541 L -0.852966,-1.06422 L -0.838425,-1.03647
 L -0.821304,-1.01259 L -0.801666,-0.993057 L -0.779526,-0.977875 L -0.754868,-0.967026 L -0.727707,-0.96051 L -0.698044,-0.958344
 z
M -4.91023,-1.85753 L -4.91023,-2.02597 L -4.68156,-2.02597 L -4.68156,-1.85753 z
M -3.01083,-0.818375 L -3.01083,-2.02597 L -2.78217,-2.02597 L -2.78217,-1.6964 L -2.78233,-1.66695 L -2.78288,-1.63773
 L -2.78378,-1.60872 L -2.78505,-1.57994 L -2.78668,-1.55139 L -2.78868,-1.52307 L -2.78542,-1.52307 L -2.7693,-1.55518
 L -2.75188,-1.58418 L -2.73314,-1.61014 L -2.71309,-1.63301 L -2.69173,-1.6528 L -2.66905,-1.66954 L -2.64499,-1.68346
 L -2.61942,-1.69485 L -2.59236,-1.70372 L -2.56381,-1.71005 L -2.53377,-1.71384 L -2.50223,-1.7151 L -2.45738,-1.71271
 L -2.41615,-1.70552 L -2.37854,-1.69354 L -2.34454,-1.67677 L -2.31418,-1.65521 L -2.28741,-1.62886 L -2.26454,-1.59789
 L -2.24582,-1.56248 L -2.23126,-1.52266 L -2.22086,-1.47839 L -2.21463,-1.4297 L -2.21254,-1.3766 L -2.21254,-0.818375
 L -2.44038,-0.818375 L -2.44038,-1.31151 L -2.44475,-1.38237 L -2.45784,-1.44034 L -2.47964,-1.48543 L -2.51019,-1.51764
 L -2.54945,-1.53697 L -2.59744,-1.54341 L -2.62422,-1.54144 L -2.6492,-1.53551 L -2.67241,-1.5256 L -2.69383,-1.51176
 L -2.71346,-1.49396 L -2.73131,-1.4722 L -2.74684,-1.44736 L -2.75955,-1.42026 L -2.76944,-1.39095 L -2.7765,-1.35939
 L -2.78075,-1.32558 L -2.78217,-1.28954 L -2.78217,-0.818375 z
M -6.89409,-0.804276 L -6.95966,-0.810791 L -7.01994,-0.82164 L -7.07494,-0.836823 L -7.12465,-0.856354 L -7.16905,-0.880219
 L -7.20834,-0.908508 L -7.24266,-0.941254 L -7.272,-0.978485 L -7.29637,-1.02019 L -7.31577,-1.06636 L -7.33018,-1.11702
 L -7.09827,-1.15526 L -7.08916,-1.12628 L -7.07756,-1.10007 L -7.06348,-1.07663 L -7.04691,-1.05598 L -7.02786,-1.03812
 L -7.00632,-1.02303 L -6.98206,-1.01047 L -6.95486,-1.0002 L -6.92473,-0.992203 L -6.89166,-0.986496 L -6.85565,-0.983078
 L -6.8167,-0.981934 L -6.73987,-0.986191 L -6.67702,-0.998932 L -6.62811,-1.02019 L -6.5932,-1.04993 L -6.57224,-1.08818
 L -6.56526,-1.13492 L -6.56606,-1.15073 L -6.56847,-1.16557 L -6.57248,-1.17947 L -6.57809,-1.19243 L -6.58533,-1.20442
 L -6.59415,-1.21548 L -6.60443,-1.22577 L -6.61603,-1.23546 L -6.62894,-1.24457 L -6.64316,-1.2531 L -6.65868,-1.26103
 L -6.67552,-1.26837 L -6.69569,-1.27568 L -6.72122,-1.28348 L -6.75212,-1.29178 L -6.78836,-1.30057 L -6.82996,-1.30986
 L -6.87692,-1.31966 L -6.9176,-1.32936 L -6.95396,-1.33841 L -6.98596,-1.3468 L -7.01364,-1.35455 L -7.03697,-1.36163
 L -7.05595,-1.36806 L -7.07251,-1.37434 L -7.0885,-1.381 L -7.10397,-1.388 L -7.11888,-1.39537 L -7.13327,-1.40308
 L -7.14709,-1.41118 L -7.16032,-1.41974 L -7.17287,-1.42885 L -7.18474,-1.43854 L -7.19592,-1.44879 L -7.20644,-1.45961
 L -7.21626,-1.47099 L -7.2254,-1.483 L -7.23386,-1.49568 L -7.24159,-1.50903 L -7.24863,-1.52307 L -7.25497,-1.53778
 L -7.2606,-1.55318 L -7.26546,-1.56929 L -7.26942,-1.58618 L -7.27251,-1.60384 L -7.2747,-1.62225 L -7.27603,-1.64145
 L -7.27647,-1.66141 L -7.27322,-1.7112 L -7.2635,-1.75693 L -7.24728,-1.79863 L -7.22458,-1.83627 L -7.19537,-1.86987
 L -7.1597,-1.89943 L -7.11783,-1.92467 L -7.07005,-1.94531 L -7.01637,-1.96138 L -6.9568,-1.97285 L -6.89134,-1.97974
 L -6.81996,-1.98203 L -6.75185,-1.98018 L -6.68964,-1.97461 L -6.63332,-1.96535 L -6.5829,-1.95236 L -6.53838,-1.93568
 L -6.49976,-1.9153 L -6.4662,-1.89064 L -6.43687,-1.86113 L -6.41177,-1.8268 L -6.39088,-1.78763 L -6.37424,-1.74362
 L -6.36182,-1.69476 L -6.59456,-1.66302 L -6.60155,-1.68669 L -6.6106,-1.70833 L -6.62172,-1.72792 L -6.63487,-1.74548
 L -6.6501,-1.76102 L -6.66739,-1.77451 L -6.68701,-1.78595 L -6.70929,-1.7953 L -6.73421,-1.80258 L -6.76178,-1.80779
 L -6.79199,-1.81091 L -6.82484,-1.81195 L -6.89148,-1.80815 L -6.946,-1.79675 L -6.9884,-1.77777 L -7.01869,-1.75119
 L -7.03687,-1.71701 L -7.04292,-1.67525 L -7.04228,-1.66078 L -7.04034,-1.64722 L -7.03712,-1.63455 L -7.03262,-1.6228
 L -7.02682,-1.61194 L -7.01974,-1.60199 L -7.01138,-1.59274 L -7.0018,-1.58395 L -6.99095,-1.57565 L -6.97887,-1.56783
 L -6.96555,-1.56046 L -6.95099,-1.55357 L -6.9332,-1.54665 L -6.9102,-1.53915 L -6.88202,-1.5311 L -6.84863,-1.52248
 L -6.81004,-1.51329 L -6.76625,-1.50354 L -6.71381,-1.49202 L -6.66656,-1.4808 L -6.62456,-1.46986 L -6.58777,-1.45923
 L -6.55621,-1.4489 L -6.52986,-1.43884 L -6.50696,-1.42868 L -6.4857,-1.41795 L -6.46608,-1.40671 L -6.44814,-1.39491
 L -6.43182,-1.38258 L -6.41716,-1.36969 L -6.40387,-1.35611 L -6.39166,-1.34166 L -6.38054,-1.32635 L -6.3705,-1.3102
 L -6.36156,-1.29317 L -6.35368,-1.27528 L -6.34697,-1.25652 L -6.34148,-1.23682 L -6.3372,-1.2162 L -6.33415,-1.19464
 L -6.33232,-1.17216 L -6.33171,-1.14876 L -6.33517,-1.09482 L -6.3456,-1.04527 L -6.36295,-1.00015 L -6.38724,-0.959427
 L -6.41846,-0.923111 L -6.45663,-0.891205 L -6.50151,-0.863983 L -6.55287,-0.841705 L -6.61073,-0.824387 L -6.67508,-0.812012
 L -6.7459,-0.804581 L -6.82321,-0.802109 z
M -9.88853,-0.818375 L -9.88853,-1.96494 L -9.31564,-1.96494 L -9.24989,-1.96248 L -9.18933,-1.95512 L -9.13397,-1.94286
 L -9.08382,-1.92569 L -9.03886,-1.90363 L -8.9991,-1.87665 L -8.96503,-1.84508 L -8.93716,-1.80923 L -8.91548,-1.76913
 L -8.89999,-1.72475 L -8.8907,-1.67609 L -8.8876,-1.62317 L -8.88951,-1.58394 L -8.8952,-1.54654 L -8.90469,-1.51096
 L -8.91798,-1.47722 L -8.93509,-1.44531 L -8.95598,-1.41524 L -8.98009,-1.38776 L -9.00688,-1.36359 L -9.03633,-1.34274
 L -9.06845,-1.32521 L -9.10323,-1.311 L -9.14069,-1.30011 L -8.83064,-0.818375 L -9.10081,-0.818375 L -9.36691,-1.25374
 L -9.64847,-1.25374 L -9.64847,-0.818375 z
M -9.30208,-1.44133 L -9.27252,-1.44513 L -9.24567,-1.45146 L -9.22153,-1.46033 L -9.20009,-1.47171 L -9.18138,-1.48563
 L -9.16547,-1.50185 L -9.15245,-1.52008 L -9.14232,-1.54036 L -9.13509,-1.56267 L -9.13075,-1.58702 L -9.1293,-1.6134
 L -9.13518,-1.66388 L -9.1528,-1.70517 L -9.18219,-1.73729 L -9.22333,-1.76024 L -9.27623,-1.774 L -9.34087,-1.77859
 L -9.64847,-1.77859 L -9.64847,-1.44006 L -9.33435,-1.44006 z
M -8.71312,-0.818375 L -8.71312,-1.96494 L -7.86763,-1.96494 L -7.86763,-1.7794 L -8.47307,-1.7794 L -8.47307,-1.42461
 L -7.88635,-1.42461 L -7.88635,-1.23909 L -8.47307,-1.23909 L -8.47307,-0.818375 z
M 1.5571,-0.818375 L 1.97537,-1.96494 L 2.25856,-1.96494 L 2.6752,-0.818375 L 2.43759,-0.818375 L 2.33588,-1.11133
 L 1.8989,-1.11133 L 1.79716,-0.818375 z
M 2.16905,-1.62154 L 2.13406,-1.73219 L 2.11696,-1.78836 L 2.11209,-1.77045 L 2.10631,-1.75002 L 2.09979,-1.72777
 L 2.09627,-1.71597 L 2.09256,-1.70372 L 2.08551,-1.68188 L 2.07195,-1.64134 L 2.05186,-1.58206 L 2.02528,-1.50409
 L 1.99219,-1.40738 L 1.95259,-1.29198 L 2.28215,-1.29198 z
M 3.54245,-0.805252 L 3.51268,-0.80983 L 3.48549,-0.817459 L 3.46086,-0.82814 L 3.43883,-0.841873 L 3.41936,-0.858643
 L 3.40271,-0.878525 L 3.38908,-0.90155 L 3.37848,-0.927719 L 3.37091,-0.957031 L 3.36636,-0.989471 L 3.36485,-1.02507
 L 3.36485,-1.54424 L 3.25336,-1.54424 L 3.25336,-1.69884 L 3.37624,-1.69884 L 3.44785,-1.90553 L 3.59106,-1.90553
 L 3.59106,-1.69884 L 3.75789,-1.69884 L 3.75789,-1.54424 L 3.59106,-1.54424 L 3.59106,-1.08691 L 3.59175,-1.06642
 L 3.59378,-1.04781 L 3.59717,-1.03107 L 3.60191,-1.0162 L 3.60802,-1.00322 L 3.61548,-0.992111 L 3.62436,-0.982788
 L 3.63474,-0.975159 L 3.64661,-0.969223 L 3.65996,-0.964981 L 3.6748,-0.962448 L 3.69115,-0.961594 L 3.70073,-0.961914
 L 3.71159,-0.96286 L 3.72371,-0.964447 L 3.73709,-0.96666 L 3.75174,-0.969498 L 3.76765,-0.972992 L 3.76765,-0.83139
 L 3.73878,-0.822937 L 3.7086,-0.816025 L 3.67712,-0.810638 L 3.64432,-0.806793 L 3.61021,-0.804489 L 3.57478,-0.803726
 z
M 7.88324,-0.805252 L 7.85347,-0.80983 L 7.82628,-0.817459 L 7.80167,-0.82814 L 7.77963,-0.841873 L 7.76016,-0.858643
 L 7.7435,-0.878525 L 7.72987,-0.90155 L 7.71928,-0.927719 L 7.7117,-0.957031 L 7.70717,-0.989471 L 7.70564,-1.02507
 L 7.70564,-1.54424 L 7.59416,-1.54424 L 7.59416,-1.69884 L 7.71704,-1.69884 L 7.78865,-1.90553 L 7.93187,-1.90553
 L 7.93187,-1.69884 L 8.09868,-1.69884 L 8.09868,-1.54424 L 7.93187,-1.54424 L 7.93187,-1.08691 L 7.93256,-1.06642
 L 7.93459,-1.04781 L 7.93797,-1.03107 L 7.94272,-1.0162 L 7.94882,-1.00322 L 7.95628,-0.992111 L 7.96516,-0.982788
 L 7.97554,-0.975159 L 7.9874,-0.969223 L 8.00076,-0.964981 L 8.01561,-0.962448 L 8.03195,-0.961594 L 8.04153,-0.961914
 L 8.05238,-0.96286 L 8.0645,-0.964447 L 8.0779,-0.96666 L 8.09254,-0.969498 L 8.10846,-0.972992 L 8.10846,-0.83139
 L 8.07959,-0.822937 L 8.04941,-0.816025 L 8.01791,-0.810638 L 7.98512,-0.806793 L 7.951,-0.804489 L 7.91559,-0.803726
 z
M 3.00044,-0.805252 L 2.97067,-0.80983 L 2.94348,-0.817459 L 2.91887,-0.82814 L 2.89682,-0.841873 L 2.87737,-0.858643
 L 2.8607,-0.878525 L 2.84708,-0.90155 L 2.83647,-0.927719 L 2.8289,-0.957031 L 2.82436,-0.989471 L 2.82285,-1.02507
 L 2.82285,-1.54424 L 2.71135,-1.54424 L 2.71135,-1.69884 L 2.83423,-1.69884 L 2.90585,-1.90553 L 3.04907,-1.90553
 L 3.04907,-1.69884 L 3.21588,-1.69884 L 3.21588,-1.54424 L 3.04907,-1.54424 L 3.04907,-1.08691 L 3.04974,-1.06642
 L 3.05177,-1.04781 L 3.05518,-1.03107 L 3.05992,-1.0162 L 3.06602,-1.00322 L 3.07347,-0.992111 L 3.08235,-0.982788
 L 3.09273,-0.975159 L 3.1046,-0.969223 L 3.11795,-0.964981 L 3.13281,-0.962448 L 3.14915,-0.961594 L 3.15874,-0.961914
 L 3.16959,-0.96286 L 3.1817,-0.964447 L 3.19508,-0.96666 L 3.20973,-0.969498 L 3.22565,-0.972992 L 3.22565,-0.83139
 L 3.19678,-0.822937 L 3.1666,-0.816025 L 3.13512,-0.810638 L 3.10231,-0.806793 L 3.06821,-0.804489 L 3.03279,-0.803726
 z
M -4.26497,-0.805252 L -4.29472,-0.80983 L -4.32193,-0.817459 L -4.34654,-0.82814 L -4.36858,-0.841873 L -4.38805,-0.858643
 L -4.40469,-0.878525 L -4.41833,-0.90155 L -4.42892,-0.927719 L -4.43651,-0.957031 L -4.44104,-0.989471 L -4.44257,-1.02507
 L -4.44257,-1.54424 L -4.55405,-1.54424 L -4.55405,-1.69884 L -4.43117,-1.69884 L -4.35956,-1.90553 L -4.21634,-1.90553
 L -4.21634,-1.69884 L -4.04953,-1.69884 L -4.04953,-1.54424 L -4.21634,-1.54424 L -4.21634,-1.08691 L -4.21565,-1.06642
 L -4.21362,-1.04781 L -4.21024,-1.03107 L -4.20549,-1.0162 L -4.19939,-1.00322 L -4.19193,-0.992111 L -4.18304,-0.982788
 L -4.17267,-0.975159 L -4.1608,-0.969223 L -4.14745,-0.964981 L -4.1326,-0.962448 L -4.11626,-0.961594 L -4.10667,-0.961914
 L -4.09583,-0.96286 L -4.08369,-0.964447 L -4.07031,-0.96666 L -4.05566,-0.969498 L -4.03975,-0.972992 L -4.03975,-0.83139
 L -4.06862,-0.822937 L -4.0988,-0.816025 L -4.13029,-0.810638 L -4.16309,-0.806793 L -4.1972,-0.804489 L -4.23262,-0.803726
 z
M 4.79657,-0.818375 L 4.79657,-1.50192 L 4.79652,-1.5248 L 4.79634,-1.54626 L 4.79607,-1.5663 L 4.79567,-1.58492
 L 4.79517,-1.6021 L 4.79454,-1.61786 L 4.79385,-1.63266 L 4.7924,-1.66069 L 4.79166,-1.67392 L 4.79088,-1.68665
 L 4.79007,-1.69884 L 5.00815,-1.69884 L 5.009,-1.69225 L 5.00996,-1.68279 L 5.011,-1.67046 L 5.01213,-1.65526
 L 5.01335,-1.63719 L 5.01466,-1.61624 L 5.0159,-1.59503 L 5.01692,-1.57614 L 5.01772,-1.55959 L 5.01828,-1.54535
 L 5.01862,-1.53345 L 5.01874,-1.52388 L 5.02199,-1.52388 L 5.0381,-1.55597 L 5.05553,-1.58501 L 5.07426,-1.61095
 L 5.09431,-1.63382 L 5.11568,-1.65363 L 5.13835,-1.67035 L 5.16241,-1.68428 L 5.18799,-1.69566 L 5.21504,-1.70453
 L 5.24359,-1.71086 L 5.27364,-1.71466 L 5.30518,-1.71593 L 5.35002,-1.71353 L 5.39125,-1.70634 L 5.42886,-1.69437
 L 5.46286,-1.67758 L 5.49324,-1.65602 L 5.51999,-1.62967 L 5.54288,-1.59871 L 5.56158,-1.56331 L 5.57614,-1.52347
 L 5.58655,-1.47922 L 5.59279,-1.43053 L 5.59486,-1.37743 L 5.59486,-0.818375 L 5.36702,-0.818375 L 5.36702,-1.31232
 L 5.36266,-1.38318 L 5.34956,-1.44115 L 5.32776,-1.48625 L 5.29721,-1.51846 L 5.25795,-1.53778 L 5.20996,-1.54424
 L 5.18318,-1.54225 L 5.1582,-1.53632 L 5.13499,-1.52643 L 5.11359,-1.51259 L 5.09395,-1.49478 L 5.0761,-1.47302
 L 5.06056,-1.44817 L 5.04785,-1.42108 L 5.03796,-1.39177 L 5.0309,-1.3602 L 5.02666,-1.3264 L 5.02525,-1.29034
 L 5.02525,-0.818375 z
M 9.22639,-0.818375 L 9.22639,-1.49214 L 9.22633,-1.51562 L 9.22617,-1.53777 L 9.22588,-1.55856 L 9.22548,-1.57805
 L 9.22498,-1.59618 L 9.22435,-1.61299 L 9.22366,-1.62883 L 9.22296,-1.64404 L 9.22223,-1.65866 L 9.22147,-1.67267
 L 9.22069,-1.68605 L 9.21989,-1.69884 L 9.43796,-1.69884 L 9.43883,-1.69229 L 9.43977,-1.68243 L 9.44081,-1.66924
 L 9.44194,-1.65273 L 9.44316,-1.63289 L 9.44447,-1.60974 L 9.44572,-1.5863 L 9.44675,-1.56566 L 9.44753,-1.54779
 L 9.44809,-1.5327 L 9.44844,-1.52039 L 9.44855,-1.51086 L 9.4518,-1.51086 L 9.46272,-1.54025 L 9.47324,-1.5666
 L 9.48334,-1.58989 L 9.49304,-1.61014 L 9.50233,-1.62733 L 9.51122,-1.64146 L 9.52016,-1.65353 L 9.52966,-1.66452
 L 9.53969,-1.67442 L 9.55026,-1.68324 L 9.56139,-1.69096 L 9.57304,-1.69762 L 9.58548,-1.7032 L 9.59891,-1.70779
 L 9.61333,-1.71135 L 9.62875,-1.7139 L 9.64516,-1.71542 L 9.66257,-1.71593 L 9.67674,-1.71559 L 9.68996,-1.71457
 L 9.70224,-1.71288 L 9.71356,-1.71049 L 9.72394,-1.70744 L 9.73335,-1.70372 L 9.73335,-1.51248 L 9.71527,-1.51622
 L 9.69792,-1.51927 L 9.68127,-1.52164 L 9.66536,-1.52333 L 9.65018,-1.52435 L 9.63571,-1.52469 L 9.60828,-1.52277
 L 9.58296,-1.51701 L 9.55972,-1.5074 L 9.5386,-1.49396 L 9.51959,-1.47665 L 9.50267,-1.45552 L 9.48813,-1.43062
 L 9.47623,-1.40199 L 9.46696,-1.36969 L 9.46036,-1.33366 L 9.45639,-1.29391 L 9.45506,-1.25047 L 9.45506,-0.818375
 z
M 4.18825,-0.805374 L 4.12973,-0.81517 L 4.07631,-0.831497 L 4.028,-0.85437 L 3.9848,-0.883759 L 3.94672,-0.919693
 L 3.91414,-0.961884 L 3.8875,-1.01007 L 3.86678,-1.06424 L 3.85196,-1.12439 L 3.84308,-1.19055 L 3.84012,-1.2627
 L 3.84312,-1.33258 L 3.85214,-1.39687 L 3.86717,-1.45552 L 3.88821,-1.50861 L 3.91528,-1.55606 L 3.94835,-1.59793
 L 3.98694,-1.63373 L 4.03053,-1.66302 L 4.07916,-1.68582 L 4.1328,-1.70209 L 4.19145,-1.71185 L 4.25513,-1.7151
 L 4.31584,-1.71162 L 4.37158,-1.70114 L 4.42236,-1.68369 L 4.46815,-1.65923 L 4.50899,-1.62781 L 4.54483,-1.58939
 L 4.57541,-1.54424 L 4.60043,-1.4926 L 4.6199,-1.43446 L 4.6338,-1.36987 L 4.64215,-1.29877 L 4.64493,-1.22118
 L 4.64493,-1.21468 L 4.08018,-1.21468 L 4.0815,-1.17357 L 4.08546,-1.13597 L 4.09209,-1.10187 L 4.10133,-1.07127
 L 4.11324,-1.04417 L 4.12778,-1.02058 L 4.14478,-1.00058 L 4.164,-0.984207 L 4.18546,-0.971466 L 4.20915,-0.962372
 L 4.23509,-0.956909 L 4.26328,-0.955093 L 4.30121,-0.958008 L 4.33417,-0.966751 L 4.36214,-0.981339 L 4.38515,-1.00174
 L 4.40318,-1.02798 L 4.41624,-1.06006 L 4.6319,-1.04135 L 4.59535,-0.968246 L 4.54808,-0.908432 L 4.4901,-0.861908
 L 4.4214,-0.82869 L 4.342,-0.808746 L 4.25188,-0.802109 z
M 4.42035,-1.39195 L 4.41499,-1.42302 L 4.4075,-1.45116 L 4.3979,-1.47632 L 4.38617,-1.49854 L 4.37231,-1.51778
 L 4.35654,-1.53407 L 4.33904,-1.54739 L 4.31982,-1.55775 L 4.29889,-1.56516 L 4.27625,-1.56961 L 4.25188,-1.57109
 L 4.22606,-1.56952 L 4.20229,-1.56485 L 4.18057,-1.55705 L 4.16092,-1.54613 L 4.14333,-1.53209 L 4.12778,-1.51492
 L 4.11441,-1.49496 L 4.10333,-1.47252 L 4.09451,-1.44759 L 4.088,-1.42017 L 4.08376,-1.39029 L 4.0818,-1.35789
 L 4.42358,-1.35789 z
M 6.9474,-0.804031 L 6.9095,-0.80983 L 6.87471,-0.819504 L 6.84303,-0.833023 L 6.81448,-0.850418 L 6.78906,-0.871674
 L 6.76718,-0.896439 L 6.74928,-0.924347 L 6.73535,-0.955399 L 6.7254,-0.989578 L 6.71944,-1.02692 L 6.71745,-1.06738
 L 6.71992,-1.11115 L 6.72736,-1.15129 L 6.73973,-1.18782 L 6.75705,-1.22073 L 6.77933,-1.25002 L 6.80655,-1.2757
 L 6.83849,-1.29762 L 6.87486,-1.31566 L 6.9157,-1.32982 L 6.96098,-1.34009 L 7.01073,-1.34645 L 7.06493,-1.34894
 L 7.25453,-1.3522 L 7.25453,-1.39696 L 7.25369,-1.42445 L 7.25117,-1.44952 L 7.24699,-1.47211 L 7.24115,-1.49223
 L 7.23361,-1.5099 L 7.22441,-1.5251 L 7.21332,-1.5379 L 7.20009,-1.54839 L 7.18475,-1.55653 L 7.16728,-1.56236
 L 7.14767,-1.56586 L 7.12596,-1.56702 L 7.10573,-1.56621 L 7.08739,-1.56381 L 7.07092,-1.5598 L 7.05634,-1.55417
 L 7.04361,-1.54695 L 7.03278,-1.53812 L 7.0235,-1.52744 L 7.01546,-1.51466 L 7.00867,-1.49977 L 7.00313,-1.48279
 L 6.99883,-1.4637 L 6.99576,-1.4425 L 6.75732,-1.4539 L 6.76669,-1.49503 L 6.78015,-1.5327 L 6.79771,-1.56691
 L 6.81935,-1.59766 L 6.84508,-1.62495 L 6.87491,-1.64879 L 6.90871,-1.66905 L 6.94638,-1.68564 L 6.98792,-1.69853
 L 7.03331,-1.70773 L 7.08258,-1.71327 L 7.13571,-1.7151 L 7.18919,-1.71283 L 7.23843,-1.70598 L 7.28342,-1.69456
 L 7.32414,-1.67859 L 7.36063,-1.65804 L 7.39287,-1.63292 L 7.42046,-1.60361 L 7.44304,-1.57045 L 7.4606,-1.53345
 L 7.47314,-1.4926 L 7.48068,-1.44791 L 7.48318,-1.3994 L 7.48318,-1.07878 L 7.48364,-1.05537 L 7.48503,-1.03452
 L 7.48735,-1.01622 L 7.4906,-1.00047 L 7.49477,-0.987274 L 7.49986,-0.976639 L 7.50606,-0.968063 L 7.51347,-0.961044
 L 7.52216,-0.955597 L 7.53206,-0.951691 L 7.54321,-0.949356 L 7.55562,-0.948578 L 7.56425,-0.948715 L 7.5728,-0.949112
 L 7.58125,-0.949799 L 7.58961,-0.950745 L 7.59789,-0.951965 L 7.60606,-0.953461 L 7.60606,-0.829758 L 7.5994,-0.828156
 L 7.56401,-0.819504 L 7.55859,-0.818283 L 7.55316,-0.817154 L 7.54774,-0.816116 L 7.54233,-0.81517 L 7.5369,-0.814316
 L 7.53142,-0.813522 L 7.52582,-0.812775 L 7.52011,-0.812073 L 7.5143,-0.811417 L 7.50836,-0.810806 L 7.50232,-0.810242
 L 7.49603,-0.809738 L 7.48943,-0.809341 L 7.48248,-0.809021 L 7.47519,-0.808792 L 7.46756,-0.808655 L 7.45959,-0.808609
 L 7.4321,-0.809784 L 7.4071,-0.813309 L 7.38463,-0.819183 L 7.36465,-0.827408 L 7.3472,-0.837997 L 7.33223,-0.850922
 L 7.31946,-0.866135 L 7.3085,-0.88356 L 7.29938,-0.903214 L 7.2921,-0.925064 L 7.28664,-0.949142 L 7.283,-0.975433
 L 7.27812,-0.975433 L 7.24341,-0.92247 L 7.20326,-0.879135 L 7.15768,-0.845444 L 7.10669,-0.821365 L 7.05028,-0.806915
 L 6.98842,-0.802109 z
M 7.0793,-0.962418 L 7.09644,-0.964844 L 7.11304,-0.968918 L 7.12912,-0.974609 L 7.14468,-0.981934 L 7.15973,-0.990891
 L 7.17398,-1.00128 L 7.18716,-1.01291 L 7.1993,-1.02579 L 7.21036,-1.0399 L 7.22037,-1.05527 L 7.22929,-1.07187
 L 7.23701,-1.08926 L 7.24332,-1.10699 L 7.24821,-1.12506 L 7.25172,-1.14346 L 7.25383,-1.16222 L 7.25453,-1.1813
 L 7.25453,-1.22606 L 7.13734,-1.22443 L 7.11205,-1.22304 L 7.08932,-1.22104 L 7.0692,-1.21843 L 7.05162,-1.21521
 L 7.03664,-1.21138 L 7.02423,-1.20694 L 7.01355,-1.20177 L 7.00375,-1.19577 L 6.99484,-1.18893 L 6.9868,-1.18126
 L 6.97964,-1.17274 L 6.97337,-1.16341 L 6.96803,-1.15309 L 6.96365,-1.14171 L 6.96025,-1.12923 L 6.95782,-1.11566
 L 6.95636,-1.10103 L 6.95589,-1.0853 L 6.95668,-1.06529 L 6.95909,-1.04709 L 6.9631,-1.03067 L 6.96872,-1.01602
 L 6.97594,-1.00317 L 6.98477,-0.992111 L 6.99493,-0.982788 L 7.00615,-0.975159 L 7.01843,-0.969223 L 7.03178,-0.964981
 L 7.04619,-0.962448 L 7.06166,-0.961594 z
M 8.55501,-0.805496 L 8.49376,-0.815674 L 8.43745,-0.832626 L 8.38608,-0.856354 L 8.33963,-0.886871 L 8.2981,-0.924164
 L 8.2623,-0.967392 L 8.233,-1.01567 L 8.21022,-1.06902 L 8.19394,-1.12743 L 8.18417,-1.19089 L 8.18092,-1.25943
 L 8.18417,-1.3277 L 8.19394,-1.39093 L 8.21022,-1.44911 L 8.233,-1.50227 L 8.2623,-1.55038 L 8.2981,-1.59346
 L 8.33977,-1.63063 L 8.38661,-1.66104 L 8.43867,-1.68469 L 8.49593,-1.7016 L 8.55838,-1.71173 L 8.62604,-1.7151
 L 8.69508,-1.71184 L 8.75845,-1.70204 L 8.81615,-1.68571 L 8.86818,-1.66284 L 8.91452,-1.63345 L 8.9552,-1.59752
 L 8.98988,-1.55547 L 9.01826,-1.50769 L 9.04033,-1.45421 L 9.05611,-1.395 L 9.06557,-1.33008 L 9.06871,-1.25943
 L 9.06541,-1.19066 L 9.05551,-1.12701 L 9.03902,-1.06851 L 9.01591,-1.01512 L 8.98621,-0.966873 L 8.94991,-0.923767
 L 8.90778,-0.886581 L 8.86058,-0.856171 L 8.80832,-0.83252 L 8.75099,-0.815628 L 8.68861,-0.805481 L 8.62117,-0.802109
 z
M 8.68312,-0.966705 L 8.73581,-0.991791 L 8.77679,-1.03362 L 8.80606,-1.09216 L 8.82362,-1.16743 L 8.82948,-1.25943
 L 8.82806,-1.30939 L 8.82379,-1.35454 L 8.81667,-1.39491 L 8.8067,-1.43048 L 8.79387,-1.46127 L 8.77821,-1.48726
 L 8.75983,-1.5089 L 8.73888,-1.5266 L 8.71535,-1.54036 L 8.68924,-1.5502 L 8.66055,-1.55609 L 8.6293,-1.55806
 L 8.56564,-1.54977 L 8.51357,-1.52489 L 8.47305,-1.4834 L 8.44412,-1.42532 L 8.42677,-1.35068 L 8.42097,-1.25943
 L 8.42239,-1.21228 L 8.42664,-1.16905 L 8.4337,-1.12973 L 8.44359,-1.09433 L 8.4563,-1.06282 L 8.47183,-1.03525
 L 8.49004,-1.01175 L 8.51076,-0.992523 L 8.53398,-0.97757 L 8.55972,-0.966888 L 8.58797,-0.96048 L 8.61871,-0.958344
 z
M -1.85422,-0.804031 L -1.89212,-0.80983 L -1.92691,-0.819504 L -1.95857,-0.833023 L -1.98712,-0.850418 L -2.01256,-0.871674
 L -2.03444,-0.896439 L -2.05234,-0.924347 L -2.06625,-0.955399 L -2.0762,-0.989578 L -2.08217,-1.02692 L -2.08417,-1.06738
 L -2.08168,-1.11115 L -2.07426,-1.15129 L -2.06189,-1.18782 L -2.04456,-1.22073 L -2.02228,-1.25002 L -1.99506,-1.2757
 L -1.96313,-1.29762 L -1.92674,-1.31566 L -1.88591,-1.32982 L -1.84062,-1.34009 L -1.79088,-1.34645 L -1.73669,-1.34894
 L -1.54709,-1.3522 L -1.54709,-1.39696 L -1.54793,-1.42445 L -1.55043,-1.44952 L -1.55461,-1.47211 L -1.56047,-1.49223
 L -1.56799,-1.5099 L -1.57719,-1.5251 L -1.58829,-1.5379 L -1.60152,-1.54839 L -1.61687,-1.55653 L -1.63434,-1.56236
 L -1.65393,-1.56586 L -1.67566,-1.56702 L -1.69588,-1.56621 L -1.71422,-1.56381 L -1.7307,-1.5598 L -1.74529,-1.55417
 L -1.758,-1.54695 L -1.76883,-1.53812 L -1.77812,-1.52744 L -1.78615,-1.51466 L -1.79294,-1.49977 L -1.79849,-1.48279
 L -1.8028,-1.4637 L -1.80586,-1.4425 L -2.04428,-1.4539 L -2.03491,-1.49503 L -2.02145,-1.5327 L -2.00391,-1.56691
 L -1.98227,-1.59766 L -1.95653,-1.62495 L -1.92671,-1.64879 L -1.8929,-1.66905 L -1.85524,-1.68564 L -1.81371,-1.69853
 L -1.7683,-1.70773 L -1.71902,-1.71327 L -1.66589,-1.7151 L -1.61241,-1.71283 L -1.56319,-1.70598 L -1.5182,-1.69456
 L -1.47746,-1.67859 L -1.44098,-1.65804 L -1.40875,-1.63292 L -1.38115,-1.60361 L -1.35857,-1.57045 L -1.341,-1.53345
 L -1.32846,-1.4926 L -1.32094,-1.44791 L -1.31844,-1.3994 L -1.31844,-1.07878 L -1.31796,-1.05537 L -1.31657,-1.03452
 L -1.31425,-1.01622 L -1.31102,-1.00047 L -1.30684,-0.987274 L -1.30174,-0.976639 L -1.29556,-0.968063 L -1.28813,-0.961044
 L -1.27946,-0.955597 L -1.26955,-0.951691 L -1.25839,-0.949356 L -1.246,-0.948578 L -1.23737,-0.948715 L -1.22882,-0.949112
 L -1.22037,-0.949799 L -1.21201,-0.950745 L -1.20374,-0.951965 L -1.19554,-0.953461 L -1.19554,-0.829758 L -1.20221,-0.828156
 L -1.23759,-0.819504 L -1.24303,-0.818283 L -1.24844,-0.817154 L -1.25386,-0.816116 L -1.25929,-0.81517 L -1.26471,-0.814316
 L -1.2702,-0.813522 L -1.27579,-0.812775 L -1.28149,-0.812073 L -1.28732,-0.811417 L -1.29326,-0.810806 L -1.2993,-0.810242
 L -1.30557,-0.809738 L -1.31218,-0.809341 L -1.31914,-0.809021 L -1.32643,-0.808792 L -1.33406,-0.808655 L -1.34203,-0.808609
 L -1.36952,-0.809784 L -1.3945,-0.813309 L -1.41699,-0.819183 L -1.43697,-0.827408 L -1.45442,-0.837997 L -1.46938,-0.850922
 L -1.48216,-0.866135 L -1.4931,-0.88356 L -1.50223,-0.903214 L -1.50952,-0.925064 L -1.51498,-0.949142 L -1.51862,-0.975433
 L -1.52348,-0.975433 L -1.55821,-0.92247 L -1.59836,-0.879135 L -1.64392,-0.845444 L -1.69492,-0.821365 L -1.75134,-0.806915
 L -1.81319,-0.802109 z
M -1.72231,-0.962418 L -1.70518,-0.964844 L -1.68858,-0.968918 L -1.6725,-0.974609 L -1.65694,-0.981934 L -1.64189,-0.990891
 L -1.62764,-1.00128 L -1.61444,-1.01291 L -1.60233,-1.02579 L -1.59125,-1.0399 L -1.58125,-1.05527 L -1.57231,-1.07187
 L -1.56461,-1.08926 L -1.5583,-1.10699 L -1.55339,-1.12506 L -1.5499,-1.14346 L -1.54779,-1.16222 L -1.54709,-1.1813
 L -1.54709,-1.22606 L -1.66426,-1.22443 L -1.68956,-1.22304 L -1.71228,-1.22104 L -1.73242,-1.21843 L -1.74998,-1.21521
 L -1.76497,-1.21138 L -1.77737,-1.20694 L -1.78806,-1.20177 L -1.79785,-1.19577 L -1.80678,-1.18893 L -1.8148,-1.18126
 L -1.82196,-1.17274 L -1.82823,-1.16341 L -1.83359,-1.15309 L -1.83795,-1.14171 L -1.84135,-1.12923 L -1.84378,-1.11566
 L -1.84525,-1.10103 L -1.84573,-1.0853 L -1.84492,-1.06529 L -1.84253,-1.04709 L -1.83852,-1.03067 L -1.8329,-1.01602
 L -1.82567,-1.00317 L -1.81685,-0.992111 L -1.80669,-0.982788 L -1.79546,-0.975159 L -1.78317,-0.969223 L -1.76984,-0.964981
 L -1.75542,-0.962448 L -1.73996,-0.961594 z
M -3.6132,-0.80542 L -3.67235,-0.815353 L -3.72641,-0.831909 L -3.77542,-0.855087 L -3.81937,-0.884888 L -3.85825,-0.92131
 L -3.89156,-0.963669 L -3.91882,-1.01123 L -3.94003,-1.06403 L -3.95517,-1.12204 L -3.96426,-1.18527 L -3.96729,-1.25374
 L -3.96423,-1.32375 L -3.95508,-1.38841 L -3.93982,-1.44769 L -3.91847,-1.50163 L -3.89101,-1.55022 L -3.85744,-1.59346
 L -3.81827,-1.63063 L -3.77399,-1.66104 L -3.72459,-1.68469 L -3.67009,-1.7016 L -3.61047,-1.71173 L -3.54576,-1.7151
 L -3.49545,-1.71294 L -3.44812,-1.70644 L -3.40376,-1.69557 L -3.3624,-1.68039 L -3.32402,-1.66086 L -3.28862,-1.63699
 L -3.25682,-1.6093 L -3.22922,-1.57831 L -3.20583,-1.54402 L -3.18663,-1.50642 L -3.17165,-1.46555 L -3.16086,-1.42136
 L -3.39116,-1.40996 L -3.39522,-1.43172 L -3.40091,-1.45195 L -3.40823,-1.47069 L -3.41719,-1.4879 L -3.42776,-1.5036
 L -3.43997,-1.51778 L -3.45389,-1.53009 L -3.46964,-1.54016 L -3.48717,-1.54799 L -3.50652,-1.55359 L -3.52768,-1.55695
 L -3.55064,-1.55806 L -3.6046,-1.54987 L -3.64874,-1.52524 L -3.68307,-1.48422 L -3.70761,-1.42677 L -3.72232,-1.35295
 L -3.72723,-1.2627 L -3.72223,-1.16969 L -3.70724,-1.09361 L -3.68227,-1.03442 L -3.64731,-0.992157 L -3.60234,-0.966797
 L -3.54739,-0.958344 L -3.52628,-0.959488 L -3.50635,-0.962906 L -3.48758,-0.968613 L -3.47,-0.976608 L -3.45358,-0.986877
 L -3.43835,-0.999435 L -3.42462,-1.01425 L -3.41277,-1.03131 L -3.40274,-1.0506 L -3.39459,-1.07213 L -3.38828,-1.0959
 L -3.38382,-1.1219 L -3.15434,-1.11133 L -3.15953,-1.08176 L -3.16696,-1.05328 L -3.17662,-1.02588 L -3.18852,-0.999573
 L -3.20267,-0.974335 L -3.21904,-0.950195 L -3.23746,-0.92749 L -3.25769,-0.90657 L -3.27977,-0.887436 L -3.30368,-0.870102
 L -3.32941,-0.854538 L -3.35698,-0.840759 L -3.38605,-0.828949 L -3.41629,-0.81929 L -3.44771,-0.811768 L -3.4803,-0.806396
 L -3.51407,-0.803177 L -3.54901,-0.802109 z
M 0.631836,-0.805374 L 0.573318,-0.81517 L 0.519897,-0.831497 L 0.471603,-0.85437 L 0.428406,-0.883759 L 0.390305,-0.919693
 L 0.357742,-0.961884 L 0.331085,-1.01007 L 0.310364,-1.06424 L 0.295563,-1.12439 L 0.286667,-1.19055 L 0.283707,-1.2627
 L 0.286713,-1.33258 L 0.295746,-1.39687 L 0.310776,-1.45552 L 0.331818,-1.50861 L 0.358871,-1.55606 L 0.391937,-1.59793
 L 0.430527,-1.63373 L 0.474136,-1.66302 L 0.522751,-1.68582 L 0.576385,-1.70209 L 0.63504,-1.71185 L 0.698715,-1.7151
 L 0.759445,-1.71162 L 0.815186,-1.70114 L 0.865952,-1.68369 L 0.911758,-1.65923 L 0.952576,-1.62781 L 0.988419,-1.58939
 L 1.01901,-1.54424 L 1.04404,-1.4926 L 1.06349,-1.43446 L 1.07739,-1.36987 L 1.08574,-1.29877 L 1.08852,-1.22118
 L 1.08852,-1.21468 L 0.523773,-1.21468 L 0.525101,-1.17357 L 0.529068,-1.13597 L 0.535675,-1.10187 L 0.544937,-1.07127
 L 0.556839,-1.04417 L 0.571381,-1.02058 L 0.588364,-1.00058 L 0.60759,-0.984207 L 0.629059,-0.971466 L 0.652756,-0.962372
 L 0.678696,-0.956909 L 0.706863,-0.955093 L 0.744797,-0.958008 L 0.777756,-0.966751 L 0.80574,-0.981339 L 0.828751,-1.00174
 L 0.846786,-1.02798 L 0.859848,-1.06006 L 1.0755,-1.04135 L 1.03894,-0.968246 L 0.991684,-0.908432 L 0.933701,-0.861908
 L 0.865005,-0.82869 L 0.785599,-0.808746 L 0.695465,-0.802109 z
M 0.863937,-1.39195 L 0.858582,-1.42302 L 0.851105,-1.45116 L 0.841492,-1.47632 L 0.829758,-1.49854 L 0.815903,-1.51778
 L 0.800125,-1.53407 L 0.782639,-1.54739 L 0.763412,-1.55775 L 0.742493,-1.56516 L 0.719833,-1.56961 L 0.695465,-1.57109
 L 0.669647,-1.56952 L 0.645874,-1.56485 L 0.624176,-1.55705 L 0.604507,-1.54613 L 0.586914,-1.53209 L 0.571381,-1.51492
 L 0.558014,-1.49496 L 0.546921,-1.47252 L 0.538116,-1.44759 L 0.531586,-1.42017 L 0.527344,-1.39029 L 0.525391,-1.35789
 L 0.867172,-1.35789 z
M -4.91023,-0.818375 L -4.91023,-1.69884 L -4.68156,-1.69884 L -4.68156,-0.818375 z
M 6.02261,-0.804489 L 5.98138,-0.811646 L 5.94377,-0.823563 L 5.90977,-0.840256 L 5.87939,-0.861725 L 5.85263,-0.887955
 L 5.82976,-0.918793 L 5.81104,-0.954086 L 5.79648,-0.993835 L 5.78609,-1.03804 L 5.77985,-1.0867 L 5.77776,-1.1398
 L 5.77776,-1.69884 L 6.00644,-1.69884 L 6.00644,-1.20491 L 6.01077,-1.13405 L 6.02379,-1.07607 L 6.0455,-1.03096
 L 6.07587,-0.998749 L 6.11493,-0.979431 L 6.16267,-0.972992 L 6.18944,-0.97496 L 6.21443,-0.980896 L 6.23763,-0.990784
 L 6.25905,-1.00464 L 6.27867,-1.02243 L 6.29652,-1.04419 L 6.31207,-1.06905 L 6.32478,-1.09615 L 6.33467,-1.12547
 L 6.34174,-1.15703 L 6.34598,-1.19084 L 6.3474,-1.22688 L 6.3474,-1.69884 L 6.57605,-1.69884 L 6.57605,-1.0153
 L 6.57623,-0.978638 L 6.57677,-0.943512 L 6.57768,-0.909927 L 6.57895,-0.877869 L 6.58058,-0.847351 L 6.58257,-0.818375
 L 6.36447,-0.818375 L 6.3615,-0.855789 L 6.35905,-0.889893 L 6.35715,-0.9207 L 6.35579,-0.948212 L 6.35498,-0.972427
 L 6.35471,-0.993332 L 6.35065,-0.993332 L 6.33476,-0.961487 L 6.3175,-0.932663 L 6.29887,-0.906876 L 6.27885,-0.884109
 L 6.25746,-0.86438 L 6.23468,-0.847672 L 6.21049,-0.83374 L 6.18481,-0.822357 L 6.15768,-0.813492 L 6.12907,-0.807175
 L 6.099,-0.803375 L 6.06746,-0.802109 z
M -6.06963,-0.818375 L -6.29747,-1.69884 L -6.08264,-1.69884 L -5.93781,-1.02588 L -5.92641,-1.08609 L -5.90607,-1.1813
 L -5.76773,-1.69884 L -5.52278,-1.69884 L -5.3877,-1.1813 L -5.38361,-1.16524 L -5.37894,-1.14523 L -5.37366,-1.12129
 L -5.36781,-1.09341 L -5.36137,-1.06161 L -5.35434,-1.02588 L -5.33154,-1.13329 L -5.20462,-1.69884 L -4.99303,-1.69884
 L -5.22414,-0.818375 L -5.46582,-0.818375 L -5.60579,-1.35545 L -5.60956,-1.37064 L -5.61438,-1.3918 L -5.62022,-1.41891
 L -5.62712,-1.45201 L -5.63506,-1.49106 L -5.64403,-1.53609 L -5.68636,-1.35384 L -5.82794,-0.818375 z
M -6.89786,-0.457535 L -6.89786,-0.625977 L -6.66919,-0.625977 L -6.66919,-0.457535 z
M -5.00414,0.581619 L -5.00414,-0.564941 L -4.76407,-0.564941 L -4.76407,0.396088 L -4.14888,0.396088 L -4.14888,0.581619
 z
M -9.88853,0.581619 L -9.88853,-0.564941 L -9.64847,-0.564941 L -9.64847,-0.0449524 L -9.13173,-0.564941 L -8.85181,-0.564941
 L -9.34169,-0.0799561 L -8.81194,0.581619 L -9.09511,0.581619 L -9.50688,0.0551147 L -9.64847,0.163345 L -9.64847,0.581619
 z
M -2.81776,0.594742 L -2.84753,0.590164 L -2.87473,0.582535 L -2.89934,0.571854 L -2.92139,0.558121 L -2.94084,0.541351
 L -2.9575,0.521469 L -2.97113,0.498444 L -2.98174,0.472275 L -2.9893,0.442963 L -2.99385,0.410522 L -2.99536,0.374924
 L -2.99536,-0.144241 L -3.10686,-0.144241 L -3.10686,-0.298843 L -2.98398,-0.298843 L -2.91235,-0.505539 L -2.76913,-0.505539
 L -2.76913,-0.298843 L -2.60233,-0.298843 L -2.60233,-0.144241 L -2.76913,-0.144241 L -2.76913,0.31308 L -2.76846,0.333572
 L -2.76643,0.352188 L -2.76303,0.368927 L -2.75829,0.383789 L -2.75218,0.396774 L -2.74474,0.407883 L -2.73586,0.417206
 L -2.72548,0.424835 L -2.71361,0.430771 L -2.70026,0.435013 L -2.68539,0.437546 L -2.66905,0.4384 L -2.65947,0.43808
 L -2.64862,0.437134 L -2.63651,0.435547 L -2.62312,0.433334 L -2.60847,0.430496 L -2.59256,0.427002 L -2.59256,0.568604
 L -2.62143,0.577057 L -2.65161,0.583969 L -2.68309,0.589355 L -2.7159,0.593201 L -2.75,0.595505 L -2.78542,0.596268
 z
M -6.44565,0.581619 L -6.44565,-0.101929 L -6.44571,-0.124802 L -6.44588,-0.146271 L -6.44617,-0.166306 L -6.44656,-0.184921
 L -6.44707,-0.202103 L -6.44769,-0.217865 L -6.44838,-0.232666 L -6.44983,-0.260696 L -6.45058,-0.273926 L -6.45135,-0.286652
 L -6.45216,-0.298843 L -6.23409,-0.298843 L -6.23322,-0.292252 L -6.23227,-0.282791 L -6.23123,-0.270462 L -6.2301,-0.255264
 L -6.22888,-0.237198 L -6.22757,-0.216248 L -6.22632,-0.195038 L -6.22531,-0.176147 L -6.22452,-0.159592 L -6.22395,-0.145355
 L -6.22362,-0.133453 L -6.2235,-0.123886 L -6.22025,-0.123886 L -6.20413,-0.155975 L -6.18671,-0.185013 L -6.16795,-0.210953
 L -6.14792,-0.233826 L -6.12656,-0.253632 L -6.10388,-0.270355 L -6.0798,-0.284286 L -6.05424,-0.29567 L -6.02719,-0.304535
 L -5.99864,-0.310867 L -5.9686,-0.314667 L -5.93706,-0.315933 L -5.89221,-0.313538 L -5.85098,-0.306351 L -5.81337,-0.294373
 L -5.77937,-0.277588 L -5.74899,-0.256027 L -5.72223,-0.229675 L -5.69936,-0.198715 L -5.68065,-0.163315 L -5.66609,-0.123474
 L -5.65569,-0.0792236 L -5.64944,-0.0305328 L -5.64737,0.0225677 L -5.64737,0.581619 L -5.87521,0.581619 L -5.87521,0.087677
 L -5.87958,0.0168152 L -5.89265,-0.041153 L -5.91447,-0.0862579 L -5.94501,-0.118469 L -5.98428,-0.137787 L -6.03227,-0.144241
 L -6.05904,-0.142258 L -6.08403,-0.136322 L -6.10724,-0.126434 L -6.12865,-0.112595 L -6.14828,-0.0947876 L -6.16612,-0.0730286
 L -6.18167,-0.048172 L -6.19438,-0.0210876 L -6.20427,0.00822449 L -6.21133,0.0397949 L -6.21558,0.0735931 L -6.21698,0.10965
 L -6.21698,0.581619 z
M -0.749832,0.581619 L -0.749832,-0.0921478 L -0.749878,-0.115631 L -0.750061,-0.137772 L -0.750336,-0.158569 L -0.750732,-0.178055
 L -0.751251,-0.196182 L -0.751862,-0.212997 L -0.752548,-0.228836 L -0.753265,-0.244049 L -0.753998,-0.258667 L -0.754745,-0.272675
 L -0.755524,-0.286057 L -0.756332,-0.298843 L -0.538254,-0.298843 L -0.537399,-0.292297 L -0.536438,-0.28244 L -0.5354,-0.269241
 L -0.534271,-0.252731 L -0.533051,-0.232895 L -0.531738,-0.209747 L -0.530502,-0.18631 L -0.52948,-0.165665 L -0.528687,-0.147797
 L -0.528122,-0.132706 L -0.527786,-0.120392 L -0.527664,-0.11087 L -0.524414,-0.11087 L -0.513504,-0.140259 L -0.502991,-0.166611
 L -0.492874,-0.189896 L -0.483185,-0.210144 L -0.473892,-0.227341 L -0.465012,-0.24147 L -0.456055,-0.25354 L -0.446564,-0.264526
 L -0.436523,-0.274429 L -0.425949,-0.283249 L -0.414825,-0.29097 L -0.403168,-0.297623 L -0.390732,-0.303207 L -0.377304,-0.3078
 L -0.362885,-0.311356 L -0.347473,-0.313904 L -0.331055,-0.31543 L -0.313644,-0.315933 L -0.299484,-0.315598 L -0.286255,-0.314575
 L -0.273987,-0.312881 L -0.262665,-0.310501 L -0.252289,-0.307449 L -0.242859,-0.303726 L -0.242859,-0.112488 L -0.260941,-0.116226
 L -0.278305,-0.119278 L -0.294937,-0.121643 L -0.310852,-0.123337 L -0.326035,-0.124359 L -0.3405,-0.124695 L -0.367935,-0.122772
 L -0.393265,-0.11702 L -0.416489,-0.107407 L -0.437607,-0.0939636 L -0.456635,-0.0766602 L -0.473557,-0.0555267 L -0.488098,-0.0306244
 L -0.5,-0.0019989 L -0.509247,0.030304 L -0.515869,0.06633 L -0.519836,0.106079 L -0.521149,0.149521 L -0.521149,0.581619
 z
M -8.41138,0.59462 L -8.46989,0.584824 L -8.52332,0.568497 L -8.57162,0.545624 L -8.61482,0.516235 L -8.65291,0.480301
 L -8.68549,0.43811 L -8.71213,0.389923 L -8.73285,0.335754 L -8.74767,0.275604 L -8.75655,0.209442 L -8.75951,0.137299
 L -8.7565,0.0674133 L -8.74748,0.00312805 L -8.73245,-0.0555267 L -8.71141,-0.108612 L -8.68434,-0.156067 L -8.65128,-0.197937
 L -8.61269,-0.233734 L -8.56909,-0.263031 L -8.52046,-0.285828 L -8.46683,-0.302094 L -8.40817,-0.311859 L -8.3445,-0.315109
 L -8.28378,-0.31163 L -8.22804,-0.301147 L -8.17726,-0.283691 L -8.13147,-0.259232 L -8.09064,-0.227814 L -8.05479,-0.189392
 L -8.02422,-0.144241 L -7.99919,-0.0926056 L -7.97972,-0.0344696 L -7.96582,0.0301208 L -7.95749,0.101227 L -7.9547,0.178818
 L -7.9547,0.185318 L -8.51944,0.185318 L -8.51813,0.226425 L -8.51416,0.264023 L -8.50754,0.298126 L -8.49829,0.32872
 L -8.48639,0.35582 L -8.47185,0.37941 L -8.45485,0.399414 L -8.43562,0.415787 L -8.41417,0.428528 L -8.39047,0.437622
 L -8.36453,0.443085 L -8.33635,0.444901 L -8.29842,0.441986 L -8.26546,0.433243 L -8.23749,0.418655 L -8.21448,0.398254
 L -8.19644,0.372009 L -8.18338,0.339935 L -7.96773,0.358643 L -8.00427,0.431747 L -8.05154,0.491562 L -8.10953,0.538086
 L -8.17822,0.571304 L -8.25763,0.591248 L -8.34775,0.597885 z
M -8.17928,0.00804138 L -8.18463,-0.0230255 L -8.19212,-0.0511627 L -8.20172,-0.0763245 L -8.21346,-0.0985413 L -8.22731,-0.117783
 L -8.24309,-0.134079 L -8.26059,-0.1474 L -8.2798,-0.157761 L -8.30074,-0.165161 L -8.32338,-0.169617 L -8.34775,-0.171097
 L -8.37357,-0.169525 L -8.39734,-0.164856 L -8.41905,-0.157059 L -8.43871,-0.146133 L -8.4563,-0.132095 L -8.47185,-0.114929
 L -8.48521,-0.0949707 L -8.49631,-0.072525 L -8.50511,-0.0475922 L -8.51163,-0.0201721 L -8.51587,0.00970459 L -8.51782,0.042099
 L -8.17604,0.042099 z
M -1.35815,0.59462 L -1.41667,0.584824 L -1.47009,0.568497 L -1.5184,0.545624 L -1.5616,0.516235 L -1.59969,0.480301
 L -1.63226,0.43811 L -1.65891,0.389923 L -1.67963,0.335754 L -1.69444,0.275604 L -1.70332,0.209442 L -1.70628,0.137299
 L -1.70328,0.0674133 L -1.69426,0.00312805 L -1.67923,-0.0555267 L -1.65819,-0.108612 L -1.63112,-0.156067 L -1.59805,-0.197937
 L -1.55946,-0.233734 L -1.51587,-0.263031 L -1.46724,-0.285828 L -1.4136,-0.302094 L -1.35495,-0.311859 L -1.29128,-0.315109
 L -1.23056,-0.31163 L -1.17482,-0.301147 L -1.12404,-0.283691 L -1.07825,-0.259232 L -1.03741,-0.227814 L -1.00157,-0.189392
 L -0.970993,-0.144241 L -0.945969,-0.0926056 L -0.926498,-0.0344696 L -0.912598,0.0301208 L -0.904266,0.101227 L -0.901474,0.178818
 L -0.901474,0.185318 L -1.46622,0.185318 L -1.4649,0.226425 L -1.46094,0.264023 L -1.45432,0.298126 L -1.44507,0.32872
 L -1.43317,0.35582 L -1.41862,0.37941 L -1.40163,0.399414 L -1.3824,0.415787 L -1.36095,0.428528 L -1.33725,0.437622
 L -1.31131,0.443085 L -1.28313,0.444901 L -1.24519,0.441986 L -1.21223,0.433243 L -1.18427,0.418655 L -1.16125,0.398254
 L -1.14322,0.372009 L -1.13016,0.339935 L -0.914505,0.358643 L -0.95105,0.431747 L -0.998322,0.491562 L -1.0563,0.538086
 L -1.125,0.571304 L -1.20441,0.591248 L -1.29453,0.597885 z
M -1.12605,0.00804138 L -1.13141,-0.0230255 L -1.1389,-0.0511627 L -1.1485,-0.0763245 L -1.16023,-0.0985413 L -1.17409,-0.117783
 L -1.18987,-0.134079 L -1.20737,-0.1474 L -1.22658,-0.157761 L -1.24751,-0.165161 L -1.27016,-0.169617 L -1.29453,-0.171097
 L -1.32034,-0.169525 L -1.34412,-0.164856 L -1.36583,-0.157059 L -1.38548,-0.146133 L -1.40308,-0.132095 L -1.41862,-0.114929
 L -1.43199,-0.0949707 L -1.44308,-0.072525 L -1.45189,-0.0475922 L -1.4584,-0.0201721 L -1.46265,0.00970459 L -1.4646,0.042099
 L -1.12282,0.042099 z
M -7.59798,0.581619 L -7.9129,-0.298843 L -7.67122,-0.298843 L -7.51743,0.193451 L -7.51242,0.210403 L -7.50557,0.234146
 L -7.49687,0.264664 L -7.48631,0.301956 L -7.45964,0.396896 L -7.45647,0.384369 L -7.45232,0.369049 L -7.44724,0.350922
 L -7.44121,0.329987 L -7.43422,0.306259 L -7.42628,0.279724 L -7.41408,0.240372 L -7.39427,0.178177 L -7.36688,0.0931702
 L -7.33188,-0.0146637 L -7.28931,-0.14534 L -7.23912,-0.298843 L -6.99988,-0.298843 L -7.32455,0.581619 z
M -6.89786,0.581619 L -6.89786,-0.298843 L -6.66919,-0.298843 L -6.66919,0.581619 z
M -3.77321,0.595505 L -3.81444,0.588348 L -3.85205,0.576431 L -3.88605,0.559738 L -3.91643,0.538269 L -3.94319,0.512039
 L -3.96606,0.481201 L -3.98479,0.445908 L -3.99934,0.406158 L -4.00974,0.361954 L -4.01598,0.313293 L -4.01805,0.260193
 L -4.01805,-0.298843 L -3.78938,-0.298843 L -3.78938,0.195084 L -3.78505,0.265945 L -3.77203,0.323929 L -3.75032,0.369034
 L -3.71994,0.401245 L -3.68089,0.420563 L -3.63315,0.427002 L -3.60637,0.425034 L -3.58139,0.419098 L -3.55818,0.40921
 L -3.53677,0.395355 L -3.51714,0.377563 L -3.4993,0.355804 L -3.48375,0.330948 L -3.47104,0.303848 L -3.46115,0.274521
 L -3.45409,0.242966 L -3.44984,0.209152 L -3.44843,0.173111 L -3.44843,-0.298843 L -3.21977,-0.298843 L -3.21977,0.384689
 L -3.21959,0.421356 L -3.21904,0.456482 L -3.21814,0.490067 L -3.21687,0.522125 L -3.21524,0.552643 L -3.21326,0.581619
 L -3.43134,0.581619 L -3.43433,0.544205 L -3.43677,0.510101 L -3.43867,0.479294 L -3.44002,0.451782 L -3.44084,0.427567
 L -3.44112,0.406662 L -3.44518,0.406662 L -3.46106,0.438507 L -3.47832,0.467331 L -3.49695,0.493118 L -3.51697,0.515884
 L -3.53836,0.535614 L -3.56113,0.552322 L -3.58533,0.566254 L -3.61101,0.577637 L -3.63814,0.586502 L -3.66675,0.592819
 L -3.69682,0.596619 L -3.72836,0.597885 z
M -2.51846,0.581619 L -2.51846,0.419678 L -2.10426,-0.133652 L -2.48509,-0.133652 L -2.48509,-0.298843 L -1.85201,-0.298843
 L -1.85201,-0.135284 L -2.26376,0.414795 L -1.81213,0.414795 L -1.81213,0.581619 z
M -6.89786,0.942459 L -6.89786,0.774017 L -6.66919,0.774017 L -6.66919,0.942459 z
M -5.54047,0.942459 L -5.54047,0.774017 L -5.3118,0.774017 L -5.3118,0.942459 z
M -9.88853,1.98161 L -9.88853,0.835052 L -9.31564,0.835052 L -9.24989,0.837509 L -9.18933,0.844864 L -9.13397,0.857132
 L -9.08382,0.874298 L -9.03886,0.896362 L -8.9991,0.92334 L -8.96503,0.95491 L -8.93716,0.990753 L -8.91548,1.03085
 L -8.89999,1.07524 L -8.8907,1.1239 L -8.8876,1.17682 L -8.88951,1.21605 L -8.8952,1.25345 L -8.90469,1.28903
 L -8.91798,1.32277 L -8.93509,1.35468 L -8.95598,1.38475 L -8.98009,1.41223 L -9.00688,1.4364 L -9.03633,1.45724
 L -9.06845,1.47478 L -9.10323,1.48898 L -9.14069,1.49988 L -8.83064,1.98161 L -9.10081,1.98161 L -9.36691,1.54625
 L -9.64847,1.54625 L -9.64847,1.98161 z
M -9.30208,1.35866 L -9.27252,1.35486 L -9.24567,1.34853 L -9.22153,1.33966 L -9.20009,1.32828 L -9.18138,1.31436
 L -9.16547,1.29814 L -9.15245,1.27991 L -9.14232,1.25963 L -9.13509,1.23732 L -9.13075,1.21297 L -9.1293,1.18658
 L -9.13518,1.13611 L -9.1528,1.09482 L -9.18219,1.0627 L -9.22333,1.03975 L -9.27623,1.02599 L -9.34087,1.02139
 L -9.64847,1.02139 L -9.64847,1.35992 L -9.33435,1.35992 z
M -2.65903,1.98161 L -2.65903,1.81154 L -2.37505,1.81154 L -2.37505,1.02954 L -2.65009,1.20125 L -2.65009,1.02139
 L -2.36282,0.835052 L -2.14636,0.835052 L -2.14636,1.81154 L -1.88353,1.81154 L -1.88353,1.98161 z
M -6.15549,1.99629 L -6.20889,1.99152 L -6.25757,1.98354 L -6.30153,1.9724 L -6.34076,1.95805 L -6.37526,1.94052
 L -6.40561,1.91963 L -6.43236,1.89517 L -6.45552,1.86719 L -6.47508,1.83563 L -6.49104,1.80055 L -6.50342,1.7619
 L -6.30243,1.7318 L -6.29605,1.75166 L -6.28828,1.7695 L -6.27914,1.78529 L -6.26862,1.79906 L -6.25673,1.81079
 L -6.24344,1.82048 L -6.22774,1.82845 L -6.20859,1.83496 L -6.18596,1.84001 L -6.1599,1.84363 L -6.13036,1.84581
 L -6.09737,1.84653 L -6.0668,1.84586 L -6.03914,1.84381 L -6.01436,1.84042 L -5.99248,1.83568 L -5.9735,1.82957
 L -5.9574,1.82211 L -5.94397,1.81322 L -5.93298,1.80276 L -5.92444,1.79079 L -5.91833,1.77727 L -5.91467,1.76221
 L -5.91345,1.74562 L -5.91444,1.73199 L -5.91739,1.71936 L -5.9223,1.70769 L -5.92918,1.69698 L -5.93803,1.68726
 L -5.94885,1.6785 L -5.96202,1.67044 L -5.97792,1.66281 L -5.99657,1.65561 L -6.01794,1.64883 L -6.04205,1.64249
 L -6.06889,1.63658 L -6.12994,1.62398 L -6.18399,1.61166 L -6.23103,1.59966 L -6.27106,1.58794 L -6.30409,1.57651
 L -6.33011,1.56538 L -6.35173,1.55385 L -6.37157,1.54123 L -6.3896,1.52754 L -6.40587,1.51276 L -6.42035,1.49689
 L -6.43304,1.47993 L -6.44386,1.46178 L -6.45271,1.44228 L -6.45959,1.42145 L -6.46451,1.39929 L -6.46745,1.37579
 L -6.46844,1.35097 L -6.46574,1.31047 L -6.45764,1.27307 L -6.44414,1.23877 L -6.42522,1.20757 L -6.40091,1.17946
 L -6.3712,1.15445 L -6.33653,1.13295 L -6.29736,1.11534 L -6.25371,1.10165 L -6.20555,1.09189 L -6.15289,1.08601
 L -6.09573,1.08406 L -6.04509,1.08575 L -5.99786,1.09085 L -5.95406,1.09932 L -5.91365,1.11119 L -5.87665,1.12645
 L -5.84308,1.1451 L -5.8132,1.16695 L -5.78734,1.19183 L -5.76546,1.21976 L -5.74759,1.2507 L -5.73372,1.28467
 L -5.72386,1.32167 L -5.92647,1.34283 L -5.93053,1.32568 L -5.93616,1.31006 L -5.94336,1.29594 L -5.95216,1.28334
 L -5.96254,1.27226 L -5.9745,1.26268 L -5.98849,1.25461 L -6.00497,1.24799 L -6.02393,1.24284 L -6.04538,1.23917
 L -6.06932,1.23697 L -6.09573,1.23624 L -6.12173,1.23682 L -6.14548,1.23854 L -6.16695,1.24142 L -6.18616,1.24545
 L -6.20311,1.25064 L -6.2178,1.25699 L -6.23024,1.26468 L -6.24042,1.27394 L -6.24832,1.28474 L -6.25397,1.29712
 L -6.25735,1.31107 L -6.25848,1.32655 L -6.25761,1.33887 L -6.255,1.3503 L -6.25066,1.36084 L -6.24457,1.3705
 L -6.23674,1.37929 L -6.22716,1.38718 L -6.21553,1.39442 L -6.20152,1.40123 L -6.18515,1.40761 L -6.1664,1.41357
 L -6.14528,1.4191 L -6.12178,1.42419 L -6.08797,1.43127 L -6.05545,1.43843 L -6.02423,1.44566 L -5.99429,1.45296
 L -5.96564,1.46031 L -5.93828,1.46773 L -5.91245,1.47543 L -5.88837,1.4836 L -5.86606,1.49225 L -5.8455,1.50136
 L -5.82672,1.51096 L -5.80971,1.52103 L -5.79411,1.53181 L -5.77959,1.54359 L -5.76617,1.55632 L -5.75383,1.57004
 L -5.74257,1.58472 L -5.73241,1.60037 L -5.72357,1.61726 L -5.71635,1.63568 L -5.71074,1.65561 L -5.70673,1.67705
 L -5.70432,1.7 L -5.70352,1.72446 L -5.70642,1.76552 L -5.71513,1.80353 L -5.72966,1.83849 L -5.74998,1.87039
 L -5.77614,1.89925 L -5.80809,1.92505 L -5.84517,1.94731 L -5.8867,1.96552 L -5.93269,1.97968 L -5.98312,1.98979
 L -6.03802,1.99586 L -6.09737,1.99788 z
M -4.09406,1.98161 L -4.09406,1.29807 L -4.09412,1.27519 L -4.09428,1.25372 L -4.09456,1.23369 L -4.09496,1.21507
 L -4.09547,1.19789 L -4.0961,1.18213 L -4.09749,1.15306 L -4.09822,1.1393 L -4.09898,1.12607 L -4.09976,1.11334
 L -4.10056,1.10115 L -3.88248,1.10115 L -3.88162,1.10774 L -3.88068,1.1172 L -3.87962,1.12953 L -3.87849,1.14473
 L -3.87727,1.1628 L -3.87596,1.18375 L -3.87473,1.20496 L -3.8737,1.22385 L -3.87291,1.2404 L -3.87234,1.25464
 L -3.87201,1.26654 L -3.8719,1.27611 L -3.86865,1.27611 L -3.85252,1.24402 L -3.8351,1.21498 L -3.81636,1.18904
 L -3.79631,1.16617 L -3.77495,1.14636 L -3.75229,1.12964 L -3.72821,1.11571 L -3.70264,1.10432 L -3.67558,1.09546
 L -3.64703,1.08913 L -3.61699,1.08533 L -3.58546,1.08406 L -3.5406,1.08646 L -3.49937,1.09364 L -3.46176,1.10562
 L -3.42776,1.12241 L -3.3974,1.14397 L -3.37064,1.17032 L -3.34776,1.20128 L -3.32904,1.23668 L -3.31448,1.27652
 L -3.30408,1.32077 L -3.29785,1.36946 L -3.29576,1.42256 L -3.29576,1.98161 L -3.52361,1.98161 L -3.52361,1.48767
 L -3.52797,1.41681 L -3.54106,1.35884 L -3.56287,1.31374 L -3.59341,1.28152 L -3.63268,1.26221 L -3.68066,1.25575
 L -3.70744,1.25774 L -3.73244,1.26367 L -3.75563,1.27356 L -3.77705,1.2874 L -3.79668,1.30521 L -3.81453,1.32697
 L -3.83006,1.35182 L -3.84277,1.37891 L -3.85266,1.40822 L -3.85973,1.43979 L -3.86397,1.47359 L -3.86539,1.50964
 L -3.86539,1.98161 z
M -8.41138,1.99461 L -8.46989,1.98482 L -8.52332,1.96849 L -8.57162,1.94562 L -8.61482,1.91623 L -8.65291,1.88029
 L -8.68549,1.8381 L -8.71213,1.78992 L -8.73285,1.73575 L -8.74767,1.6756 L -8.75655,1.60944 L -8.75951,1.53729
 L -8.7565,1.46741 L -8.74748,1.40312 L -8.73245,1.34447 L -8.71141,1.29138 L -8.68434,1.24393 L -8.65128,1.20206
 L -8.61269,1.16626 L -8.56909,1.13696 L -8.52046,1.11417 L -8.46683,1.0979 L -8.40817,1.08813 L -8.3445,1.08488
 L -8.28378,1.08836 L -8.22804,1.09885 L -8.17726,1.1163 L -8.13147,1.14076 L -8.09064,1.17218 L -8.05479,1.2106
 L -8.02422,1.25575 L -7.99919,1.30739 L -7.97972,1.36552 L -7.96582,1.43011 L -7.95749,1.50122 L -7.9547,1.57881
 L -7.9547,1.58531 L -8.51944,1.58531 L -8.51813,1.62642 L -8.51416,1.66402 L -8.50754,1.69812 L -8.49829,1.72871
 L -8.48639,1.75581 L -8.47185,1.7794 L -8.45485,1.79941 L -8.43562,1.81578 L -8.41417,1.82852 L -8.39047,1.83762
 L -8.36453,1.84308 L -8.33635,1.84489 L -8.29842,1.84198 L -8.26546,1.83324 L -8.23749,1.81865 L -8.21448,1.79825
 L -8.19644,1.772 L -8.18338,1.73993 L -7.96773,1.75864 L -8.00427,1.83174 L -8.05154,1.89156 L -8.10953,1.93808
 L -8.17822,1.9713 L -8.25763,1.99124 L -8.34775,1.99788 z
M -8.17928,1.40804 L -8.18463,1.37697 L -8.19212,1.34883 L -8.20172,1.32367 L -8.21346,1.30145 L -8.22731,1.28221
 L -8.24309,1.26591 L -8.26059,1.25259 L -8.2798,1.24223 L -8.30074,1.23483 L -8.32338,1.23038 L -8.34775,1.2289
 L -8.37357,1.23047 L -8.39734,1.23514 L -8.41905,1.24294 L -8.43871,1.25386 L -8.4563,1.2679 L -8.47185,1.28506
 L -8.48521,1.30502 L -8.49631,1.32747 L -8.50511,1.3524 L -8.51163,1.37982 L -8.51587,1.4097 L -8.51782,1.44209
 L -8.17604,1.44209 z
M -4.76544,1.99449 L -4.82668,1.98431 L -4.883,1.96736 L -4.93437,1.94363 L -4.98082,1.91312 L -5.02234,1.87582
 L -5.05815,1.8326 L -5.08745,1.78432 L -5.11023,1.73097 L -5.12651,1.67256 L -5.13628,1.6091 L -5.13953,1.54056
 L -5.13628,1.47229 L -5.12651,1.40906 L -5.11023,1.35088 L -5.08745,1.29771 L -5.05815,1.2496 L -5.02234,1.20653
 L -4.98068,1.16936 L -4.93382,1.13895 L -4.88177,1.1153 L -4.82451,1.09839 L -4.76205,1.08826 L -4.69441,1.08488
 L -4.62537,1.08815 L -4.562,1.09795 L -4.50429,1.11427 L -4.45227,1.13715 L -4.40593,1.16653 L -4.36525,1.20247
 L -4.33057,1.24452 L -4.30219,1.2923 L -4.28011,1.34578 L -4.26434,1.40498 L -4.25488,1.46991 L -4.25172,1.54056
 L -4.25504,1.60933 L -4.26492,1.67297 L -4.28143,1.73148 L -4.30453,1.78487 L -4.33424,1.83311 L -4.37054,1.87622
 L -4.41267,1.91341 L -4.45987,1.94382 L -4.51213,1.96747 L -4.56944,1.98436 L -4.63184,1.99451 L -4.69928,1.99788
 z
M -4.63733,1.83328 L -4.58464,1.8082 L -4.54366,1.76637 L -4.51437,1.70782 L -4.49681,1.63255 L -4.49097,1.54056
 L -4.49239,1.4906 L -4.49666,1.44545 L -4.50378,1.40508 L -4.51375,1.36951 L -4.52657,1.33871 L -4.54224,1.31273
 L -4.56061,1.29109 L -4.58157,1.27339 L -4.6051,1.25963 L -4.6312,1.24979 L -4.65988,1.2439 L -4.69115,1.24193
 L -4.75479,1.25021 L -4.80688,1.2751 L -4.84738,1.31659 L -4.87631,1.37466 L -4.89368,1.44931 L -4.89946,1.54056
 L -4.89806,1.58771 L -4.89381,1.63094 L -4.88675,1.67026 L -4.87686,1.70566 L -4.86415,1.73717 L -4.8486,1.76474
 L -4.8304,1.78824 L -4.80969,1.80746 L -4.78645,1.82242 L -4.76073,1.8331 L -4.73248,1.83951 L -4.70172,1.84164
 z
M -7.59798,1.98161 L -7.9129,1.10115 L -7.67122,1.10115 L -7.51743,1.59344 L -7.51242,1.6104 L -7.50557,1.63414
 L -7.49687,1.66466 L -7.48631,1.70195 L -7.45964,1.79689 L -7.45647,1.78436 L -7.45232,1.76904 L -7.44724,1.75092
 L -7.44121,1.72998 L -7.43422,1.70625 L -7.42628,1.67972 L -7.41408,1.64037 L -7.39427,1.57817 L -7.36688,1.49316
 L -7.33188,1.38533 L -7.28931,1.25465 L -7.23912,1.10115 L -6.99988,1.10115 L -7.32455,1.98161 z
M -6.89786,1.98161 L -6.89786,1.10115 L -6.66919,1.10115 L -6.66919,1.98161 z
M -5.54047,1.98161 L -5.54047,1.10115 L -5.3118,1.10115 L -5.3118,1.98161 z
" stroke="black" fill="lightgray" stroke-width="0.5"/>
</svg>
